Datalegreya-Thin
<glyph name="equal" format="1">
  <advance width="480"/>
  <unicode hex="003D"/>
  <outline>
    <contour>
      <point x="441" y="349" type="line"/>
      <point x="438" y="352" type="line"/>
      <point x="41" y="352" type="line"/>
      <point x="39" y="335" type="line"/>
      <point x="42" y="332" type="line"/>
      <point x="439" y="332" type="line"/>
    </contour>
    <contour>
      <point x="441" y="205" type="line"/>
      <point x="438" y="208" type="line"/>
      <point x="41" y="208" type="line"/>
      <point x="39" y="191" type="line"/>
      <point x="42" y="188" type="line"/>
      <point x="439" y="188" type="line"/>
    </contour>
  </outline>
</glyph>
<glyph name="A" format="1">
  <advance width="554"/>
  <unicode hex="0041"/>
  <outline>
    <contour>
      <point x="277" y="637" type="move" name="mark0"/>
    </contour>
    <contour>
      <point x="0" y="0" type="move" name="mark1"/>
    </contour>
    <contour>
      <point x="526" y="0" type="line"/>
      <point x="293" y="637" type="line"/>
      <point x="273" y="637" type="line"/>
      <point x="19" y="0" type="line"/>
      <point x="43" y="0" type="line"/>
      <point x="57" y="43" type="line"/>
      <point x="125" y="213" type="line"/>
      <point x="427" y="213" type="line"/>
      <point x="490" y="43" type="line"/>
      <point x="503" y="0" type="line"/>
    </contour>
    <contour>
      <point x="420" y="233" type="line"/>
      <point x="133" y="233" type="line"/>
      <point x="280" y="603" type="line"/>
      <point x="284" y="603" type="line"/>
    </contour>
  </outline>
</glyph>
<glyph name="F" format="1">
  <advance width="411"/>
  <unicode hex="0046"/>
  <outline>
    <contour>
      <point x="130" y="617" type="line"/>
      <point x="406" y="617" type="line"/>
      <point x="410" y="633" type="line"/>
      <point x="407" y="637" type="line"/>
      <point x="110" y="637" type="line"/>
      <point x="110" y="0" type="line"/>
      <point x="130" y="0" type="line"/>
      <point x="130" y="310" type="line"/>
      <point x="356" y="310" type="line"/>
      <point x="360" y="326" type="line"/>
      <point x="357" y="330" type="line"/>
      <point x="130" y="330" type="line"/>
    </contour>
  </outline>
</glyph>
<glyph name="G" format="1">
  <advance width="603"/>
  <unicode hex="0047"/>
  <outline>
    <contour>
      <point x="325" y="637" type="move" name="mark0"/>
    </contour>
    <contour>
      <point x="312" y="0" type="move" name="mark1"/>
    </contour>
    <contour>
      <point x="343" y="641" type="curve" smooth="yes"/>
      <point x="154" y="641"/>
      <point x="48" y="524"/>
      <point x="48" y="313" type="curve" smooth="yes"/>
      <point x="48" y="109"/>
      <point x="141" y="-5"/>
      <point x="308" y="-5" type="curve"/>
      <point x="381" y="-3"/>
      <point x="428" y="5"/>
      <point x="516" y="30" type="curve"/>
      <point x="516" y="238" type="line"/>
      <point x="496" y="236" type="line"/>
      <point x="496" y="45" type="line"/>
      <point x="413" y="22"/>
      <point x="370" y="15"/>
      <point x="307" y="15" type="curve" smooth="yes"/>
      <point x="154" y="15"/>
      <point x="68" y="121"/>
      <point x="68" y="312" type="curve" smooth="yes"/>
      <point x="68" y="511"/>
      <point x="167" y="621"/>
      <point x="343" y="621" type="curve" smooth="yes"/>
      <point x="396" y="621"/>
      <point x="455" y="602"/>
      <point x="510" y="569" type="curve"/>
      <point x="517" y="569" type="line"/>
      <point x="523" y="587" type="line"/>
      <point x="464" y="622"/>
      <point x="400" y="641"/>
    </contour>
  </outline>
</glyph>
<glyph name="H" format="1">
  <advance width="670"/>
  <unicode hex="0048"/>
  <outline>
    <contour>
      <point x="330" y="637" type="move" name="mark0"/>
    </contour>
    <contour>
      <point x="0" y="0" type="move" name="mark1"/>
    </contour>
    <contour>
      <point x="560" y="637" type="line"/>
      <point x="540" y="637" type="line"/>
      <point x="540" y="334" type="line"/>
      <point x="130" y="334" type="line"/>
      <point x="130" y="637" type="line"/>
      <point x="110" y="637" type="line"/>
      <point x="110" y="0" type="line"/>
      <point x="130" y="0" type="line"/>
      <point x="130" y="314" type="line"/>
      <point x="540" y="314" type="line"/>
      <point x="540" y="0" type="line"/>
      <point x="560" y="0" type="line"/>
    </contour>
  </outline>
</glyph>
<glyph name="N" format="1">
  <advance width="670"/>
  <unicode hex="004E"/>
  <outline>
    <contour>
      <point x="331" y="637" type="move" name="mark0"/>
    </contour>
    <contour>
      <point x="330" y="0" type="move" name="mark1"/>
    </contour>
    <contour>
      <point x="559" y="176" type="line"/>
      <point x="560" y="638" type="line"/>
      <point x="540" y="636" type="line"/>
      <point x="538" y="42" type="line"/>
      <point x="534" y="42" type="line"/>
      <point x="130" y="637" type="line"/>
      <point x="111" y="637" type="line"/>
      <point x="110" y="190" type="line"/>
      <point x="110" y="0" type="line"/>
      <point x="130" y="0" type="line"/>
      <point x="130" y="199" type="line"/>
      <point x="131" y="595" type="line"/>
      <point x="135" y="595" type="line"/>
      <point x="539" y="0" type="line"/>
      <point x="558" y="0" type="line"/>
    </contour>
  </outline>
</glyph>
<glyph name="yen" format="1">
  <advance width="434"/>
  <unicode hex="00A5"/>
  <outline>
    <contour>
      <point x="415" y="150" type="line"/>
      <point x="226" y="150" type="line"/>
      <point x="226" y="186" type="line"/>
      <point x="269" y="260" type="line"/>
      <point x="416" y="260" type="line"/>
      <point x="418" y="277" type="line"/>
      <point x="415" y="280" type="line"/>
      <point x="281" y="280" type="line"/>
      <point x="405" y="491" type="line"/>
      <point x="380" y="491" type="line"/>
      <point x="370" y="470" type="line"/>
      <point x="218" y="217" type="line"/>
      <point x="214" y="217" type="line"/>
      <point x="74" y="470" type="line"/>
      <point x="65" y="491" type="line"/>
      <point x="40" y="491" type="line"/>
      <point x="155" y="280" type="line"/>
      <point x="18" y="280" type="line"/>
      <point x="16" y="263" type="line"/>
      <point x="19" y="260" type="line"/>
      <point x="166" y="260" type="line"/>
      <point x="206" y="187" type="line"/>
      <point x="206" y="150" type="line"/>
      <point x="18" y="150" type="line"/>
      <point x="16" y="133" type="line"/>
      <point x="19" y="130" type="line"/>
      <point x="206" y="130" type="line"/>
      <point x="206" y="0" type="line"/>
      <point x="226" y="0" type="line"/>
      <point x="226" y="130" type="line"/>
      <point x="416" y="130" type="line"/>
      <point x="418" y="147" type="line"/>
    </contour>
  </outline>
</glyph>
<glyph name="softhyphen" format="1">
  <advance width="311"/>
  <unicode hex="00AD"/>
  <outline>
    <contour>
      <point x="280" y="277" type="line"/>
      <point x="276" y="281" type="line"/>
      <point x="31" y="248" type="line"/>
      <point x="31" y="232" type="line"/>
      <point x="35" y="228" type="line"/>
      <point x="280" y="261" type="line"/>
    </contour>
  </outline>
</glyph>
<glyph name="degree" format="1">
  <advance width="294"/>
  <unicode hex="00B0"/>
  <outline>
    <contour>
      <point x="147" y="642" type="curve" smooth="yes"/>
      <point x="79" y="642"/>
      <point x="25" y="589"/>
      <point x="25" y="522" type="curve" smooth="yes"/>
      <point x="25" y="455"/>
      <point x="79" y="403"/>
      <point x="147" y="403" type="curve" smooth="yes"/>
      <point x="214" y="403"/>
      <point x="268" y="455"/>
      <point x="268" y="522" type="curve" smooth="yes"/>
      <point x="268" y="589"/>
      <point x="214" y="642"/>
    </contour>
    <contour>
      <point x="147" y="622" type="curve" smooth="yes"/>
      <point x="201" y="622"/>
      <point x="248" y="576"/>
      <point x="248" y="522" type="curve" smooth="yes"/>
      <point x="248" y="469"/>
      <point x="201" y="423"/>
      <point x="147" y="423" type="curve" smooth="yes"/>
      <point x="93" y="423"/>
      <point x="45" y="469"/>
      <point x="45" y="522" type="curve" smooth="yes"/>
      <point x="45" y="576"/>
      <point x="93" y="622"/>
    </contour>
  </outline>
</glyph>
<glyph name="onesuperior" format="1">
  <advance width="240"/>
  <unicode hex="00B9"/>
  <outline>
    <contour>
      <point x="138" y="701" type="line"/>
      <point x="135" y="705" type="line"/>
      <point x="16" y="670" type="line"/>
      <point x="16" y="654" type="line"/>
      <point x="20" y="652" type="line"/>
      <point x="118" y="679" type="line"/>
      <point x="118" y="331" type="line"/>
      <point x="138" y="331" type="line"/>
    </contour>
  </outline>
</glyph>
<glyph name="Ccedilla" format="1">
  <advance width="523"/>
  <unicode hex="00C7"/>
  <outline>
    <contour>
      <point x="313" y="637" type="move" name="mark0"/>
    </contour>
    <contour>
      <point x="302" y="0" type="move" name="mark1"/>
    </contour>
    <contour>
      <point x="491" y="80" type="line"/>
      <point x="484" y="82" type="line"/>
      <point x="431" y="39"/>
      <point x="365" y="15"/>
      <point x="301" y="15" type="curve" smooth="yes"/>
      <point x="151" y="15"/>
      <point x="68" y="122"/>
      <point x="68" y="316" type="curve" smooth="yes"/>
      <point x="68" y="512"/>
      <point x="154" y="621"/>
      <point x="313" y="621" type="curve" smooth="yes"/>
      <point x="373" y="621"/>
      <point x="430" y="601"/>
      <point x="475" y="565" type="curve"/>
      <point x="482" y="565" type="line"/>
      <point x="489" y="582" type="line"/>
      <point x="440" y="620"/>
      <point x="376" y="641"/>
      <point x="313" y="641" type="curve" smooth="yes"/>
      <point x="142" y="641"/>
      <point x="48" y="525"/>
      <point x="48" y="317" type="curve" smooth="yes"/>
      <point x="48" y="112"/>
      <point x="136" y="-2"/>
      <point x="297" y="-5" type="curve"/>
      <point x="277" y="-64" type="line"/>
      <point x="321" y="-92" type="line" smooth="yes"/>
      <point x="336" y="-102"/>
      <point x="345" y="-109"/>
      <point x="345" y="-125" type="curve" smooth="yes"/>
      <point x="345" y="-146"/>
      <point x="329" y="-158"/>
      <point x="305" y="-158" type="curve" smooth="yes"/>
      <point x="280" y="-158"/>
      <point x="268" y="-145"/>
      <point x="256" y="-127" type="curve"/>
      <point x="252" y="-127" type="line"/>
      <point x="246" y="-145" type="line"/>
      <point x="256" y="-160"/>
      <point x="275" y="-178"/>
      <point x="305" y="-178" type="curve" smooth="yes"/>
      <point x="337" y="-178"/>
      <point x="365" y="-158"/>
      <point x="365" y="-125" type="curve" smooth="yes"/>
      <point x="365" y="-103"/>
      <point x="354" y="-89"/>
      <point x="332" y="-75" type="curve" smooth="yes"/>
      <point x="301" y="-55" type="line"/>
      <point x="317" y="-5" type="line"/>
      <point x="376" y="-1"/>
      <point x="437" y="22"/>
      <point x="489" y="62" type="curve"/>
    </contour>
  </outline>
</glyph>
<glyph name="Eacute" format="1">
  <advance width="454"/>
  <unicode hex="00C9"/>
  <outline>
    <contour>
      <point x="266" y="637" type="move" name="mark0"/>
    </contour>
    <contour>
      <point x="267" y="0" type="move" name="mark1"/>
    </contour>
    <contour>
      <point x="211" y="727" type="line"/>
      <point x="216" y="724" type="line"/>
      <point x="275" y="754"/>
      <point x="331" y="783"/>
      <point x="390" y="817" type="curve"/>
      <point x="392" y="822" type="line"/>
      <point x="385" y="834" type="line"/>
      <point x="380" y="836" type="line"/>
      <point x="314" y="797"/>
      <point x="258" y="768"/>
      <point x="204" y="742" type="curve"/>
    </contour>
    <contour>
      <point x="425" y="16" type="line"/>
      <point x="422" y="20" type="line"/>
      <point x="130" y="20" type="line"/>
      <point x="130" y="320" type="line"/>
      <point x="367" y="320" type="line"/>
      <point x="371" y="336" type="line"/>
      <point x="368" y="340" type="line"/>
      <point x="130" y="340" type="line"/>
      <point x="130" y="617" type="line"/>
      <point x="417" y="617" type="line"/>
      <point x="421" y="633" type="line"/>
      <point x="418" y="637" type="line"/>
      <point x="110" y="637" type="line"/>
      <point x="110" y="0" type="line"/>
      <point x="421" y="0" type="line"/>
    </contour>
  </outline>
</glyph>
<glyph name="endash" format="1">
  <advance width="492"/>
  <unicode hex="2013"/>
  <outline>
    <contour>
      <point x="507" y="261" type="line"/>
      <point x="504" y="264" type="line"/>
      <point x="-13" y="264" type="line"/>
      <point x="-15" y="247" type="line"/>
      <point x="-12" y="244" type="line"/>
      <point x="505" y="244" type="line"/>
    </contour>
  </outline>
</glyph>
<glyph name="quoteleft" format="1">
  <advance width="124"/>
  <unicode hex="2018"/>
  <outline>
    <contour>
      <point x="82" y="479" type="curve"/>
      <point x="87" y="486"/>
      <point x="91" y="491"/>
      <point x="92" y="495" type="curve" smooth="yes"/>
      <point x="92" y="499" type="line"/>
      <point x="66" y="505"/>
      <point x="54" y="519"/>
      <point x="54" y="538" type="curve" smooth="yes"/>
      <point x="54" y="561"/>
      <point x="68" y="589"/>
      <point x="98" y="621" type="curve"/>
      <point x="98" y="625" type="line"/>
      <point x="85" y="636" type="line"/>
      <point x="49" y="598"/>
      <point x="32" y="563"/>
      <point x="32" y="534" type="curve" smooth="yes"/>
      <point x="32" y="506"/>
      <point x="48" y="487"/>
    </contour>
  </outline>
</glyph>
<glyph name="fraction" format="1">
  <advance width="46"/>
  <unicode hex="2044"/>
  <outline>
    <contour>
      <point x="250" y="664" type="line"/>
      <point x="240" y="669" type="line"/>
      <point x="-245" y="-77" type="line"/>
      <point x="-241" y="-86" type="line"/>
      <point x="-232" y="-90" type="line"/>
      <point x="253" y="656" type="line"/>
    </contour>
  </outline>
</glyph>
<glyph name="sixsuperior" format="1">
  <advance width="323"/>
  <unicode hex="2076"/>
  <outline>
    <contour>
      <point x="174" y="544" type="curve" smooth="yes"/>
      <point x="135" y="544"/>
      <point x="101" y="530"/>
      <point x="71" y="508" type="curve"/>
      <point x="70" y="509" type="line"/>
      <point x="87" y="592"/>
      <point x="151" y="654"/>
      <point x="259" y="691" type="curve"/>
      <point x="259" y="694" type="line"/>
      <point x="248" y="704" type="line"/>
      <point x="245" y="704" type="line"/>
      <point x="118" y="660"/>
      <point x="45" y="573"/>
      <point x="45" y="461" type="curve" smooth="yes"/>
      <point x="45" y="375"/>
      <point x="86" y="327"/>
      <point x="159" y="327" type="curve" smooth="yes"/>
      <point x="237" y="327"/>
      <point x="279" y="369"/>
      <point x="279" y="442" type="curve" smooth="yes"/>
      <point x="279" y="507"/>
      <point x="240" y="544"/>
    </contour>
    <contour>
      <point x="160" y="344" type="curve" smooth="yes"/>
      <point x="98" y="344"/>
      <point x="65" y="386"/>
      <point x="65" y="462" type="curve" smooth="yes"/>
      <point x="65" y="470"/>
      <point x="65" y="479"/>
      <point x="66" y="487" type="curve"/>
      <point x="96" y="511"/>
      <point x="133" y="526"/>
      <point x="171" y="526" type="curve" smooth="yes"/>
      <point x="226" y="526"/>
      <point x="259" y="496"/>
      <point x="259" y="441" type="curve" smooth="yes"/>
      <point x="259" y="379"/>
      <point x="224" y="344"/>
    </contour>
  </outline>
</glyph>
<glyph name="sevensuperior" format="1">
  <advance width="288"/>
  <unicode hex="2077"/>
  <outline>
    <contour>
      <point x="76" y="700" type="line"/>
      <point x="30" y="701" type="line"/>
      <point x="28" y="684" type="line"/>
      <point x="31" y="680" type="line"/>
      <point x="71" y="681" type="line"/>
      <point x="235" y="681" type="line"/>
      <point x="70" y="334" type="line"/>
      <point x="71" y="330" type="line"/>
      <point x="89" y="325" type="line"/>
      <point x="114" y="383" type="line"/>
      <point x="257" y="684" type="line"/>
      <point x="256" y="701" type="line"/>
      <point x="232" y="700" type="line"/>
    </contour>
  </outline>
</glyph>
<glyph name="minus" format="1">
  <advance width="480"/>
  <unicode hex="2212"/>
  <outline>
    <contour>
      <point x="441" y="277" type="line"/>
      <point x="438" y="280" type="line"/>
      <point x="41" y="280" type="line"/>
      <point x="39" y="263" type="line"/>
      <point x="42" y="260" type="line"/>
      <point x="439" y="260" type="line"/>
    </contour>
  </outline>
</glyph>
<glyph name="bulletoperator" format="1">
  <advance width="231"/>
  <unicode hex="2219"/>
  <outline>
    <contour>
      <point x="115" y="258" type="curve" smooth="yes"/>
      <point x="103" y="258"/>
      <point x="95" y="250"/>
      <point x="95" y="238" type="curve" smooth="yes"/>
      <point x="95" y="226"/>
      <point x="103" y="218"/>
      <point x="115" y="218" type="curve" smooth="yes"/>
      <point x="127" y="218"/>
      <point x="135" y="226"/>
      <point x="135" y="238" type="curve" smooth="yes"/>
      <point x="135" y="250"/>
      <point x="127" y="258"/>
    </contour>
  </outline>
</glyph>
<glyph name="infinity" format="1">
  <advance width="480"/>
  <unicode hex="221E"/>
  <outline>
    <contour>
      <point x="367" y="392" type="curve" smooth="yes"/>
      <point x="295" y="392"/>
      <point x="259" y="337"/>
      <point x="241" y="295" type="curve"/>
      <point x="218" y="344"/>
      <point x="183" y="392"/>
      <point x="113" y="392" type="curve" smooth="yes"/>
      <point x="42" y="392"/>
      <point x="-1" y="344"/>
      <point x="-1" y="269" type="curve" smooth="yes"/>
      <point x="-1" y="194"/>
      <point x="43" y="143"/>
      <point x="113" y="143" type="curve" smooth="yes"/>
      <point x="179" y="143"/>
      <point x="213" y="189"/>
      <point x="240" y="249" type="curve"/>
      <point x="267" y="192"/>
      <point x="300" y="143"/>
      <point x="369" y="143" type="curve" smooth="yes"/>
      <point x="436" y="143"/>
      <point x="481" y="189"/>
      <point x="481" y="265" type="curve" smooth="yes"/>
      <point x="481" y="338"/>
      <point x="439" y="392"/>
    </contour>
    <contour>
      <point x="114" y="373" type="curve" smooth="yes"/>
      <point x="180" y="373"/>
      <point x="208" y="324"/>
      <point x="230" y="270" type="curve"/>
      <point x="206" y="216"/>
      <point x="176" y="162"/>
      <point x="112" y="162" type="curve" smooth="yes"/>
      <point x="55" y="162"/>
      <point x="18" y="205"/>
      <point x="18" y="269" type="curve" smooth="yes"/>
      <point x="18" y="333"/>
      <point x="54" y="373"/>
    </contour>
    <contour>
      <point x="366" y="373" type="curve" smooth="yes"/>
      <point x="428" y="373"/>
      <point x="462" y="327"/>
      <point x="462" y="265" type="curve" smooth="yes"/>
      <point x="462" y="199"/>
      <point x="425" y="162"/>
      <point x="370" y="162" type="curve" smooth="yes"/>
      <point x="305" y="162"/>
      <point x="276" y="213"/>
      <point x="250" y="270" type="curve"/>
      <point x="271" y="319"/>
      <point x="299" y="373"/>
    </contour>
  </outline>
</glyph>
<glyph name="uniA78C" format="1">
  <advance width="105"/>
  <unicode hex="A78C"/>
  <outline>
    <contour>
      <point x="67" y="529" type="line"/>
      <point x="64" y="536" type="line"/>
      <point x="47" y="533" type="line"/>
      <point x="35" y="299" type="line"/>
      <point x="38" y="292" type="line"/>
      <point x="55" y="295" type="line"/>
    </contour>
  </outline>
</glyph>
<glyph name="a.3.1" format="1">
  <advance width="494"/>
  <outline>
    <contour>
      <point x="494" y="-41" type="curve" smooth="yes"/>
      <point x="494" y="-41"/>
      <point x="493" y="-42"/>
      <point x="493" y="-42" type="curve" smooth="yes"/>
      <point x="493" y="-43"/>
      <point x="494" y="-43"/>
      <point x="494" y="-43" type="curve" smooth="yes"/>
      <point x="495" y="-43"/>
      <point x="496" y="-43"/>
      <point x="496" y="-42" type="curve" smooth="yes"/>
      <point x="496" y="-42"/>
      <point x="495" y="-41"/>
    </contour>
    <contour>
      <point x="494" y="9" type="curve" smooth="yes"/>
      <point x="493" y="9"/>
      <point x="493" y="8"/>
      <point x="493" y="7" type="curve" smooth="yes"/>
      <point x="493" y="6"/>
      <point x="493" y="5"/>
      <point x="494" y="5" type="curve" smooth="yes"/>
      <point x="495" y="5"/>
      <point x="496" y="6"/>
      <point x="496" y="7" type="curve" smooth="yes"/>
      <point x="496" y="8"/>
      <point x="495" y="9"/>
    </contour>
    <contour>
      <point x="494" y="59" type="curve" smooth="yes"/>
      <point x="493" y="59"/>
      <point x="492" y="57"/>
      <point x="492" y="56" type="curve" smooth="yes"/>
      <point x="492" y="55"/>
      <point x="493" y="53"/>
      <point x="494" y="53" type="curve" smooth="yes"/>
      <point x="496" y="53"/>
      <point x="497" y="55"/>
      <point x="497" y="56" type="curve" smooth="yes"/>
      <point x="497" y="57"/>
      <point x="496" y="59"/>
    </contour>
    <contour>
      <point x="494" y="108" type="curve" smooth="yes"/>
      <point x="493" y="108"/>
      <point x="491" y="107"/>
      <point x="491" y="105" type="curve" smooth="yes"/>
      <point x="491" y="103"/>
      <point x="493" y="102"/>
      <point x="494" y="102" type="curve" smooth="yes"/>
      <point x="496" y="102"/>
      <point x="498" y="103"/>
      <point x="498" y="105" type="curve" smooth="yes"/>
      <point x="498" y="107"/>
      <point x="496" y="108"/>
    </contour>
    <contour>
      <point x="445" y="-41" type="curve" smooth="yes"/>
      <point x="444" y="-41"/>
      <point x="444" y="-42"/>
      <point x="444" y="-42" type="curve" smooth="yes"/>
      <point x="444" y="-43"/>
      <point x="444" y="-43"/>
      <point x="445" y="-43" type="curve" smooth="yes"/>
      <point x="446" y="-43"/>
      <point x="446" y="-43"/>
      <point x="446" y="-42" type="curve" smooth="yes"/>
      <point x="446" y="-42"/>
      <point x="446" y="-41"/>
    </contour>
    <contour>
      <point x="445" y="158" type="curve" smooth="yes"/>
      <point x="443" y="158"/>
      <point x="441" y="156"/>
      <point x="441" y="154" type="curve" smooth="yes"/>
      <point x="441" y="152"/>
      <point x="443" y="150"/>
      <point x="445" y="150" type="curve" smooth="yes"/>
      <point x="447" y="150"/>
      <point x="449" y="152"/>
      <point x="449" y="154" type="curve" smooth="yes"/>
      <point x="449" y="156"/>
      <point x="447" y="158"/>
    </contour>
    <contour>
      <point x="396" y="-41" type="curve" smooth="yes"/>
      <point x="395" y="-41"/>
      <point x="395" y="-42"/>
      <point x="395" y="-42" type="curve" smooth="yes"/>
      <point x="395" y="-43"/>
      <point x="395" y="-43"/>
      <point x="396" y="-43" type="curve" smooth="yes"/>
      <point x="396" y="-43"/>
      <point x="397" y="-43"/>
      <point x="397" y="-42" type="curve" smooth="yes"/>
      <point x="397" y="-42"/>
      <point x="396" y="-41"/>
    </contour>
    <contour>
      <point x="346" y="-41" type="curve" smooth="yes"/>
      <point x="346" y="-41"/>
      <point x="345" y="-42"/>
      <point x="345" y="-42" type="curve" smooth="yes"/>
      <point x="345" y="-43"/>
      <point x="346" y="-43"/>
      <point x="346" y="-43" type="curve" smooth="yes"/>
      <point x="347" y="-43"/>
      <point x="347" y="-43"/>
      <point x="347" y="-42" type="curve" smooth="yes"/>
      <point x="347" y="-42"/>
      <point x="347" y="-41"/>
    </contour>
    <contour>
      <point x="346" y="9" type="curve" smooth="yes"/>
      <point x="345" y="9"/>
      <point x="344" y="8"/>
      <point x="344" y="7" type="curve" smooth="yes"/>
      <point x="344" y="6"/>
      <point x="345" y="5"/>
      <point x="346" y="5" type="curve" smooth="yes"/>
      <point x="347" y="5"/>
      <point x="348" y="6"/>
      <point x="348" y="7" type="curve" smooth="yes"/>
      <point x="348" y="8"/>
      <point x="347" y="9"/>
    </contour>
    <contour>
      <point x="396" y="9" type="curve" smooth="yes"/>
      <point x="395" y="9"/>
      <point x="394" y="8"/>
      <point x="394" y="7" type="curve" smooth="yes"/>
      <point x="394" y="6"/>
      <point x="395" y="5"/>
      <point x="396" y="5" type="curve" smooth="yes"/>
      <point x="397" y="5"/>
      <point x="397" y="6"/>
      <point x="397" y="7" type="curve" smooth="yes"/>
      <point x="397" y="8"/>
      <point x="397" y="9"/>
    </contour>
    <contour>
      <point x="346" y="59" type="curve" smooth="yes"/>
      <point x="345" y="59"/>
      <point x="344" y="57"/>
      <point x="344" y="56" type="curve" smooth="yes"/>
      <point x="344" y="55"/>
      <point x="345" y="53"/>
      <point x="346" y="53" type="curve" smooth="yes"/>
      <point x="348" y="53"/>
      <point x="349" y="55"/>
      <point x="349" y="56" type="curve" smooth="yes"/>
      <point x="349" y="57"/>
      <point x="348" y="59"/>
    </contour>
    <contour>
      <point x="346" y="108" type="curve" smooth="yes"/>
      <point x="344" y="108"/>
      <point x="343" y="107"/>
      <point x="343" y="105" type="curve" smooth="yes"/>
      <point x="343" y="103"/>
      <point x="344" y="102"/>
      <point x="346" y="102" type="curve" smooth="yes"/>
      <point x="348" y="102"/>
      <point x="349" y="103"/>
      <point x="349" y="105" type="curve" smooth="yes"/>
      <point x="349" y="107"/>
      <point x="348" y="108"/>
    </contour>
    <contour>
      <point x="297" y="-41" type="curve" smooth="yes"/>
      <point x="296" y="-41"/>
      <point x="296" y="-42"/>
      <point x="296" y="-42" type="curve" smooth="yes"/>
      <point x="296" y="-43"/>
      <point x="296" y="-43"/>
      <point x="297" y="-43" type="curve" smooth="yes"/>
      <point x="297" y="-43"/>
      <point x="298" y="-43"/>
      <point x="298" y="-42" type="curve" smooth="yes"/>
      <point x="298" y="-42"/>
      <point x="297" y="-41"/>
    </contour>
    <contour>
      <point x="297" y="9" type="curve" smooth="yes"/>
      <point x="296" y="9"/>
      <point x="295" y="8"/>
      <point x="295" y="7" type="curve" smooth="yes"/>
      <point x="295" y="6"/>
      <point x="296" y="5"/>
      <point x="297" y="5" type="curve" smooth="yes"/>
      <point x="298" y="5"/>
      <point x="299" y="6"/>
      <point x="299" y="7" type="curve" smooth="yes"/>
      <point x="299" y="8"/>
      <point x="298" y="9"/>
    </contour>
    <contour>
      <point x="297" y="59" type="curve" smooth="yes"/>
      <point x="295" y="59"/>
      <point x="294" y="57"/>
      <point x="294" y="56" type="curve" smooth="yes"/>
      <point x="294" y="55"/>
      <point x="295" y="53"/>
      <point x="297" y="53" type="curve" smooth="yes"/>
      <point x="298" y="53"/>
      <point x="299" y="55"/>
      <point x="299" y="56" type="curve" smooth="yes"/>
      <point x="299" y="57"/>
      <point x="298" y="59"/>
    </contour>
    <contour>
      <point x="297" y="108" type="curve" smooth="yes"/>
      <point x="295" y="108"/>
      <point x="294" y="107"/>
      <point x="294" y="105" type="curve" smooth="yes"/>
      <point x="294" y="103"/>
      <point x="295" y="102"/>
      <point x="297" y="102" type="curve" smooth="yes"/>
      <point x="299" y="102"/>
      <point x="300" y="103"/>
      <point x="300" y="105" type="curve" smooth="yes"/>
      <point x="300" y="107"/>
      <point x="299" y="108"/>
    </contour>
    <contour>
      <point x="297" y="208" type="curve" smooth="yes"/>
      <point x="294" y="208"/>
      <point x="292" y="206"/>
      <point x="292" y="203" type="curve" smooth="yes"/>
      <point x="292" y="201"/>
      <point x="294" y="199"/>
      <point x="297" y="199" type="curve" smooth="yes"/>
      <point x="299" y="199"/>
      <point x="302" y="201"/>
      <point x="302" y="203" type="curve" smooth="yes"/>
      <point x="302" y="206"/>
      <point x="299" y="208"/>
    </contour>
    <contour>
      <point x="346" y="208" type="curve" smooth="yes"/>
      <point x="344" y="208"/>
      <point x="341" y="206"/>
      <point x="341" y="203" type="curve" smooth="yes"/>
      <point x="341" y="201"/>
      <point x="344" y="199"/>
      <point x="346" y="199" type="curve" smooth="yes"/>
      <point x="349" y="199"/>
      <point x="351" y="201"/>
      <point x="351" y="203" type="curve" smooth="yes"/>
      <point x="351" y="206"/>
      <point x="349" y="208"/>
    </contour>
    <contour>
      <point x="297" y="258" type="curve" smooth="yes"/>
      <point x="294" y="258"/>
      <point x="291" y="255"/>
      <point x="291" y="252" type="curve" smooth="yes"/>
      <point x="291" y="249"/>
      <point x="294" y="247"/>
      <point x="297" y="247" type="curve" smooth="yes"/>
      <point x="300" y="247"/>
      <point x="302" y="249"/>
      <point x="302" y="252" type="curve" smooth="yes"/>
      <point x="302" y="255"/>
      <point x="300" y="258"/>
    </contour>
    <contour>
      <point x="247" y="-41" type="curve" smooth="yes"/>
      <point x="247" y="-41"/>
      <point x="246" y="-42"/>
      <point x="246" y="-42" type="curve" smooth="yes"/>
      <point x="246" y="-43"/>
      <point x="247" y="-43"/>
      <point x="247" y="-43" type="curve" smooth="yes"/>
      <point x="248" y="-43"/>
      <point x="249" y="-43"/>
      <point x="249" y="-42" type="curve" smooth="yes"/>
      <point x="249" y="-42"/>
      <point x="248" y="-41"/>
    </contour>
    <contour>
      <point x="247" y="9" type="curve" smooth="yes"/>
      <point x="246" y="9"/>
      <point x="246" y="8"/>
      <point x="246" y="7" type="curve" smooth="yes"/>
      <point x="246" y="6"/>
      <point x="246" y="5"/>
      <point x="247" y="5" type="curve" smooth="yes"/>
      <point x="248" y="5"/>
      <point x="249" y="6"/>
      <point x="249" y="7" type="curve" smooth="yes"/>
      <point x="249" y="8"/>
      <point x="248" y="9"/>
    </contour>
    <contour>
      <point x="247" y="59" type="curve" smooth="yes"/>
      <point x="246" y="59"/>
      <point x="245" y="57"/>
      <point x="245" y="56" type="curve" smooth="yes"/>
      <point x="245" y="55"/>
      <point x="246" y="53"/>
      <point x="247" y="53" type="curve" smooth="yes"/>
      <point x="249" y="53"/>
      <point x="250" y="55"/>
      <point x="250" y="56" type="curve" smooth="yes"/>
      <point x="250" y="57"/>
      <point x="249" y="59"/>
    </contour>
    <contour>
      <point x="247" y="108" type="curve" smooth="yes"/>
      <point x="246" y="108"/>
      <point x="244" y="107"/>
      <point x="244" y="105" type="curve" smooth="yes"/>
      <point x="244" y="103"/>
      <point x="246" y="102"/>
      <point x="247" y="102" type="curve" smooth="yes"/>
      <point x="249" y="102"/>
      <point x="251" y="103"/>
      <point x="251" y="105" type="curve" smooth="yes"/>
      <point x="251" y="107"/>
      <point x="249" y="108"/>
    </contour>
    <contour>
      <point x="247" y="208" type="curve" smooth="yes"/>
      <point x="245" y="208"/>
      <point x="243" y="206"/>
      <point x="243" y="203" type="curve" smooth="yes"/>
      <point x="243" y="201"/>
      <point x="245" y="199"/>
      <point x="247" y="199" type="curve" smooth="yes"/>
      <point x="250" y="199"/>
      <point x="252" y="201"/>
      <point x="252" y="203" type="curve" smooth="yes"/>
      <point x="252" y="206"/>
      <point x="250" y="208"/>
    </contour>
    <contour>
      <point x="247" y="258" type="curve" smooth="yes"/>
      <point x="244" y="258"/>
      <point x="242" y="255"/>
      <point x="242" y="252" type="curve" smooth="yes"/>
      <point x="242" y="249"/>
      <point x="244" y="247"/>
      <point x="247" y="247" type="curve" smooth="yes"/>
      <point x="250" y="247"/>
      <point x="253" y="249"/>
      <point x="253" y="252" type="curve" smooth="yes"/>
      <point x="253" y="255"/>
      <point x="250" y="258"/>
    </contour>
    <contour>
      <point x="247" y="308" type="curve" smooth="yes"/>
      <point x="244" y="308"/>
      <point x="241" y="305"/>
      <point x="241" y="301" type="curve" smooth="yes"/>
      <point x="241" y="298"/>
      <point x="244" y="295"/>
      <point x="247" y="295" type="curve" smooth="yes"/>
      <point x="251" y="295"/>
      <point x="254" y="298"/>
      <point x="254" y="301" type="curve" smooth="yes"/>
      <point x="254" y="305"/>
      <point x="251" y="308"/>
    </contour>
    <contour>
      <point x="198" y="-41" type="curve" smooth="yes"/>
      <point x="197" y="-41"/>
      <point x="197" y="-42"/>
      <point x="197" y="-42" type="curve" smooth="yes"/>
      <point x="197" y="-43"/>
      <point x="197" y="-43"/>
      <point x="198" y="-43" type="curve" smooth="yes"/>
      <point x="199" y="-43"/>
      <point x="199" y="-43"/>
      <point x="199" y="-42" type="curve" smooth="yes"/>
      <point x="199" y="-42"/>
      <point x="199" y="-41"/>
    </contour>
    <contour>
      <point x="198" y="9" type="curve" smooth="yes"/>
      <point x="197" y="9"/>
      <point x="196" y="8"/>
      <point x="196" y="7" type="curve" smooth="yes"/>
      <point x="196" y="6"/>
      <point x="197" y="5"/>
      <point x="198" y="5" type="curve" smooth="yes"/>
      <point x="199" y="5"/>
      <point x="200" y="6"/>
      <point x="200" y="7" type="curve" smooth="yes"/>
      <point x="200" y="8"/>
      <point x="199" y="9"/>
    </contour>
    <contour>
      <point x="198" y="59" type="curve" smooth="yes"/>
      <point x="197" y="59"/>
      <point x="195" y="57"/>
      <point x="195" y="56" type="curve" smooth="yes"/>
      <point x="195" y="55"/>
      <point x="197" y="53"/>
      <point x="198" y="53" type="curve" smooth="yes"/>
      <point x="199" y="53"/>
      <point x="201" y="55"/>
      <point x="201" y="56" type="curve" smooth="yes"/>
      <point x="201" y="57"/>
      <point x="199" y="59"/>
    </contour>
    <contour>
      <point x="198" y="108" type="curve" smooth="yes"/>
      <point x="196" y="108"/>
      <point x="195" y="107"/>
      <point x="195" y="105" type="curve" smooth="yes"/>
      <point x="195" y="103"/>
      <point x="196" y="102"/>
      <point x="198" y="102" type="curve" smooth="yes"/>
      <point x="200" y="102"/>
      <point x="201" y="103"/>
      <point x="201" y="105" type="curve" smooth="yes"/>
      <point x="201" y="107"/>
      <point x="200" y="108"/>
    </contour>
    <contour>
      <point x="198" y="208" type="curve" smooth="yes"/>
      <point x="195" y="208"/>
      <point x="193" y="206"/>
      <point x="193" y="203" type="curve" smooth="yes"/>
      <point x="193" y="201"/>
      <point x="195" y="199"/>
      <point x="198" y="199" type="curve" smooth="yes"/>
      <point x="201" y="199"/>
      <point x="203" y="201"/>
      <point x="203" y="203" type="curve" smooth="yes"/>
      <point x="203" y="206"/>
      <point x="201" y="208"/>
    </contour>
    <contour>
      <point x="198" y="258" type="curve" smooth="yes"/>
      <point x="195" y="258"/>
      <point x="193" y="255"/>
      <point x="193" y="252" type="curve" smooth="yes"/>
      <point x="193" y="249"/>
      <point x="195" y="247"/>
      <point x="198" y="247" type="curve" smooth="yes"/>
      <point x="201" y="247"/>
      <point x="203" y="249"/>
      <point x="203" y="252" type="curve" smooth="yes"/>
      <point x="203" y="255"/>
      <point x="201" y="258"/>
    </contour>
    <contour>
      <point x="149" y="-41" type="curve" smooth="yes"/>
      <point x="148" y="-41"/>
      <point x="147" y="-42"/>
      <point x="147" y="-42" type="curve" smooth="yes"/>
      <point x="147" y="-43"/>
      <point x="148" y="-43"/>
      <point x="149" y="-43" type="curve" smooth="yes"/>
      <point x="149" y="-43"/>
      <point x="150" y="-43"/>
      <point x="150" y="-42" type="curve" smooth="yes"/>
      <point x="150" y="-42"/>
      <point x="149" y="-41"/>
    </contour>
    <contour>
      <point x="149" y="9" type="curve" smooth="yes"/>
      <point x="148" y="9"/>
      <point x="147" y="8"/>
      <point x="147" y="7" type="curve" smooth="yes"/>
      <point x="147" y="6"/>
      <point x="148" y="5"/>
      <point x="149" y="5" type="curve" smooth="yes"/>
      <point x="150" y="5"/>
      <point x="150" y="6"/>
      <point x="150" y="7" type="curve" smooth="yes"/>
      <point x="150" y="8"/>
      <point x="150" y="9"/>
    </contour>
    <contour>
      <point x="149" y="59" type="curve" smooth="yes"/>
      <point x="147" y="59"/>
      <point x="146" y="57"/>
      <point x="146" y="56" type="curve" smooth="yes"/>
      <point x="146" y="55"/>
      <point x="147" y="53"/>
      <point x="149" y="53" type="curve" smooth="yes"/>
      <point x="150" y="53"/>
      <point x="151" y="55"/>
      <point x="151" y="56" type="curve" smooth="yes"/>
      <point x="151" y="57"/>
      <point x="150" y="59"/>
    </contour>
    <contour>
      <point x="149" y="108" type="curve" smooth="yes"/>
      <point x="147" y="108"/>
      <point x="145" y="107"/>
      <point x="145" y="105" type="curve" smooth="yes"/>
      <point x="145" y="103"/>
      <point x="147" y="102"/>
      <point x="149" y="102" type="curve" smooth="yes"/>
      <point x="150" y="102"/>
      <point x="152" y="103"/>
      <point x="152" y="105" type="curve" smooth="yes"/>
      <point x="152" y="107"/>
      <point x="150" y="108"/>
    </contour>
    <contour>
      <point x="99" y="-41" type="curve" smooth="yes"/>
      <point x="99" y="-41"/>
      <point x="98" y="-42"/>
      <point x="98" y="-42" type="curve" smooth="yes"/>
      <point x="98" y="-43"/>
      <point x="99" y="-43"/>
      <point x="99" y="-43" type="curve" smooth="yes"/>
      <point x="100" y="-43"/>
      <point x="100" y="-43"/>
      <point x="100" y="-42" type="curve" smooth="yes"/>
      <point x="100" y="-42"/>
      <point x="100" y="-41"/>
    </contour>
    <contour>
      <point x="99" y="9" type="curve" smooth="yes"/>
      <point x="98" y="9"/>
      <point x="97" y="8"/>
      <point x="97" y="7" type="curve" smooth="yes"/>
      <point x="97" y="6"/>
      <point x="98" y="5"/>
      <point x="99" y="5" type="curve" smooth="yes"/>
      <point x="100" y="5"/>
      <point x="101" y="6"/>
      <point x="101" y="7" type="curve" smooth="yes"/>
      <point x="101" y="8"/>
      <point x="100" y="9"/>
    </contour>
    <contour>
      <point x="99" y="258" type="curve" smooth="yes"/>
      <point x="96" y="258"/>
      <point x="94" y="255"/>
      <point x="94" y="252" type="curve" smooth="yes"/>
      <point x="94" y="249"/>
      <point x="96" y="247"/>
      <point x="99" y="247" type="curve" smooth="yes"/>
      <point x="102" y="247"/>
      <point x="105" y="249"/>
      <point x="105" y="252" type="curve" smooth="yes"/>
      <point x="105" y="255"/>
      <point x="102" y="258"/>
    </contour>
    <contour>
      <point x="99" y="308" type="curve" smooth="yes"/>
      <point x="96" y="308"/>
      <point x="93" y="305"/>
      <point x="93" y="301" type="curve" smooth="yes"/>
      <point x="93" y="298"/>
      <point x="96" y="295"/>
      <point x="99" y="295" type="curve" smooth="yes"/>
      <point x="103" y="295"/>
      <point x="105" y="298"/>
      <point x="105" y="301" type="curve" smooth="yes"/>
      <point x="105" y="305"/>
      <point x="103" y="308"/>
    </contour>
    <contour>
      <point x="99" y="357" type="curve" smooth="yes"/>
      <point x="95" y="357"/>
      <point x="92" y="354"/>
      <point x="92" y="351" type="curve" smooth="yes"/>
      <point x="92" y="347"/>
      <point x="95" y="344"/>
      <point x="99" y="344" type="curve" smooth="yes"/>
      <point x="103" y="344"/>
      <point x="106" y="347"/>
      <point x="106" y="351" type="curve" smooth="yes"/>
      <point x="106" y="354"/>
      <point x="103" y="357"/>
    </contour>
    <contour>
      <point x="99" y="407" type="curve" smooth="yes"/>
      <point x="95" y="407"/>
      <point x="92" y="404"/>
      <point x="92" y="400" type="curve" smooth="yes"/>
      <point x="92" y="395"/>
      <point x="95" y="392"/>
      <point x="99" y="392" type="curve" smooth="yes"/>
      <point x="103" y="392"/>
      <point x="107" y="395"/>
      <point x="107" y="400" type="curve" smooth="yes"/>
      <point x="107" y="404"/>
      <point x="103" y="407"/>
    </contour>
    <contour>
      <point x="50" y="-41" type="curve" smooth="yes"/>
      <point x="49" y="-41"/>
      <point x="49" y="-42"/>
      <point x="49" y="-42" type="curve" smooth="yes"/>
      <point x="49" y="-43"/>
      <point x="49" y="-43"/>
      <point x="50" y="-43" type="curve" smooth="yes"/>
      <point x="50" y="-43"/>
      <point x="51" y="-43"/>
      <point x="51" y="-42" type="curve" smooth="yes"/>
      <point x="51" y="-42"/>
      <point x="50" y="-41"/>
    </contour>
    <contour>
      <point x="50" y="158" type="curve" smooth="yes"/>
      <point x="48" y="158"/>
      <point x="46" y="156"/>
      <point x="46" y="154" type="curve" smooth="yes"/>
      <point x="46" y="152"/>
      <point x="48" y="150"/>
      <point x="50" y="150" type="curve" smooth="yes"/>
      <point x="52" y="150"/>
      <point x="54" y="152"/>
      <point x="54" y="154" type="curve" smooth="yes"/>
      <point x="54" y="156"/>
      <point x="52" y="158"/>
    </contour>
    <contour>
      <point x="50" y="208" type="curve" smooth="yes"/>
      <point x="47" y="208"/>
      <point x="45" y="206"/>
      <point x="45" y="203" type="curve" smooth="yes"/>
      <point x="45" y="201"/>
      <point x="47" y="199"/>
      <point x="50" y="199" type="curve" smooth="yes"/>
      <point x="52" y="199"/>
      <point x="55" y="201"/>
      <point x="55" y="203" type="curve" smooth="yes"/>
      <point x="55" y="206"/>
      <point x="52" y="208"/>
    </contour>
    <contour>
      <point x="50" y="258" type="curve" smooth="yes"/>
      <point x="47" y="258"/>
      <point x="44" y="255"/>
      <point x="44" y="252" type="curve" smooth="yes"/>
      <point x="44" y="249"/>
      <point x="47" y="247"/>
      <point x="50" y="247" type="curve" smooth="yes"/>
      <point x="53" y="247"/>
      <point x="55" y="249"/>
      <point x="55" y="252" type="curve" smooth="yes"/>
      <point x="55" y="255"/>
      <point x="53" y="258"/>
    </contour>
    <contour>
      <point x="50" y="308" type="curve" smooth="yes"/>
      <point x="46" y="308"/>
      <point x="44" y="305"/>
      <point x="44" y="301" type="curve" smooth="yes"/>
      <point x="44" y="298"/>
      <point x="46" y="295"/>
      <point x="50" y="295" type="curve" smooth="yes"/>
      <point x="53" y="295"/>
      <point x="56" y="298"/>
      <point x="56" y="301" type="curve" smooth="yes"/>
      <point x="56" y="305"/>
      <point x="53" y="308"/>
    </contour>
    <contour>
      <point x="50" y="357" type="curve" smooth="yes"/>
      <point x="46" y="357"/>
      <point x="43" y="354"/>
      <point x="43" y="351" type="curve" smooth="yes"/>
      <point x="43" y="347"/>
      <point x="46" y="344"/>
      <point x="50" y="344" type="curve" smooth="yes"/>
      <point x="54" y="344"/>
      <point x="57" y="347"/>
      <point x="57" y="351" type="curve" smooth="yes"/>
      <point x="57" y="354"/>
      <point x="54" y="357"/>
    </contour>
    <contour>
      <point x="50" y="407" type="curve" smooth="yes"/>
      <point x="46" y="407"/>
      <point x="42" y="404"/>
      <point x="42" y="400" type="curve" smooth="yes"/>
      <point x="42" y="395"/>
      <point x="46" y="392"/>
      <point x="50" y="392" type="curve" smooth="yes"/>
      <point x="54" y="392"/>
      <point x="57" y="395"/>
      <point x="57" y="400" type="curve" smooth="yes"/>
      <point x="57" y="404"/>
      <point x="54" y="407"/>
    </contour>
    <contour>
      <point x="50" y="457" type="curve" smooth="yes"/>
      <point x="45" y="457"/>
      <point x="42" y="453"/>
      <point x="42" y="449" type="curve" smooth="yes"/>
      <point x="42" y="444"/>
      <point x="45" y="440"/>
      <point x="50" y="440" type="curve" smooth="yes"/>
      <point x="54" y="440"/>
      <point x="58" y="444"/>
      <point x="58" y="449" type="curve" smooth="yes"/>
      <point x="58" y="453"/>
      <point x="54" y="457"/>
    </contour>
    <contour>
      <point x="498" y="157" type="curve" smooth="yes"/>
      <point x="498" y="157"/>
      <point x="497" y="157"/>
      <point x="497" y="158" type="curve"/>
      <point x="349" y="275" type="line"/>
      <point x="262" y="506" type="line"/>
      <point x="241" y="506" type="line"/>
      <point x="34" y="0" type="line"/>
      <point x="57" y="0" type="line"/>
      <point x="69" y="36" type="line"/>
      <point x="113" y="141" type="line"/>
      <point x="379" y="141" type="line"/>
      <point x="419" y="36" type="line"/>
      <point x="429" y="0" type="line"/>
      <point x="452" y="0" type="line"/>
      <point x="376" y="204" type="line"/>
      <point x="347" y="227" type="line"/>
      <point x="372" y="161" type="line"/>
      <point x="121" y="161" type="line"/>
      <point x="249" y="475" type="line"/>
      <point x="252" y="475" type="line"/>
      <point x="319" y="299" type="line"/>
      <point x="233" y="368" type="line"/>
      <point x="229" y="360" type="line"/>
      <point x="492" y="151" type="line"/>
      <point x="493" y="150"/>
      <point x="493" y="150"/>
      <point x="494" y="150" type="curve" smooth="yes"/>
      <point x="496" y="150"/>
      <point x="497" y="150"/>
      <point x="498" y="151" type="curve" smooth="yes"/>
      <point x="499" y="153"/>
      <point x="499" y="155"/>
    </contour>
    <contour>
      <point x="176" y="413" type="line"/>
      <point x="3" y="550" type="line"/>
      <point x="1" y="552"/>
      <point x="-1" y="552"/>
      <point x="-3" y="550" type="curve" smooth="yes"/>
      <point x="-4" y="548"/>
      <point x="-4" y="545"/>
      <point x="-2" y="544" type="curve"/>
      <point x="173" y="404" type="line"/>
    </contour>
  </outline>
</glyph>
<glyph name="b.1.2" format="1">
  <advance width="444"/>
  <outline>
    <contour>
      <point x="444" y="-41" type="curve" smooth="yes"/>
      <point x="444" y="-41"/>
      <point x="443" y="-42"/>
      <point x="443" y="-42" type="curve" smooth="yes"/>
      <point x="443" y="-43"/>
      <point x="444" y="-43"/>
      <point x="444" y="-43" type="curve" smooth="yes"/>
      <point x="445" y="-43"/>
      <point x="446" y="-43"/>
      <point x="446" y="-42" type="curve" smooth="yes"/>
      <point x="446" y="-42"/>
      <point x="445" y="-41"/>
    </contour>
    <contour>
      <point x="444" y="9" type="curve" smooth="yes"/>
      <point x="443" y="9"/>
      <point x="443" y="8"/>
      <point x="443" y="7" type="curve" smooth="yes"/>
      <point x="443" y="6"/>
      <point x="443" y="5"/>
      <point x="444" y="5" type="curve" smooth="yes"/>
      <point x="445" y="5"/>
      <point x="446" y="6"/>
      <point x="446" y="7" type="curve" smooth="yes"/>
      <point x="446" y="8"/>
      <point x="445" y="9"/>
    </contour>
    <contour>
      <point x="444" y="59" type="curve" smooth="yes"/>
      <point x="443" y="59"/>
      <point x="442" y="57"/>
      <point x="442" y="56" type="curve" smooth="yes"/>
      <point x="442" y="55"/>
      <point x="443" y="53"/>
      <point x="444" y="53" type="curve" smooth="yes"/>
      <point x="446" y="53"/>
      <point x="447" y="55"/>
      <point x="447" y="56" type="curve" smooth="yes"/>
      <point x="447" y="57"/>
      <point x="446" y="59"/>
    </contour>
    <contour>
      <point x="444" y="108" type="curve" smooth="yes"/>
      <point x="443" y="108"/>
      <point x="441" y="107"/>
      <point x="441" y="105" type="curve" smooth="yes"/>
      <point x="441" y="103"/>
      <point x="443" y="102"/>
      <point x="444" y="102" type="curve" smooth="yes"/>
      <point x="446" y="102"/>
      <point x="448" y="103"/>
      <point x="448" y="105" type="curve" smooth="yes"/>
      <point x="448" y="107"/>
      <point x="446" y="108"/>
    </contour>
    <contour>
      <point x="444" y="158" type="curve" smooth="yes"/>
      <point x="442" y="158"/>
      <point x="440" y="156"/>
      <point x="440" y="154" type="curve" smooth="yes"/>
      <point x="440" y="152"/>
      <point x="442" y="150"/>
      <point x="444" y="150" type="curve" smooth="yes"/>
      <point x="447" y="150"/>
      <point x="448" y="152"/>
      <point x="448" y="154" type="curve" smooth="yes"/>
      <point x="448" y="156"/>
      <point x="447" y="158"/>
    </contour>
    <contour>
      <point x="444" y="208" type="curve" smooth="yes"/>
      <point x="442" y="208"/>
      <point x="440" y="206"/>
      <point x="440" y="203" type="curve" smooth="yes"/>
      <point x="440" y="201"/>
      <point x="442" y="199"/>
      <point x="444" y="199" type="curve" smooth="yes"/>
      <point x="447" y="199"/>
      <point x="449" y="201"/>
      <point x="449" y="203" type="curve" smooth="yes"/>
      <point x="449" y="206"/>
      <point x="447" y="208"/>
    </contour>
    <contour>
      <point x="444" y="258" type="curve" smooth="yes"/>
      <point x="442" y="258"/>
      <point x="439" y="255"/>
      <point x="439" y="252" type="curve" smooth="yes"/>
      <point x="439" y="249"/>
      <point x="442" y="247"/>
      <point x="444" y="247" type="curve" smooth="yes"/>
      <point x="447" y="247"/>
      <point x="450" y="249"/>
      <point x="450" y="252" type="curve" smooth="yes"/>
      <point x="450" y="255"/>
      <point x="447" y="258"/>
    </contour>
    <contour>
      <point x="444" y="308" type="curve" smooth="yes"/>
      <point x="441" y="308"/>
      <point x="438" y="305"/>
      <point x="438" y="301" type="curve" smooth="yes"/>
      <point x="438" y="298"/>
      <point x="441" y="295"/>
      <point x="444" y="295" type="curve" smooth="yes"/>
      <point x="448" y="295"/>
      <point x="451" y="298"/>
      <point x="451" y="301" type="curve" smooth="yes"/>
      <point x="451" y="305"/>
      <point x="448" y="308"/>
    </contour>
    <contour>
      <point x="395" y="-41" type="curve" smooth="yes"/>
      <point x="395" y="-41"/>
      <point x="394" y="-42"/>
      <point x="394" y="-42" type="curve" smooth="yes"/>
      <point x="394" y="-43"/>
      <point x="395" y="-43"/>
      <point x="395" y="-43" type="curve" smooth="yes"/>
      <point x="396" y="-43"/>
      <point x="396" y="-43"/>
      <point x="396" y="-42" type="curve" smooth="yes"/>
      <point x="396" y="-42"/>
      <point x="396" y="-41"/>
    </contour>
    <contour>
      <point x="395" y="9" type="curve" smooth="yes"/>
      <point x="394" y="9"/>
      <point x="393" y="8"/>
      <point x="393" y="7" type="curve" smooth="yes"/>
      <point x="393" y="6"/>
      <point x="394" y="5"/>
      <point x="395" y="5" type="curve" smooth="yes"/>
      <point x="396" y="5"/>
      <point x="397" y="6"/>
      <point x="397" y="7" type="curve" smooth="yes"/>
      <point x="397" y="8"/>
      <point x="396" y="9"/>
    </contour>
    <contour>
      <point x="395" y="258" type="curve" smooth="yes"/>
      <point x="392" y="258"/>
      <point x="390" y="255"/>
      <point x="390" y="252" type="curve" smooth="yes"/>
      <point x="390" y="249"/>
      <point x="392" y="247"/>
      <point x="395" y="247" type="curve" smooth="yes"/>
      <point x="398" y="247"/>
      <point x="400" y="249"/>
      <point x="400" y="252" type="curve" smooth="yes"/>
      <point x="400" y="255"/>
      <point x="398" y="258"/>
    </contour>
    <contour>
      <point x="346" y="-41" type="curve" smooth="yes"/>
      <point x="345" y="-41"/>
      <point x="345" y="-42"/>
      <point x="345" y="-42" type="curve" smooth="yes"/>
      <point x="345" y="-43"/>
      <point x="345" y="-43"/>
      <point x="346" y="-43" type="curve" smooth="yes"/>
      <point x="346" y="-43"/>
      <point x="347" y="-43"/>
      <point x="347" y="-42" type="curve" smooth="yes"/>
      <point x="347" y="-42"/>
      <point x="346" y="-41"/>
    </contour>
    <contour>
      <point x="296" y="-41" type="curve" smooth="yes"/>
      <point x="296" y="-41"/>
      <point x="295" y="-42"/>
      <point x="295" y="-42" type="curve" smooth="yes"/>
      <point x="295" y="-43"/>
      <point x="296" y="-43"/>
      <point x="296" y="-43" type="curve" smooth="yes"/>
      <point x="297" y="-43"/>
      <point x="298" y="-43"/>
      <point x="298" y="-42" type="curve" smooth="yes"/>
      <point x="298" y="-42"/>
      <point x="297" y="-41"/>
    </contour>
    <contour>
      <point x="296" y="108" type="curve" smooth="yes"/>
      <point x="295" y="108"/>
      <point x="293" y="107"/>
      <point x="293" y="105" type="curve" smooth="yes"/>
      <point x="293" y="103"/>
      <point x="295" y="102"/>
      <point x="296" y="102" type="curve" smooth="yes"/>
      <point x="298" y="102"/>
      <point x="300" y="103"/>
      <point x="300" y="105" type="curve" smooth="yes"/>
      <point x="300" y="107"/>
      <point x="298" y="108"/>
    </contour>
    <contour>
      <point x="296" y="158" type="curve" smooth="yes"/>
      <point x="294" y="158"/>
      <point x="292" y="156"/>
      <point x="292" y="154" type="curve" smooth="yes"/>
      <point x="292" y="152"/>
      <point x="294" y="150"/>
      <point x="296" y="150" type="curve" smooth="yes"/>
      <point x="299" y="150"/>
      <point x="300" y="152"/>
      <point x="300" y="154" type="curve" smooth="yes"/>
      <point x="300" y="156"/>
      <point x="299" y="158"/>
    </contour>
    <contour>
      <point x="247" y="-41" type="curve" smooth="yes"/>
      <point x="247" y="-41"/>
      <point x="246" y="-42"/>
      <point x="246" y="-42" type="curve" smooth="yes"/>
      <point x="246" y="-43"/>
      <point x="247" y="-43"/>
      <point x="247" y="-43" type="curve" smooth="yes"/>
      <point x="248" y="-43"/>
      <point x="248" y="-43"/>
      <point x="248" y="-42" type="curve" smooth="yes"/>
      <point x="248" y="-42"/>
      <point x="248" y="-41"/>
    </contour>
    <contour>
      <point x="247" y="59" type="curve" smooth="yes"/>
      <point x="246" y="59"/>
      <point x="245" y="57"/>
      <point x="245" y="56" type="curve" smooth="yes"/>
      <point x="245" y="55"/>
      <point x="246" y="53"/>
      <point x="247" y="53" type="curve" smooth="yes"/>
      <point x="249" y="53"/>
      <point x="250" y="55"/>
      <point x="250" y="56" type="curve" smooth="yes"/>
      <point x="250" y="57"/>
      <point x="249" y="59"/>
    </contour>
    <contour>
      <point x="247" y="108" type="curve" smooth="yes"/>
      <point x="245" y="108"/>
      <point x="244" y="107"/>
      <point x="244" y="105" type="curve" smooth="yes"/>
      <point x="244" y="103"/>
      <point x="245" y="102"/>
      <point x="247" y="102" type="curve" smooth="yes"/>
      <point x="249" y="102"/>
      <point x="250" y="103"/>
      <point x="250" y="105" type="curve" smooth="yes"/>
      <point x="250" y="107"/>
      <point x="249" y="108"/>
    </contour>
    <contour>
      <point x="247" y="158" type="curve" smooth="yes"/>
      <point x="245" y="158"/>
      <point x="243" y="156"/>
      <point x="243" y="154" type="curve" smooth="yes"/>
      <point x="243" y="152"/>
      <point x="245" y="150"/>
      <point x="247" y="150" type="curve" smooth="yes"/>
      <point x="249" y="150"/>
      <point x="251" y="152"/>
      <point x="251" y="154" type="curve" smooth="yes"/>
      <point x="251" y="156"/>
      <point x="249" y="158"/>
    </contour>
    <contour>
      <point x="247" y="208" type="curve" smooth="yes"/>
      <point x="245" y="208"/>
      <point x="242" y="206"/>
      <point x="242" y="203" type="curve" smooth="yes"/>
      <point x="242" y="201"/>
      <point x="245" y="199"/>
      <point x="247" y="199" type="curve" smooth="yes"/>
      <point x="250" y="199"/>
      <point x="252" y="201"/>
      <point x="252" y="203" type="curve" smooth="yes"/>
      <point x="252" y="206"/>
      <point x="250" y="208"/>
    </contour>
    <contour>
      <point x="198" y="-41" type="curve" smooth="yes"/>
      <point x="197" y="-41"/>
      <point x="197" y="-42"/>
      <point x="197" y="-42" type="curve" smooth="yes"/>
      <point x="197" y="-43"/>
      <point x="197" y="-43"/>
      <point x="198" y="-43" type="curve" smooth="yes"/>
      <point x="198" y="-43"/>
      <point x="199" y="-43"/>
      <point x="199" y="-42" type="curve" smooth="yes"/>
      <point x="199" y="-42"/>
      <point x="198" y="-41"/>
    </contour>
    <contour>
      <point x="198" y="59" type="curve" smooth="yes"/>
      <point x="196" y="59"/>
      <point x="195" y="57"/>
      <point x="195" y="56" type="curve" smooth="yes"/>
      <point x="195" y="55"/>
      <point x="196" y="53"/>
      <point x="198" y="53" type="curve" smooth="yes"/>
      <point x="199" y="53"/>
      <point x="200" y="55"/>
      <point x="200" y="56" type="curve" smooth="yes"/>
      <point x="200" y="57"/>
      <point x="199" y="59"/>
    </contour>
    <contour>
      <point x="198" y="108" type="curve" smooth="yes"/>
      <point x="196" y="108"/>
      <point x="195" y="107"/>
      <point x="195" y="105" type="curve" smooth="yes"/>
      <point x="195" y="103"/>
      <point x="196" y="102"/>
      <point x="198" y="102" type="curve" smooth="yes"/>
      <point x="200" y="102"/>
      <point x="201" y="103"/>
      <point x="201" y="105" type="curve" smooth="yes"/>
      <point x="201" y="107"/>
      <point x="200" y="108"/>
    </contour>
    <contour>
      <point x="198" y="158" type="curve" smooth="yes"/>
      <point x="196" y="158"/>
      <point x="194" y="156"/>
      <point x="194" y="154" type="curve" smooth="yes"/>
      <point x="194" y="152"/>
      <point x="196" y="150"/>
      <point x="198" y="150" type="curve" smooth="yes"/>
      <point x="200" y="150"/>
      <point x="202" y="152"/>
      <point x="202" y="154" type="curve" smooth="yes"/>
      <point x="202" y="156"/>
      <point x="200" y="158"/>
    </contour>
    <contour>
      <point x="198" y="208" type="curve" smooth="yes"/>
      <point x="195" y="208"/>
      <point x="193" y="206"/>
      <point x="193" y="203" type="curve" smooth="yes"/>
      <point x="193" y="201"/>
      <point x="195" y="199"/>
      <point x="198" y="199" type="curve" smooth="yes"/>
      <point x="200" y="199"/>
      <point x="203" y="201"/>
      <point x="203" y="203" type="curve" smooth="yes"/>
      <point x="203" y="206"/>
      <point x="200" y="208"/>
    </contour>
    <contour>
      <point x="148" y="-41" type="curve" smooth="yes"/>
      <point x="148" y="-41"/>
      <point x="147" y="-42"/>
      <point x="147" y="-42" type="curve" smooth="yes"/>
      <point x="147" y="-43"/>
      <point x="148" y="-43"/>
      <point x="148" y="-43" type="curve" smooth="yes"/>
      <point x="149" y="-43"/>
      <point x="150" y="-43"/>
      <point x="150" y="-42" type="curve" smooth="yes"/>
      <point x="150" y="-42"/>
      <point x="149" y="-41"/>
    </contour>
    <contour>
      <point x="99" y="-41" type="curve" smooth="yes"/>
      <point x="99" y="-41"/>
      <point x="98" y="-42"/>
      <point x="98" y="-42" type="curve" smooth="yes"/>
      <point x="98" y="-43"/>
      <point x="99" y="-43"/>
      <point x="99" y="-43" type="curve" smooth="yes"/>
      <point x="100" y="-43"/>
      <point x="100" y="-43"/>
      <point x="100" y="-42" type="curve" smooth="yes"/>
      <point x="100" y="-42"/>
      <point x="100" y="-41"/>
    </contour>
    <contour>
      <point x="50" y="-41" type="curve" smooth="yes"/>
      <point x="49" y="-41"/>
      <point x="49" y="-42"/>
      <point x="49" y="-42" type="curve" smooth="yes"/>
      <point x="49" y="-43"/>
      <point x="49" y="-43"/>
      <point x="50" y="-43" type="curve" smooth="yes"/>
      <point x="50" y="-43"/>
      <point x="51" y="-43"/>
      <point x="51" y="-42" type="curve" smooth="yes"/>
      <point x="51" y="-42"/>
      <point x="50" y="-41"/>
    </contour>
    <contour>
      <point x="50" y="9" type="curve" smooth="yes"/>
      <point x="49" y="9"/>
      <point x="48" y="8"/>
      <point x="48" y="7" type="curve" smooth="yes"/>
      <point x="48" y="6"/>
      <point x="49" y="5"/>
      <point x="50" y="5" type="curve" smooth="yes"/>
      <point x="51" y="5"/>
      <point x="52" y="6"/>
      <point x="52" y="7" type="curve" smooth="yes"/>
      <point x="52" y="8"/>
      <point x="51" y="9"/>
    </contour>
    <contour>
      <point x="50" y="59" type="curve" smooth="yes"/>
      <point x="48" y="59"/>
      <point x="47" y="57"/>
      <point x="47" y="56" type="curve" smooth="yes"/>
      <point x="47" y="55"/>
      <point x="48" y="53"/>
      <point x="50" y="53" type="curve" smooth="yes"/>
      <point x="51" y="53"/>
      <point x="52" y="55"/>
      <point x="52" y="56" type="curve" smooth="yes"/>
      <point x="52" y="57"/>
      <point x="51" y="59"/>
    </contour>
    <contour>
      <point x="50" y="108" type="curve" smooth="yes"/>
      <point x="48" y="108"/>
      <point x="47" y="107"/>
      <point x="47" y="105" type="curve" smooth="yes"/>
      <point x="47" y="103"/>
      <point x="48" y="102"/>
      <point x="50" y="102" type="curve" smooth="yes"/>
      <point x="52" y="102"/>
      <point x="53" y="103"/>
      <point x="53" y="105" type="curve" smooth="yes"/>
      <point x="53" y="107"/>
      <point x="52" y="108"/>
    </contour>
    <contour>
      <point x="311" y="253" type="curve"/>
      <point x="287" y="243" type="line"/>
      <point x="340" y="225"/>
      <point x="368" y="183"/>
      <point x="368" y="130" type="curve" smooth="yes"/>
      <point x="368" y="54"/>
      <point x="307" y="16"/>
      <point x="197" y="16" type="curve" smooth="yes"/>
      <point x="174" y="16"/>
      <point x="148" y="18"/>
      <point x="126" y="20" type="curve"/>
      <point x="126" y="172" type="line"/>
      <point x="106" y="163" type="line"/>
      <point x="106" y="0" type="line"/>
      <point x="135" y="-2"/>
      <point x="174" y="-2"/>
      <point x="200" y="-2" type="curve" smooth="yes"/>
      <point x="322" y="-2"/>
      <point x="389" y="38"/>
      <point x="389" y="130" type="curve" smooth="yes"/>
      <point x="389" y="193"/>
      <point x="360" y="230"/>
    </contour>
    <contour>
      <point x="448" y="352" type="curve" smooth="yes"/>
      <point x="447" y="354"/>
      <point x="445" y="355"/>
      <point x="443" y="354" type="curve"/>
      <point x="339" y="308" type="line"/>
      <point x="349" y="329"/>
      <point x="354" y="354"/>
      <point x="354" y="383" type="curve" smooth="yes"/>
      <point x="354" y="458"/>
      <point x="299" y="507"/>
      <point x="213" y="507" type="curve"/>
      <point x="106" y="506" type="line"/>
      <point x="106" y="206" type="line"/>
      <point x="-1" y="158" type="line"/>
      <point x="-3" y="157"/>
      <point x="-4" y="155"/>
      <point x="-3" y="153" type="curve" smooth="yes"/>
      <point x="-3" y="151"/>
      <point x="-1" y="150"/>
      <point x="0" y="150" type="curve" smooth="yes"/>
      <point x="1" y="150"/>
      <point x="2" y="150"/>
      <point x="2" y="150" type="curve"/>
      <point x="446" y="347" type="line"/>
      <point x="448" y="348"/>
      <point x="449" y="350"/>
    </contour>
    <contour>
      <point x="126" y="487" type="line"/>
      <point x="216" y="487" type="line"/>
      <point x="284" y="487"/>
      <point x="332" y="443"/>
      <point x="332" y="382" type="curve" smooth="yes"/>
      <point x="332" y="343"/>
      <point x="321" y="312"/>
      <point x="299" y="291" type="curve"/>
      <point x="254" y="271" type="line"/>
      <point x="126" y="271" type="line"/>
    </contour>
    <contour>
      <point x="126" y="252" type="line"/>
      <point x="212" y="252" type="line"/>
      <point x="126" y="214" type="line"/>
    </contour>
  </outline>
</glyph>
<glyph name="b.1.3" format="1">
  <advance width="444"/>
  <outline>
    <contour>
      <point x="444" y="-41" type="curve" smooth="yes"/>
      <point x="444" y="-41"/>
      <point x="443" y="-42"/>
      <point x="443" y="-42" type="curve" smooth="yes"/>
      <point x="443" y="-43"/>
      <point x="444" y="-43"/>
      <point x="444" y="-43" type="curve" smooth="yes"/>
      <point x="445" y="-43"/>
      <point x="446" y="-43"/>
      <point x="446" y="-42" type="curve" smooth="yes"/>
      <point x="446" y="-42"/>
      <point x="445" y="-41"/>
    </contour>
    <contour>
      <point x="444" y="9" type="curve" smooth="yes"/>
      <point x="443" y="9"/>
      <point x="443" y="8"/>
      <point x="443" y="7" type="curve" smooth="yes"/>
      <point x="443" y="6"/>
      <point x="443" y="5"/>
      <point x="444" y="5" type="curve" smooth="yes"/>
      <point x="445" y="5"/>
      <point x="446" y="6"/>
      <point x="446" y="7" type="curve" smooth="yes"/>
      <point x="446" y="8"/>
      <point x="445" y="9"/>
    </contour>
    <contour>
      <point x="444" y="59" type="curve" smooth="yes"/>
      <point x="443" y="59"/>
      <point x="442" y="57"/>
      <point x="442" y="56" type="curve" smooth="yes"/>
      <point x="442" y="55"/>
      <point x="443" y="53"/>
      <point x="444" y="53" type="curve" smooth="yes"/>
      <point x="446" y="53"/>
      <point x="447" y="55"/>
      <point x="447" y="56" type="curve" smooth="yes"/>
      <point x="447" y="57"/>
      <point x="446" y="59"/>
    </contour>
    <contour>
      <point x="444" y="108" type="curve" smooth="yes"/>
      <point x="443" y="108"/>
      <point x="441" y="107"/>
      <point x="441" y="105" type="curve" smooth="yes"/>
      <point x="441" y="103"/>
      <point x="443" y="102"/>
      <point x="444" y="102" type="curve" smooth="yes"/>
      <point x="446" y="102"/>
      <point x="448" y="103"/>
      <point x="448" y="105" type="curve" smooth="yes"/>
      <point x="448" y="107"/>
      <point x="446" y="108"/>
    </contour>
    <contour>
      <point x="444" y="158" type="curve" smooth="yes"/>
      <point x="442" y="158"/>
      <point x="440" y="156"/>
      <point x="440" y="154" type="curve" smooth="yes"/>
      <point x="440" y="152"/>
      <point x="442" y="150"/>
      <point x="444" y="150" type="curve" smooth="yes"/>
      <point x="447" y="150"/>
      <point x="448" y="152"/>
      <point x="448" y="154" type="curve" smooth="yes"/>
      <point x="448" y="156"/>
      <point x="447" y="158"/>
    </contour>
    <contour>
      <point x="444" y="208" type="curve" smooth="yes"/>
      <point x="442" y="208"/>
      <point x="440" y="206"/>
      <point x="440" y="203" type="curve" smooth="yes"/>
      <point x="440" y="201"/>
      <point x="442" y="199"/>
      <point x="444" y="199" type="curve" smooth="yes"/>
      <point x="447" y="199"/>
      <point x="449" y="201"/>
      <point x="449" y="203" type="curve" smooth="yes"/>
      <point x="449" y="206"/>
      <point x="447" y="208"/>
    </contour>
    <contour>
      <point x="444" y="258" type="curve" smooth="yes"/>
      <point x="442" y="258"/>
      <point x="439" y="255"/>
      <point x="439" y="252" type="curve" smooth="yes"/>
      <point x="439" y="249"/>
      <point x="442" y="247"/>
      <point x="444" y="247" type="curve" smooth="yes"/>
      <point x="447" y="247"/>
      <point x="450" y="249"/>
      <point x="450" y="252" type="curve" smooth="yes"/>
      <point x="450" y="255"/>
      <point x="447" y="258"/>
    </contour>
    <contour>
      <point x="444" y="308" type="curve" smooth="yes"/>
      <point x="441" y="308"/>
      <point x="438" y="305"/>
      <point x="438" y="301" type="curve" smooth="yes"/>
      <point x="438" y="298"/>
      <point x="441" y="295"/>
      <point x="444" y="295" type="curve" smooth="yes"/>
      <point x="448" y="295"/>
      <point x="451" y="298"/>
      <point x="451" y="301" type="curve" smooth="yes"/>
      <point x="451" y="305"/>
      <point x="448" y="308"/>
    </contour>
    <contour>
      <point x="444" y="357" type="curve" smooth="yes"/>
      <point x="441" y="357"/>
      <point x="438" y="354"/>
      <point x="438" y="351" type="curve" smooth="yes"/>
      <point x="438" y="347"/>
      <point x="441" y="344"/>
      <point x="444" y="344" type="curve" smooth="yes"/>
      <point x="448" y="344"/>
      <point x="451" y="347"/>
      <point x="451" y="351" type="curve" smooth="yes"/>
      <point x="451" y="354"/>
      <point x="448" y="357"/>
    </contour>
    <contour>
      <point x="444" y="407" type="curve" smooth="yes"/>
      <point x="440" y="407"/>
      <point x="437" y="404"/>
      <point x="437" y="400" type="curve" smooth="yes"/>
      <point x="437" y="396"/>
      <point x="440" y="392"/>
      <point x="444" y="392" type="curve" smooth="yes"/>
      <point x="449" y="392"/>
      <point x="452" y="396"/>
      <point x="452" y="400" type="curve" smooth="yes"/>
      <point x="452" y="404"/>
      <point x="449" y="407"/>
    </contour>
    <contour>
      <point x="444" y="457" type="curve" smooth="yes"/>
      <point x="440" y="457"/>
      <point x="436" y="453"/>
      <point x="436" y="449" type="curve" smooth="yes"/>
      <point x="436" y="444"/>
      <point x="440" y="440"/>
      <point x="444" y="440" type="curve" smooth="yes"/>
      <point x="449" y="440"/>
      <point x="453" y="444"/>
      <point x="453" y="449" type="curve" smooth="yes"/>
      <point x="453" y="453"/>
      <point x="449" y="457"/>
    </contour>
    <contour>
      <point x="444" y="507" type="curve" smooth="yes"/>
      <point x="440" y="507"/>
      <point x="436" y="503"/>
      <point x="436" y="498" type="curve" smooth="yes"/>
      <point x="436" y="493"/>
      <point x="440" y="489"/>
      <point x="444" y="489" type="curve" smooth="yes"/>
      <point x="449" y="489"/>
      <point x="453" y="493"/>
      <point x="453" y="498" type="curve" smooth="yes"/>
      <point x="453" y="503"/>
      <point x="449" y="507"/>
    </contour>
    <contour>
      <point x="395" y="-41" type="curve" smooth="yes"/>
      <point x="395" y="-41"/>
      <point x="394" y="-42"/>
      <point x="394" y="-42" type="curve" smooth="yes"/>
      <point x="394" y="-43"/>
      <point x="395" y="-43"/>
      <point x="395" y="-43" type="curve" smooth="yes"/>
      <point x="396" y="-43"/>
      <point x="396" y="-43"/>
      <point x="396" y="-42" type="curve" smooth="yes"/>
      <point x="396" y="-42"/>
      <point x="396" y="-41"/>
    </contour>
    <contour>
      <point x="395" y="9" type="curve" smooth="yes"/>
      <point x="394" y="9"/>
      <point x="393" y="8"/>
      <point x="393" y="7" type="curve" smooth="yes"/>
      <point x="393" y="6"/>
      <point x="394" y="5"/>
      <point x="395" y="5" type="curve" smooth="yes"/>
      <point x="396" y="5"/>
      <point x="397" y="6"/>
      <point x="397" y="7" type="curve" smooth="yes"/>
      <point x="397" y="8"/>
      <point x="396" y="9"/>
    </contour>
    <contour>
      <point x="395" y="59" type="curve" smooth="yes"/>
      <point x="394" y="59"/>
      <point x="393" y="57"/>
      <point x="393" y="56" type="curve" smooth="yes"/>
      <point x="393" y="55"/>
      <point x="394" y="53"/>
      <point x="395" y="53" type="curve" smooth="yes"/>
      <point x="397" y="53"/>
      <point x="398" y="55"/>
      <point x="398" y="56" type="curve" smooth="yes"/>
      <point x="398" y="57"/>
      <point x="397" y="59"/>
    </contour>
    <contour>
      <point x="395" y="208" type="curve" smooth="yes"/>
      <point x="393" y="208"/>
      <point x="390" y="206"/>
      <point x="390" y="203" type="curve" smooth="yes"/>
      <point x="390" y="201"/>
      <point x="393" y="199"/>
      <point x="395" y="199" type="curve" smooth="yes"/>
      <point x="398" y="199"/>
      <point x="400" y="201"/>
      <point x="400" y="203" type="curve" smooth="yes"/>
      <point x="400" y="206"/>
      <point x="398" y="208"/>
    </contour>
    <contour>
      <point x="395" y="258" type="curve" smooth="yes"/>
      <point x="392" y="258"/>
      <point x="390" y="255"/>
      <point x="390" y="252" type="curve" smooth="yes"/>
      <point x="390" y="249"/>
      <point x="392" y="247"/>
      <point x="395" y="247" type="curve" smooth="yes"/>
      <point x="398" y="247"/>
      <point x="400" y="249"/>
      <point x="400" y="252" type="curve" smooth="yes"/>
      <point x="400" y="255"/>
      <point x="398" y="258"/>
    </contour>
    <contour>
      <point x="395" y="308" type="curve" smooth="yes"/>
      <point x="392" y="308"/>
      <point x="389" y="305"/>
      <point x="389" y="301" type="curve" smooth="yes"/>
      <point x="389" y="298"/>
      <point x="392" y="295"/>
      <point x="395" y="295" type="curve" smooth="yes"/>
      <point x="399" y="295"/>
      <point x="401" y="298"/>
      <point x="401" y="301" type="curve" smooth="yes"/>
      <point x="401" y="305"/>
      <point x="399" y="308"/>
    </contour>
    <contour>
      <point x="395" y="357" type="curve" smooth="yes"/>
      <point x="391" y="357"/>
      <point x="388" y="354"/>
      <point x="388" y="351" type="curve" smooth="yes"/>
      <point x="388" y="347"/>
      <point x="391" y="344"/>
      <point x="395" y="344" type="curve" smooth="yes"/>
      <point x="399" y="344"/>
      <point x="402" y="347"/>
      <point x="402" y="351" type="curve" smooth="yes"/>
      <point x="402" y="354"/>
      <point x="399" y="357"/>
    </contour>
    <contour>
      <point x="395" y="407" type="curve" smooth="yes"/>
      <point x="391" y="407"/>
      <point x="388" y="404"/>
      <point x="388" y="400" type="curve" smooth="yes"/>
      <point x="388" y="396"/>
      <point x="391" y="392"/>
      <point x="395" y="392" type="curve" smooth="yes"/>
      <point x="399" y="392"/>
      <point x="403" y="396"/>
      <point x="403" y="400" type="curve" smooth="yes"/>
      <point x="403" y="404"/>
      <point x="399" y="407"/>
    </contour>
    <contour>
      <point x="395" y="457" type="curve" smooth="yes"/>
      <point x="391" y="457"/>
      <point x="387" y="453"/>
      <point x="387" y="449" type="curve" smooth="yes"/>
      <point x="387" y="444"/>
      <point x="391" y="440"/>
      <point x="395" y="440" type="curve" smooth="yes"/>
      <point x="400" y="440"/>
      <point x="403" y="444"/>
      <point x="403" y="449" type="curve" smooth="yes"/>
      <point x="403" y="453"/>
      <point x="400" y="457"/>
    </contour>
    <contour>
      <point x="346" y="-41" type="curve" smooth="yes"/>
      <point x="345" y="-41"/>
      <point x="345" y="-42"/>
      <point x="345" y="-42" type="curve" smooth="yes"/>
      <point x="345" y="-43"/>
      <point x="345" y="-43"/>
      <point x="346" y="-43" type="curve" smooth="yes"/>
      <point x="346" y="-43"/>
      <point x="347" y="-43"/>
      <point x="347" y="-42" type="curve" smooth="yes"/>
      <point x="347" y="-42"/>
      <point x="346" y="-41"/>
    </contour>
    <contour>
      <point x="346" y="9" type="curve" smooth="yes"/>
      <point x="345" y="9"/>
      <point x="344" y="8"/>
      <point x="344" y="7" type="curve" smooth="yes"/>
      <point x="344" y="6"/>
      <point x="345" y="5"/>
      <point x="346" y="5" type="curve" smooth="yes"/>
      <point x="347" y="5"/>
      <point x="348" y="6"/>
      <point x="348" y="7" type="curve" smooth="yes"/>
      <point x="348" y="8"/>
      <point x="347" y="9"/>
    </contour>
    <contour>
      <point x="296" y="-41" type="curve" smooth="yes"/>
      <point x="296" y="-41"/>
      <point x="295" y="-42"/>
      <point x="295" y="-42" type="curve" smooth="yes"/>
      <point x="295" y="-43"/>
      <point x="296" y="-43"/>
      <point x="296" y="-43" type="curve" smooth="yes"/>
      <point x="297" y="-43"/>
      <point x="298" y="-43"/>
      <point x="298" y="-42" type="curve" smooth="yes"/>
      <point x="298" y="-42"/>
      <point x="297" y="-41"/>
    </contour>
    <contour>
      <point x="296" y="108" type="curve" smooth="yes"/>
      <point x="295" y="108"/>
      <point x="293" y="107"/>
      <point x="293" y="105" type="curve" smooth="yes"/>
      <point x="293" y="103"/>
      <point x="295" y="102"/>
      <point x="296" y="102" type="curve" smooth="yes"/>
      <point x="298" y="102"/>
      <point x="300" y="103"/>
      <point x="300" y="105" type="curve" smooth="yes"/>
      <point x="300" y="107"/>
      <point x="298" y="108"/>
    </contour>
    <contour>
      <point x="296" y="158" type="curve" smooth="yes"/>
      <point x="294" y="158"/>
      <point x="292" y="156"/>
      <point x="292" y="154" type="curve" smooth="yes"/>
      <point x="292" y="152"/>
      <point x="294" y="150"/>
      <point x="296" y="150" type="curve" smooth="yes"/>
      <point x="299" y="150"/>
      <point x="300" y="152"/>
      <point x="300" y="154" type="curve" smooth="yes"/>
      <point x="300" y="156"/>
      <point x="299" y="158"/>
    </contour>
    <contour>
      <point x="296" y="208" type="curve" smooth="yes"/>
      <point x="294" y="208"/>
      <point x="292" y="206"/>
      <point x="292" y="203" type="curve" smooth="yes"/>
      <point x="292" y="201"/>
      <point x="294" y="199"/>
      <point x="296" y="199" type="curve" smooth="yes"/>
      <point x="299" y="199"/>
      <point x="301" y="201"/>
      <point x="301" y="203" type="curve" smooth="yes"/>
      <point x="301" y="206"/>
      <point x="299" y="208"/>
    </contour>
    <contour>
      <point x="247" y="-41" type="curve" smooth="yes"/>
      <point x="247" y="-41"/>
      <point x="246" y="-42"/>
      <point x="246" y="-42" type="curve" smooth="yes"/>
      <point x="246" y="-43"/>
      <point x="247" y="-43"/>
      <point x="247" y="-43" type="curve" smooth="yes"/>
      <point x="248" y="-43"/>
      <point x="248" y="-43"/>
      <point x="248" y="-42" type="curve" smooth="yes"/>
      <point x="248" y="-42"/>
      <point x="248" y="-41"/>
    </contour>
    <contour>
      <point x="247" y="59" type="curve" smooth="yes"/>
      <point x="246" y="59"/>
      <point x="245" y="57"/>
      <point x="245" y="56" type="curve" smooth="yes"/>
      <point x="245" y="55"/>
      <point x="246" y="53"/>
      <point x="247" y="53" type="curve" smooth="yes"/>
      <point x="249" y="53"/>
      <point x="250" y="55"/>
      <point x="250" y="56" type="curve" smooth="yes"/>
      <point x="250" y="57"/>
      <point x="249" y="59"/>
    </contour>
    <contour>
      <point x="247" y="108" type="curve" smooth="yes"/>
      <point x="245" y="108"/>
      <point x="244" y="107"/>
      <point x="244" y="105" type="curve" smooth="yes"/>
      <point x="244" y="103"/>
      <point x="245" y="102"/>
      <point x="247" y="102" type="curve" smooth="yes"/>
      <point x="249" y="102"/>
      <point x="250" y="103"/>
      <point x="250" y="105" type="curve" smooth="yes"/>
      <point x="250" y="107"/>
      <point x="249" y="108"/>
    </contour>
    <contour>
      <point x="247" y="158" type="curve" smooth="yes"/>
      <point x="245" y="158"/>
      <point x="243" y="156"/>
      <point x="243" y="154" type="curve" smooth="yes"/>
      <point x="243" y="152"/>
      <point x="245" y="150"/>
      <point x="247" y="150" type="curve" smooth="yes"/>
      <point x="249" y="150"/>
      <point x="251" y="152"/>
      <point x="251" y="154" type="curve" smooth="yes"/>
      <point x="251" y="156"/>
      <point x="249" y="158"/>
    </contour>
    <contour>
      <point x="247" y="208" type="curve" smooth="yes"/>
      <point x="245" y="208"/>
      <point x="242" y="206"/>
      <point x="242" y="203" type="curve" smooth="yes"/>
      <point x="242" y="201"/>
      <point x="245" y="199"/>
      <point x="247" y="199" type="curve" smooth="yes"/>
      <point x="250" y="199"/>
      <point x="252" y="201"/>
      <point x="252" y="203" type="curve" smooth="yes"/>
      <point x="252" y="206"/>
      <point x="250" y="208"/>
    </contour>
    <contour>
      <point x="198" y="-41" type="curve" smooth="yes"/>
      <point x="197" y="-41"/>
      <point x="197" y="-42"/>
      <point x="197" y="-42" type="curve" smooth="yes"/>
      <point x="197" y="-43"/>
      <point x="197" y="-43"/>
      <point x="198" y="-43" type="curve" smooth="yes"/>
      <point x="198" y="-43"/>
      <point x="199" y="-43"/>
      <point x="199" y="-42" type="curve" smooth="yes"/>
      <point x="199" y="-42"/>
      <point x="198" y="-41"/>
    </contour>
    <contour>
      <point x="198" y="59" type="curve" smooth="yes"/>
      <point x="196" y="59"/>
      <point x="195" y="57"/>
      <point x="195" y="56" type="curve" smooth="yes"/>
      <point x="195" y="55"/>
      <point x="196" y="53"/>
      <point x="198" y="53" type="curve" smooth="yes"/>
      <point x="199" y="53"/>
      <point x="200" y="55"/>
      <point x="200" y="56" type="curve" smooth="yes"/>
      <point x="200" y="57"/>
      <point x="199" y="59"/>
    </contour>
    <contour>
      <point x="198" y="108" type="curve" smooth="yes"/>
      <point x="196" y="108"/>
      <point x="195" y="107"/>
      <point x="195" y="105" type="curve" smooth="yes"/>
      <point x="195" y="103"/>
      <point x="196" y="102"/>
      <point x="198" y="102" type="curve" smooth="yes"/>
      <point x="200" y="102"/>
      <point x="201" y="103"/>
      <point x="201" y="105" type="curve" smooth="yes"/>
      <point x="201" y="107"/>
      <point x="200" y="108"/>
    </contour>
    <contour>
      <point x="198" y="158" type="curve" smooth="yes"/>
      <point x="196" y="158"/>
      <point x="194" y="156"/>
      <point x="194" y="154" type="curve" smooth="yes"/>
      <point x="194" y="152"/>
      <point x="196" y="150"/>
      <point x="198" y="150" type="curve" smooth="yes"/>
      <point x="200" y="150"/>
      <point x="202" y="152"/>
      <point x="202" y="154" type="curve" smooth="yes"/>
      <point x="202" y="156"/>
      <point x="200" y="158"/>
    </contour>
    <contour>
      <point x="198" y="208" type="curve" smooth="yes"/>
      <point x="195" y="208"/>
      <point x="193" y="206"/>
      <point x="193" y="203" type="curve" smooth="yes"/>
      <point x="193" y="201"/>
      <point x="195" y="199"/>
      <point x="198" y="199" type="curve" smooth="yes"/>
      <point x="200" y="199"/>
      <point x="203" y="201"/>
      <point x="203" y="203" type="curve" smooth="yes"/>
      <point x="203" y="206"/>
      <point x="200" y="208"/>
    </contour>
    <contour>
      <point x="148" y="-41" type="curve" smooth="yes"/>
      <point x="148" y="-41"/>
      <point x="147" y="-42"/>
      <point x="147" y="-42" type="curve" smooth="yes"/>
      <point x="147" y="-43"/>
      <point x="148" y="-43"/>
      <point x="148" y="-43" type="curve" smooth="yes"/>
      <point x="149" y="-43"/>
      <point x="150" y="-43"/>
      <point x="150" y="-42" type="curve" smooth="yes"/>
      <point x="150" y="-42"/>
      <point x="149" y="-41"/>
    </contour>
    <contour>
      <point x="99" y="-41" type="curve" smooth="yes"/>
      <point x="99" y="-41"/>
      <point x="98" y="-42"/>
      <point x="98" y="-42" type="curve" smooth="yes"/>
      <point x="98" y="-43"/>
      <point x="99" y="-43"/>
      <point x="99" y="-43" type="curve" smooth="yes"/>
      <point x="100" y="-43"/>
      <point x="100" y="-43"/>
      <point x="100" y="-42" type="curve" smooth="yes"/>
      <point x="100" y="-42"/>
      <point x="100" y="-41"/>
    </contour>
    <contour>
      <point x="50" y="-41" type="curve" smooth="yes"/>
      <point x="49" y="-41"/>
      <point x="49" y="-42"/>
      <point x="49" y="-42" type="curve" smooth="yes"/>
      <point x="49" y="-43"/>
      <point x="49" y="-43"/>
      <point x="50" y="-43" type="curve" smooth="yes"/>
      <point x="50" y="-43"/>
      <point x="51" y="-43"/>
      <point x="51" y="-42" type="curve" smooth="yes"/>
      <point x="51" y="-42"/>
      <point x="50" y="-41"/>
    </contour>
    <contour>
      <point x="50" y="9" type="curve" smooth="yes"/>
      <point x="49" y="9"/>
      <point x="48" y="8"/>
      <point x="48" y="7" type="curve" smooth="yes"/>
      <point x="48" y="6"/>
      <point x="49" y="5"/>
      <point x="50" y="5" type="curve" smooth="yes"/>
      <point x="51" y="5"/>
      <point x="52" y="6"/>
      <point x="52" y="7" type="curve" smooth="yes"/>
      <point x="52" y="8"/>
      <point x="51" y="9"/>
    </contour>
    <contour>
      <point x="50" y="59" type="curve" smooth="yes"/>
      <point x="48" y="59"/>
      <point x="47" y="57"/>
      <point x="47" y="56" type="curve" smooth="yes"/>
      <point x="47" y="55"/>
      <point x="48" y="53"/>
      <point x="50" y="53" type="curve" smooth="yes"/>
      <point x="51" y="53"/>
      <point x="52" y="55"/>
      <point x="52" y="56" type="curve" smooth="yes"/>
      <point x="52" y="57"/>
      <point x="51" y="59"/>
    </contour>
    <contour>
      <point x="50" y="108" type="curve" smooth="yes"/>
      <point x="48" y="108"/>
      <point x="47" y="107"/>
      <point x="47" y="105" type="curve" smooth="yes"/>
      <point x="47" y="103"/>
      <point x="48" y="102"/>
      <point x="50" y="102" type="curve" smooth="yes"/>
      <point x="52" y="102"/>
      <point x="53" y="103"/>
      <point x="53" y="105" type="curve" smooth="yes"/>
      <point x="53" y="107"/>
      <point x="52" y="108"/>
    </contour>
    <contour>
      <point x="50" y="158" type="curve" smooth="yes"/>
      <point x="48" y="158"/>
      <point x="46" y="156"/>
      <point x="46" y="154" type="curve" smooth="yes"/>
      <point x="46" y="152"/>
      <point x="48" y="150"/>
      <point x="50" y="150" type="curve" smooth="yes"/>
      <point x="52" y="150"/>
      <point x="54" y="152"/>
      <point x="54" y="154" type="curve" smooth="yes"/>
      <point x="54" y="156"/>
      <point x="52" y="158"/>
    </contour>
    <contour>
      <point x="291" y="262" type="curve"/>
      <point x="334" y="283"/>
      <point x="354" y="323"/>
      <point x="354" y="383" type="curve" smooth="yes"/>
      <point x="354" y="395"/>
      <point x="353" y="406"/>
      <point x="350" y="416" type="curve"/>
      <point x="331" y="399" type="line"/>
      <point x="332" y="394"/>
      <point x="332" y="388"/>
      <point x="332" y="382" type="curve" smooth="yes"/>
      <point x="332" y="325"/>
      <point x="309" y="285"/>
      <point x="261" y="268" type="curve"/>
      <point x="184" y="270" type="line"/>
      <point x="165" y="252" type="line"/>
      <point x="241" y="252" type="line"/>
      <point x="323" y="245"/>
      <point x="368" y="197"/>
      <point x="368" y="130" type="curve" smooth="yes"/>
      <point x="368" y="54"/>
      <point x="307" y="16"/>
      <point x="197" y="16" type="curve" smooth="yes"/>
      <point x="174" y="16"/>
      <point x="148" y="18"/>
      <point x="126" y="20" type="curve"/>
      <point x="126" y="218" type="line"/>
      <point x="106" y="201" type="line"/>
      <point x="106" y="0" type="line"/>
      <point x="135" y="-2"/>
      <point x="174" y="-2"/>
      <point x="200" y="-2" type="curve" smooth="yes"/>
      <point x="322" y="-2"/>
      <point x="389" y="38"/>
      <point x="389" y="130" type="curve" smooth="yes"/>
      <point x="389" y="201"/>
      <point x="352" y="239"/>
    </contour>
    <contour>
      <point x="448" y="550" type="curve" smooth="yes"/>
      <point x="446" y="551"/>
      <point x="443" y="552"/>
      <point x="442" y="550" type="curve"/>
      <point x="333" y="454" type="line"/>
      <point x="310" y="487"/>
      <point x="268" y="507"/>
      <point x="213" y="507" type="curve"/>
      <point x="106" y="506" type="line"/>
      <point x="106" y="253" type="line"/>
      <point x="-2" y="157" type="line"/>
      <point x="-4" y="156"/>
      <point x="-4" y="153"/>
      <point x="-3" y="151" type="curve" smooth="yes"/>
      <point x="-2" y="151"/>
      <point x="-1" y="150"/>
      <point x="0" y="150" type="curve" smooth="yes"/>
      <point x="1" y="150"/>
      <point x="2" y="150"/>
      <point x="3" y="151" type="curve"/>
      <point x="447" y="544" type="line"/>
      <point x="449" y="545"/>
      <point x="449" y="548"/>
    </contour>
    <contour>
      <point x="126" y="271" type="line"/>
      <point x="126" y="487" type="line"/>
      <point x="216" y="487" type="line"/>
      <point x="261" y="487"/>
      <point x="296" y="468"/>
      <point x="316" y="439" type="curve"/>
      <point x="126" y="271" type="line"/>
    </contour>
  </outline>
</glyph>
<glyph name="b.3.2" format="1">
  <advance width="444"/>
  <outline>
    <contour>
      <point x="444" y="-41" type="curve" smooth="yes"/>
      <point x="444" y="-41"/>
      <point x="443" y="-42"/>
      <point x="443" y="-42" type="curve" smooth="yes"/>
      <point x="443" y="-43"/>
      <point x="444" y="-43"/>
      <point x="444" y="-43" type="curve" smooth="yes"/>
      <point x="445" y="-43"/>
      <point x="446" y="-43"/>
      <point x="446" y="-42" type="curve" smooth="yes"/>
      <point x="446" y="-42"/>
      <point x="445" y="-41"/>
    </contour>
    <contour>
      <point x="444" y="9" type="curve" smooth="yes"/>
      <point x="443" y="9"/>
      <point x="443" y="8"/>
      <point x="443" y="7" type="curve" smooth="yes"/>
      <point x="443" y="6"/>
      <point x="443" y="5"/>
      <point x="444" y="5" type="curve" smooth="yes"/>
      <point x="445" y="5"/>
      <point x="446" y="6"/>
      <point x="446" y="7" type="curve" smooth="yes"/>
      <point x="446" y="8"/>
      <point x="445" y="9"/>
    </contour>
    <contour>
      <point x="444" y="59" type="curve" smooth="yes"/>
      <point x="443" y="59"/>
      <point x="442" y="57"/>
      <point x="442" y="56" type="curve" smooth="yes"/>
      <point x="442" y="55"/>
      <point x="443" y="53"/>
      <point x="444" y="53" type="curve" smooth="yes"/>
      <point x="446" y="53"/>
      <point x="447" y="55"/>
      <point x="447" y="56" type="curve" smooth="yes"/>
      <point x="447" y="57"/>
      <point x="446" y="59"/>
    </contour>
    <contour>
      <point x="444" y="108" type="curve" smooth="yes"/>
      <point x="443" y="108"/>
      <point x="441" y="107"/>
      <point x="441" y="105" type="curve" smooth="yes"/>
      <point x="441" y="103"/>
      <point x="443" y="102"/>
      <point x="444" y="102" type="curve" smooth="yes"/>
      <point x="446" y="102"/>
      <point x="448" y="103"/>
      <point x="448" y="105" type="curve" smooth="yes"/>
      <point x="448" y="107"/>
      <point x="446" y="108"/>
    </contour>
    <contour>
      <point x="444" y="158" type="curve" smooth="yes"/>
      <point x="442" y="158"/>
      <point x="440" y="156"/>
      <point x="440" y="154" type="curve" smooth="yes"/>
      <point x="440" y="152"/>
      <point x="442" y="150"/>
      <point x="444" y="150" type="curve" smooth="yes"/>
      <point x="447" y="150"/>
      <point x="448" y="152"/>
      <point x="448" y="154" type="curve" smooth="yes"/>
      <point x="448" y="156"/>
      <point x="447" y="158"/>
    </contour>
    <contour>
      <point x="444" y="208" type="curve" smooth="yes"/>
      <point x="442" y="208"/>
      <point x="440" y="206"/>
      <point x="440" y="203" type="curve" smooth="yes"/>
      <point x="440" y="201"/>
      <point x="442" y="199"/>
      <point x="444" y="199" type="curve" smooth="yes"/>
      <point x="447" y="199"/>
      <point x="449" y="201"/>
      <point x="449" y="203" type="curve" smooth="yes"/>
      <point x="449" y="206"/>
      <point x="447" y="208"/>
    </contour>
    <contour>
      <point x="444" y="258" type="curve" smooth="yes"/>
      <point x="442" y="258"/>
      <point x="439" y="255"/>
      <point x="439" y="252" type="curve" smooth="yes"/>
      <point x="439" y="249"/>
      <point x="442" y="247"/>
      <point x="444" y="247" type="curve" smooth="yes"/>
      <point x="447" y="247"/>
      <point x="450" y="249"/>
      <point x="450" y="252" type="curve" smooth="yes"/>
      <point x="450" y="255"/>
      <point x="447" y="258"/>
    </contour>
    <contour>
      <point x="444" y="308" type="curve" smooth="yes"/>
      <point x="441" y="308"/>
      <point x="438" y="305"/>
      <point x="438" y="301" type="curve" smooth="yes"/>
      <point x="438" y="298"/>
      <point x="441" y="295"/>
      <point x="444" y="295" type="curve" smooth="yes"/>
      <point x="448" y="295"/>
      <point x="451" y="298"/>
      <point x="451" y="301" type="curve" smooth="yes"/>
      <point x="451" y="305"/>
      <point x="448" y="308"/>
    </contour>
    <contour>
      <point x="395" y="-41" type="curve" smooth="yes"/>
      <point x="395" y="-41"/>
      <point x="394" y="-42"/>
      <point x="394" y="-42" type="curve" smooth="yes"/>
      <point x="394" y="-43"/>
      <point x="395" y="-43"/>
      <point x="395" y="-43" type="curve" smooth="yes"/>
      <point x="396" y="-43"/>
      <point x="396" y="-43"/>
      <point x="396" y="-42" type="curve" smooth="yes"/>
      <point x="396" y="-42"/>
      <point x="396" y="-41"/>
    </contour>
    <contour>
      <point x="395" y="9" type="curve" smooth="yes"/>
      <point x="394" y="9"/>
      <point x="393" y="8"/>
      <point x="393" y="7" type="curve" smooth="yes"/>
      <point x="393" y="6"/>
      <point x="394" y="5"/>
      <point x="395" y="5" type="curve" smooth="yes"/>
      <point x="396" y="5"/>
      <point x="397" y="6"/>
      <point x="397" y="7" type="curve" smooth="yes"/>
      <point x="397" y="8"/>
      <point x="396" y="9"/>
    </contour>
    <contour>
      <point x="395" y="258" type="curve" smooth="yes"/>
      <point x="392" y="258"/>
      <point x="390" y="255"/>
      <point x="390" y="252" type="curve" smooth="yes"/>
      <point x="390" y="249"/>
      <point x="392" y="247"/>
      <point x="395" y="247" type="curve" smooth="yes"/>
      <point x="398" y="247"/>
      <point x="400" y="249"/>
      <point x="400" y="252" type="curve" smooth="yes"/>
      <point x="400" y="255"/>
      <point x="398" y="258"/>
    </contour>
    <contour>
      <point x="395" y="308" type="curve" smooth="yes"/>
      <point x="392" y="308"/>
      <point x="389" y="305"/>
      <point x="389" y="301" type="curve" smooth="yes"/>
      <point x="389" y="298"/>
      <point x="392" y="295"/>
      <point x="395" y="295" type="curve" smooth="yes"/>
      <point x="399" y="295"/>
      <point x="401" y="298"/>
      <point x="401" y="301" type="curve" smooth="yes"/>
      <point x="401" y="305"/>
      <point x="399" y="308"/>
    </contour>
    <contour>
      <point x="346" y="-41" type="curve" smooth="yes"/>
      <point x="345" y="-41"/>
      <point x="345" y="-42"/>
      <point x="345" y="-42" type="curve" smooth="yes"/>
      <point x="345" y="-43"/>
      <point x="345" y="-43"/>
      <point x="346" y="-43" type="curve" smooth="yes"/>
      <point x="346" y="-43"/>
      <point x="347" y="-43"/>
      <point x="347" y="-42" type="curve" smooth="yes"/>
      <point x="347" y="-42"/>
      <point x="346" y="-41"/>
    </contour>
    <contour>
      <point x="296" y="-41" type="curve" smooth="yes"/>
      <point x="296" y="-41"/>
      <point x="295" y="-42"/>
      <point x="295" y="-42" type="curve" smooth="yes"/>
      <point x="295" y="-43"/>
      <point x="296" y="-43"/>
      <point x="296" y="-43" type="curve" smooth="yes"/>
      <point x="297" y="-43"/>
      <point x="298" y="-43"/>
      <point x="298" y="-42" type="curve" smooth="yes"/>
      <point x="298" y="-42"/>
      <point x="297" y="-41"/>
    </contour>
    <contour>
      <point x="296" y="108" type="curve" smooth="yes"/>
      <point x="295" y="108"/>
      <point x="293" y="107"/>
      <point x="293" y="105" type="curve" smooth="yes"/>
      <point x="293" y="103"/>
      <point x="295" y="102"/>
      <point x="296" y="102" type="curve" smooth="yes"/>
      <point x="298" y="102"/>
      <point x="300" y="103"/>
      <point x="300" y="105" type="curve" smooth="yes"/>
      <point x="300" y="107"/>
      <point x="298" y="108"/>
    </contour>
    <contour>
      <point x="296" y="158" type="curve" smooth="yes"/>
      <point x="294" y="158"/>
      <point x="292" y="156"/>
      <point x="292" y="154" type="curve" smooth="yes"/>
      <point x="292" y="152"/>
      <point x="294" y="150"/>
      <point x="296" y="150" type="curve" smooth="yes"/>
      <point x="299" y="150"/>
      <point x="300" y="152"/>
      <point x="300" y="154" type="curve" smooth="yes"/>
      <point x="300" y="156"/>
      <point x="299" y="158"/>
    </contour>
    <contour>
      <point x="296" y="357" type="curve" smooth="yes"/>
      <point x="293" y="357"/>
      <point x="290" y="354"/>
      <point x="290" y="351" type="curve" smooth="yes"/>
      <point x="290" y="347"/>
      <point x="293" y="344"/>
      <point x="296" y="344" type="curve" smooth="yes"/>
      <point x="300" y="344"/>
      <point x="303" y="347"/>
      <point x="303" y="351" type="curve" smooth="yes"/>
      <point x="303" y="354"/>
      <point x="300" y="357"/>
    </contour>
    <contour>
      <point x="247" y="-41" type="curve" smooth="yes"/>
      <point x="247" y="-41"/>
      <point x="246" y="-42"/>
      <point x="246" y="-42" type="curve" smooth="yes"/>
      <point x="246" y="-43"/>
      <point x="247" y="-43"/>
      <point x="247" y="-43" type="curve" smooth="yes"/>
      <point x="248" y="-43"/>
      <point x="248" y="-43"/>
      <point x="248" y="-42" type="curve" smooth="yes"/>
      <point x="248" y="-42"/>
      <point x="248" y="-41"/>
    </contour>
    <contour>
      <point x="247" y="59" type="curve" smooth="yes"/>
      <point x="246" y="59"/>
      <point x="245" y="57"/>
      <point x="245" y="56" type="curve" smooth="yes"/>
      <point x="245" y="55"/>
      <point x="246" y="53"/>
      <point x="247" y="53" type="curve" smooth="yes"/>
      <point x="249" y="53"/>
      <point x="250" y="55"/>
      <point x="250" y="56" type="curve" smooth="yes"/>
      <point x="250" y="57"/>
      <point x="249" y="59"/>
    </contour>
    <contour>
      <point x="247" y="108" type="curve" smooth="yes"/>
      <point x="245" y="108"/>
      <point x="244" y="107"/>
      <point x="244" y="105" type="curve" smooth="yes"/>
      <point x="244" y="103"/>
      <point x="245" y="102"/>
      <point x="247" y="102" type="curve" smooth="yes"/>
      <point x="249" y="102"/>
      <point x="250" y="103"/>
      <point x="250" y="105" type="curve" smooth="yes"/>
      <point x="250" y="107"/>
      <point x="249" y="108"/>
    </contour>
    <contour>
      <point x="247" y="158" type="curve" smooth="yes"/>
      <point x="245" y="158"/>
      <point x="243" y="156"/>
      <point x="243" y="154" type="curve" smooth="yes"/>
      <point x="243" y="152"/>
      <point x="245" y="150"/>
      <point x="247" y="150" type="curve" smooth="yes"/>
      <point x="249" y="150"/>
      <point x="251" y="152"/>
      <point x="251" y="154" type="curve" smooth="yes"/>
      <point x="251" y="156"/>
      <point x="249" y="158"/>
    </contour>
    <contour>
      <point x="247" y="208" type="curve" smooth="yes"/>
      <point x="245" y="208"/>
      <point x="242" y="206"/>
      <point x="242" y="203" type="curve" smooth="yes"/>
      <point x="242" y="201"/>
      <point x="245" y="199"/>
      <point x="247" y="199" type="curve" smooth="yes"/>
      <point x="250" y="199"/>
      <point x="252" y="201"/>
      <point x="252" y="203" type="curve" smooth="yes"/>
      <point x="252" y="206"/>
      <point x="250" y="208"/>
    </contour>
    <contour>
      <point x="247" y="308" type="curve" smooth="yes"/>
      <point x="244" y="308"/>
      <point x="241" y="305"/>
      <point x="241" y="301" type="curve" smooth="yes"/>
      <point x="241" y="298"/>
      <point x="244" y="295"/>
      <point x="247" y="295" type="curve" smooth="yes"/>
      <point x="251" y="295"/>
      <point x="253" y="298"/>
      <point x="253" y="301" type="curve" smooth="yes"/>
      <point x="253" y="305"/>
      <point x="251" y="308"/>
    </contour>
    <contour>
      <point x="247" y="357" type="curve" smooth="yes"/>
      <point x="243" y="357"/>
      <point x="240" y="354"/>
      <point x="240" y="351" type="curve" smooth="yes"/>
      <point x="240" y="347"/>
      <point x="243" y="344"/>
      <point x="247" y="344" type="curve" smooth="yes"/>
      <point x="251" y="344"/>
      <point x="254" y="347"/>
      <point x="254" y="351" type="curve" smooth="yes"/>
      <point x="254" y="354"/>
      <point x="251" y="357"/>
    </contour>
    <contour>
      <point x="198" y="-41" type="curve" smooth="yes"/>
      <point x="197" y="-41"/>
      <point x="197" y="-42"/>
      <point x="197" y="-42" type="curve" smooth="yes"/>
      <point x="197" y="-43"/>
      <point x="197" y="-43"/>
      <point x="198" y="-43" type="curve" smooth="yes"/>
      <point x="198" y="-43"/>
      <point x="199" y="-43"/>
      <point x="199" y="-42" type="curve" smooth="yes"/>
      <point x="199" y="-42"/>
      <point x="198" y="-41"/>
    </contour>
    <contour>
      <point x="198" y="59" type="curve" smooth="yes"/>
      <point x="196" y="59"/>
      <point x="195" y="57"/>
      <point x="195" y="56" type="curve" smooth="yes"/>
      <point x="195" y="55"/>
      <point x="196" y="53"/>
      <point x="198" y="53" type="curve" smooth="yes"/>
      <point x="199" y="53"/>
      <point x="200" y="55"/>
      <point x="200" y="56" type="curve" smooth="yes"/>
      <point x="200" y="57"/>
      <point x="199" y="59"/>
    </contour>
    <contour>
      <point x="198" y="108" type="curve" smooth="yes"/>
      <point x="196" y="108"/>
      <point x="195" y="107"/>
      <point x="195" y="105" type="curve" smooth="yes"/>
      <point x="195" y="103"/>
      <point x="196" y="102"/>
      <point x="198" y="102" type="curve" smooth="yes"/>
      <point x="200" y="102"/>
      <point x="201" y="103"/>
      <point x="201" y="105" type="curve" smooth="yes"/>
      <point x="201" y="107"/>
      <point x="200" y="108"/>
    </contour>
    <contour>
      <point x="198" y="158" type="curve" smooth="yes"/>
      <point x="196" y="158"/>
      <point x="194" y="156"/>
      <point x="194" y="154" type="curve" smooth="yes"/>
      <point x="194" y="152"/>
      <point x="196" y="150"/>
      <point x="198" y="150" type="curve" smooth="yes"/>
      <point x="200" y="150"/>
      <point x="202" y="152"/>
      <point x="202" y="154" type="curve" smooth="yes"/>
      <point x="202" y="156"/>
      <point x="200" y="158"/>
    </contour>
    <contour>
      <point x="198" y="208" type="curve" smooth="yes"/>
      <point x="195" y="208"/>
      <point x="193" y="206"/>
      <point x="193" y="203" type="curve" smooth="yes"/>
      <point x="193" y="201"/>
      <point x="195" y="199"/>
      <point x="198" y="199" type="curve" smooth="yes"/>
      <point x="200" y="199"/>
      <point x="203" y="201"/>
      <point x="203" y="203" type="curve" smooth="yes"/>
      <point x="203" y="206"/>
      <point x="200" y="208"/>
    </contour>
    <contour>
      <point x="198" y="308" type="curve" smooth="yes"/>
      <point x="194" y="308"/>
      <point x="192" y="305"/>
      <point x="192" y="301" type="curve" smooth="yes"/>
      <point x="192" y="298"/>
      <point x="194" y="295"/>
      <point x="198" y="295" type="curve" smooth="yes"/>
      <point x="201" y="295"/>
      <point x="204" y="298"/>
      <point x="204" y="301" type="curve" smooth="yes"/>
      <point x="204" y="305"/>
      <point x="201" y="308"/>
    </contour>
    <contour>
      <point x="198" y="357" type="curve" smooth="yes"/>
      <point x="194" y="357"/>
      <point x="191" y="354"/>
      <point x="191" y="351" type="curve" smooth="yes"/>
      <point x="191" y="347"/>
      <point x="194" y="344"/>
      <point x="198" y="344" type="curve" smooth="yes"/>
      <point x="202" y="344"/>
      <point x="205" y="347"/>
      <point x="205" y="351" type="curve" smooth="yes"/>
      <point x="205" y="354"/>
      <point x="202" y="357"/>
    </contour>
    <contour>
      <point x="198" y="407" type="curve" smooth="yes"/>
      <point x="194" y="407"/>
      <point x="190" y="404"/>
      <point x="190" y="400" type="curve" smooth="yes"/>
      <point x="190" y="396"/>
      <point x="194" y="392"/>
      <point x="198" y="392" type="curve" smooth="yes"/>
      <point x="202" y="392"/>
      <point x="205" y="396"/>
      <point x="205" y="400" type="curve" smooth="yes"/>
      <point x="205" y="404"/>
      <point x="202" y="407"/>
    </contour>
    <contour>
      <point x="148" y="-41" type="curve" smooth="yes"/>
      <point x="148" y="-41"/>
      <point x="147" y="-42"/>
      <point x="147" y="-42" type="curve" smooth="yes"/>
      <point x="147" y="-43"/>
      <point x="148" y="-43"/>
      <point x="148" y="-43" type="curve" smooth="yes"/>
      <point x="149" y="-43"/>
      <point x="150" y="-43"/>
      <point x="150" y="-42" type="curve" smooth="yes"/>
      <point x="150" y="-42"/>
      <point x="149" y="-41"/>
    </contour>
    <contour>
      <point x="99" y="-41" type="curve" smooth="yes"/>
      <point x="99" y="-41"/>
      <point x="98" y="-42"/>
      <point x="98" y="-42" type="curve" smooth="yes"/>
      <point x="98" y="-43"/>
      <point x="99" y="-43"/>
      <point x="99" y="-43" type="curve" smooth="yes"/>
      <point x="100" y="-43"/>
      <point x="100" y="-43"/>
      <point x="100" y="-42" type="curve" smooth="yes"/>
      <point x="100" y="-42"/>
      <point x="100" y="-41"/>
    </contour>
    <contour>
      <point x="50" y="-41" type="curve" smooth="yes"/>
      <point x="49" y="-41"/>
      <point x="49" y="-42"/>
      <point x="49" y="-42" type="curve" smooth="yes"/>
      <point x="49" y="-43"/>
      <point x="49" y="-43"/>
      <point x="50" y="-43" type="curve" smooth="yes"/>
      <point x="50" y="-43"/>
      <point x="51" y="-43"/>
      <point x="51" y="-42" type="curve" smooth="yes"/>
      <point x="51" y="-42"/>
      <point x="50" y="-41"/>
    </contour>
    <contour>
      <point x="50" y="9" type="curve" smooth="yes"/>
      <point x="49" y="9"/>
      <point x="48" y="8"/>
      <point x="48" y="7" type="curve" smooth="yes"/>
      <point x="48" y="6"/>
      <point x="49" y="5"/>
      <point x="50" y="5" type="curve" smooth="yes"/>
      <point x="51" y="5"/>
      <point x="52" y="6"/>
      <point x="52" y="7" type="curve" smooth="yes"/>
      <point x="52" y="8"/>
      <point x="51" y="9"/>
    </contour>
    <contour>
      <point x="50" y="59" type="curve" smooth="yes"/>
      <point x="48" y="59"/>
      <point x="47" y="57"/>
      <point x="47" y="56" type="curve" smooth="yes"/>
      <point x="47" y="55"/>
      <point x="48" y="53"/>
      <point x="50" y="53" type="curve" smooth="yes"/>
      <point x="51" y="53"/>
      <point x="52" y="55"/>
      <point x="52" y="56" type="curve" smooth="yes"/>
      <point x="52" y="57"/>
      <point x="51" y="59"/>
    </contour>
    <contour>
      <point x="50" y="108" type="curve" smooth="yes"/>
      <point x="48" y="108"/>
      <point x="47" y="107"/>
      <point x="47" y="105" type="curve" smooth="yes"/>
      <point x="47" y="103"/>
      <point x="48" y="102"/>
      <point x="50" y="102" type="curve" smooth="yes"/>
      <point x="52" y="102"/>
      <point x="53" y="103"/>
      <point x="53" y="105" type="curve" smooth="yes"/>
      <point x="53" y="107"/>
      <point x="52" y="108"/>
    </contour>
    <contour>
      <point x="50" y="158" type="curve" smooth="yes"/>
      <point x="48" y="158"/>
      <point x="46" y="156"/>
      <point x="46" y="154" type="curve" smooth="yes"/>
      <point x="46" y="152"/>
      <point x="48" y="150"/>
      <point x="50" y="150" type="curve" smooth="yes"/>
      <point x="52" y="150"/>
      <point x="54" y="152"/>
      <point x="54" y="154" type="curve" smooth="yes"/>
      <point x="54" y="156"/>
      <point x="52" y="158"/>
    </contour>
    <contour>
      <point x="50" y="208" type="curve" smooth="yes"/>
      <point x="47" y="208"/>
      <point x="45" y="206"/>
      <point x="45" y="203" type="curve" smooth="yes"/>
      <point x="45" y="201"/>
      <point x="47" y="199"/>
      <point x="50" y="199" type="curve" smooth="yes"/>
      <point x="52" y="199"/>
      <point x="55" y="201"/>
      <point x="55" y="203" type="curve" smooth="yes"/>
      <point x="55" y="206"/>
      <point x="52" y="208"/>
    </contour>
    <contour>
      <point x="50" y="258" type="curve" smooth="yes"/>
      <point x="47" y="258"/>
      <point x="44" y="255"/>
      <point x="44" y="252" type="curve" smooth="yes"/>
      <point x="44" y="249"/>
      <point x="47" y="247"/>
      <point x="50" y="247" type="curve" smooth="yes"/>
      <point x="53" y="247"/>
      <point x="55" y="249"/>
      <point x="55" y="252" type="curve" smooth="yes"/>
      <point x="55" y="255"/>
      <point x="53" y="258"/>
    </contour>
    <contour>
      <point x="50" y="308" type="curve" smooth="yes"/>
      <point x="46" y="308"/>
      <point x="44" y="305"/>
      <point x="44" y="301" type="curve" smooth="yes"/>
      <point x="44" y="298"/>
      <point x="46" y="295"/>
      <point x="50" y="295" type="curve" smooth="yes"/>
      <point x="53" y="295"/>
      <point x="56" y="298"/>
      <point x="56" y="301" type="curve" smooth="yes"/>
      <point x="56" y="305"/>
      <point x="53" y="308"/>
    </contour>
    <contour>
      <point x="50" y="357" type="curve" smooth="yes"/>
      <point x="46" y="357"/>
      <point x="43" y="354"/>
      <point x="43" y="351" type="curve" smooth="yes"/>
      <point x="43" y="347"/>
      <point x="46" y="344"/>
      <point x="50" y="344" type="curve" smooth="yes"/>
      <point x="54" y="344"/>
      <point x="57" y="347"/>
      <point x="57" y="351" type="curve" smooth="yes"/>
      <point x="57" y="354"/>
      <point x="54" y="357"/>
    </contour>
    <contour>
      <point x="50" y="407" type="curve" smooth="yes"/>
      <point x="46" y="407"/>
      <point x="42" y="404"/>
      <point x="42" y="400" type="curve" smooth="yes"/>
      <point x="42" y="396"/>
      <point x="46" y="392"/>
      <point x="50" y="392" type="curve" smooth="yes"/>
      <point x="54" y="392"/>
      <point x="57" y="396"/>
      <point x="57" y="400" type="curve" smooth="yes"/>
      <point x="57" y="404"/>
      <point x="54" y="407"/>
    </contour>
    <contour>
      <point x="50" y="457" type="curve" smooth="yes"/>
      <point x="45" y="457"/>
      <point x="42" y="453"/>
      <point x="42" y="449" type="curve" smooth="yes"/>
      <point x="42" y="444"/>
      <point x="45" y="440"/>
      <point x="50" y="440" type="curve" smooth="yes"/>
      <point x="54" y="440"/>
      <point x="58" y="444"/>
      <point x="58" y="449" type="curve" smooth="yes"/>
      <point x="58" y="453"/>
      <point x="54" y="457"/>
    </contour>
    <contour>
      <point x="-3" y="549" type="curve" smooth="yes"/>
      <point x="-4" y="547"/>
      <point x="-3" y="544"/>
      <point x="-1" y="543" type="curve"/>
      <point x="83" y="506" type="line"/>
      <point x="83" y="506" type="line"/>
      <point x="83" y="515" type="line"/>
      <point x="2" y="551" type="line"/>
      <point x="0" y="552"/>
      <point x="-2" y="551"/>
    </contour>
    <contour>
      <point x="446" y="354" type="curve"/>
      <point x="361" y="392" type="line"/>
      <point x="356" y="462"/>
      <point x="303" y="507"/>
      <point x="221" y="507" type="curve"/>
      <point x="108" y="506" type="line"/>
      <point x="108" y="0" type="line"/>
      <point x="137" y="-2"/>
      <point x="174" y="-2"/>
      <point x="200" y="-2" type="curve" smooth="yes"/>
      <point x="322" y="-2"/>
      <point x="389" y="38"/>
      <point x="389" y="130" type="curve" smooth="yes"/>
      <point x="389" y="204"/>
      <point x="343" y="246"/>
      <point x="270" y="256" type="curve"/>
      <point x="311" y="273"/>
      <point x="346" y="304"/>
      <point x="357" y="351" type="curve"/>
      <point x="336" y="360" type="line"/>
      <point x="327" y="316"/>
      <point x="291" y="280"/>
      <point x="245" y="267" type="curve"/>
      <point x="245" y="267"/>
      <point x="238" y="266"/>
      <point x="235" y="265" type="curve"/>
      <point x="128" y="265" type="line"/>
      <point x="128" y="487" type="line"/>
      <point x="224" y="487" type="line"/>
      <point x="285" y="487"/>
      <point x="329" y="453"/>
      <point x="337" y="403" type="curve"/>
      <point x="203" y="462" type="line"/>
      <point x="182" y="462" type="line"/>
      <point x="443" y="347" type="line"/>
      <point x="443" y="347"/>
      <point x="444" y="346"/>
      <point x="444" y="346" type="curve"/>
      <point x="444" y="346" type="line" smooth="yes"/>
      <point x="446" y="346"/>
      <point x="447" y="347"/>
      <point x="448" y="348" type="curve" smooth="yes"/>
      <point x="448" y="348"/>
      <point x="448" y="349"/>
      <point x="448" y="349" type="curve" smooth="yes"/>
      <point x="449" y="351"/>
      <point x="448" y="354"/>
    </contour>
    <contour>
      <point x="241" y="244" type="line"/>
      <point x="242" y="244"/>
      <point x="245" y="244"/>
      <point x="245" y="244" type="curve"/>
      <point x="325" y="236"/>
      <point x="368" y="196"/>
      <point x="368" y="130" type="curve" smooth="yes"/>
      <point x="368" y="54"/>
      <point x="307" y="16"/>
      <point x="197" y="16" type="curve" smooth="yes"/>
      <point x="174" y="16"/>
      <point x="150" y="18"/>
      <point x="128" y="20" type="curve"/>
      <point x="128" y="243" type="line"/>
    </contour>
  </outline>
</glyph>
<glyph name="c.1.0" format="1">
  <advance width="467"/>
  <outline>
    <contour>
      <point x="421" y="-41" type="curve" smooth="yes"/>
      <point x="420" y="-41"/>
      <point x="420" y="-42"/>
      <point x="420" y="-42" type="curve" smooth="yes"/>
      <point x="420" y="-43"/>
      <point x="420" y="-43"/>
      <point x="421" y="-43" type="curve" smooth="yes"/>
      <point x="421" y="-43"/>
      <point x="422" y="-43"/>
      <point x="422" y="-42" type="curve" smooth="yes"/>
      <point x="422" y="-42"/>
      <point x="421" y="-41"/>
    </contour>
    <contour>
      <point x="374" y="-41" type="curve" smooth="yes"/>
      <point x="373" y="-41"/>
      <point x="373" y="-42"/>
      <point x="373" y="-42" type="curve" smooth="yes"/>
      <point x="373" y="-43"/>
      <point x="373" y="-43"/>
      <point x="374" y="-43" type="curve" smooth="yes"/>
      <point x="375" y="-43"/>
      <point x="375" y="-43"/>
      <point x="375" y="-42" type="curve" smooth="yes"/>
      <point x="375" y="-42"/>
      <point x="375" y="-41"/>
    </contour>
    <contour>
      <point x="327" y="-41" type="curve" smooth="yes"/>
      <point x="327" y="-41"/>
      <point x="326" y="-42"/>
      <point x="326" y="-42" type="curve" smooth="yes"/>
      <point x="326" y="-43"/>
      <point x="327" y="-43"/>
      <point x="327" y="-43" type="curve" smooth="yes"/>
      <point x="328" y="-43"/>
      <point x="328" y="-43"/>
      <point x="328" y="-42" type="curve" smooth="yes"/>
      <point x="328" y="-42"/>
      <point x="328" y="-41"/>
    </contour>
    <contour>
      <point x="281" y="-41" type="curve" smooth="yes"/>
      <point x="280" y="-41"/>
      <point x="279" y="-42"/>
      <point x="279" y="-42" type="curve" smooth="yes"/>
      <point x="279" y="-43"/>
      <point x="280" y="-43"/>
      <point x="281" y="-43" type="curve" smooth="yes"/>
      <point x="281" y="-43"/>
      <point x="282" y="-43"/>
      <point x="282" y="-42" type="curve" smooth="yes"/>
      <point x="282" y="-42"/>
      <point x="281" y="-41"/>
    </contour>
    <contour>
      <point x="281" y="9" type="curve" smooth="yes"/>
      <point x="280" y="9"/>
      <point x="279" y="8"/>
      <point x="279" y="7" type="curve" smooth="yes"/>
      <point x="279" y="6"/>
      <point x="280" y="5"/>
      <point x="281" y="5" type="curve" smooth="yes"/>
      <point x="282" y="5"/>
      <point x="282" y="6"/>
      <point x="282" y="7" type="curve" smooth="yes"/>
      <point x="282" y="8"/>
      <point x="282" y="9"/>
    </contour>
    <contour>
      <point x="234" y="-41" type="curve" smooth="yes"/>
      <point x="233" y="-41"/>
      <point x="233" y="-42"/>
      <point x="233" y="-42" type="curve" smooth="yes"/>
      <point x="233" y="-43"/>
      <point x="233" y="-43"/>
      <point x="234" y="-43" type="curve" smooth="yes"/>
      <point x="234" y="-43"/>
      <point x="235" y="-43"/>
      <point x="235" y="-42" type="curve" smooth="yes"/>
      <point x="235" y="-42"/>
      <point x="234" y="-41"/>
    </contour>
    <contour>
      <point x="234" y="9" type="curve" smooth="yes"/>
      <point x="233" y="9"/>
      <point x="232" y="8"/>
      <point x="232" y="7" type="curve" smooth="yes"/>
      <point x="232" y="6"/>
      <point x="233" y="5"/>
      <point x="234" y="5" type="curve" smooth="yes"/>
      <point x="235" y="5"/>
      <point x="236" y="6"/>
      <point x="236" y="7" type="curve" smooth="yes"/>
      <point x="236" y="8"/>
      <point x="235" y="9"/>
    </contour>
    <contour>
      <point x="187" y="-41" type="curve" smooth="yes"/>
      <point x="187" y="-41"/>
      <point x="186" y="-42"/>
      <point x="186" y="-42" type="curve" smooth="yes"/>
      <point x="186" y="-43"/>
      <point x="187" y="-43"/>
      <point x="187" y="-43" type="curve" smooth="yes"/>
      <point x="188" y="-43"/>
      <point x="188" y="-43"/>
      <point x="188" y="-42" type="curve" smooth="yes"/>
      <point x="188" y="-42"/>
      <point x="188" y="-41"/>
    </contour>
    <contour>
      <point x="187" y="9" type="curve" smooth="yes"/>
      <point x="186" y="9"/>
      <point x="185" y="8"/>
      <point x="185" y="7" type="curve" smooth="yes"/>
      <point x="185" y="6"/>
      <point x="186" y="5"/>
      <point x="187" y="5" type="curve" smooth="yes"/>
      <point x="188" y="5"/>
      <point x="189" y="6"/>
      <point x="189" y="7" type="curve" smooth="yes"/>
      <point x="189" y="8"/>
      <point x="188" y="9"/>
    </contour>
    <contour>
      <point x="140" y="-41" type="curve" smooth="yes"/>
      <point x="140" y="-41"/>
      <point x="139" y="-42"/>
      <point x="139" y="-42" type="curve" smooth="yes"/>
      <point x="139" y="-43"/>
      <point x="140" y="-43"/>
      <point x="140" y="-43" type="curve" smooth="yes"/>
      <point x="141" y="-43"/>
      <point x="142" y="-43"/>
      <point x="142" y="-42" type="curve" smooth="yes"/>
      <point x="142" y="-42"/>
      <point x="141" y="-41"/>
    </contour>
    <contour>
      <point x="140" y="9" type="curve" smooth="yes"/>
      <point x="139" y="9"/>
      <point x="139" y="8"/>
      <point x="139" y="7" type="curve" smooth="yes"/>
      <point x="139" y="6"/>
      <point x="139" y="5"/>
      <point x="140" y="5" type="curve" smooth="yes"/>
      <point x="141" y="5"/>
      <point x="142" y="6"/>
      <point x="142" y="7" type="curve" smooth="yes"/>
      <point x="142" y="8"/>
      <point x="141" y="9"/>
    </contour>
    <contour>
      <point x="140" y="59" type="curve" smooth="yes"/>
      <point x="139" y="59"/>
      <point x="138" y="57"/>
      <point x="138" y="56" type="curve" smooth="yes"/>
      <point x="138" y="55"/>
      <point x="139" y="53"/>
      <point x="140" y="53" type="curve" smooth="yes"/>
      <point x="142" y="53"/>
      <point x="143" y="55"/>
      <point x="143" y="56" type="curve" smooth="yes"/>
      <point x="143" y="57"/>
      <point x="142" y="59"/>
    </contour>
    <contour>
      <point x="94" y="-41" type="curve" smooth="yes"/>
      <point x="93" y="-41"/>
      <point x="93" y="-42"/>
      <point x="93" y="-42" type="curve" smooth="yes"/>
      <point x="93" y="-43"/>
      <point x="93" y="-43"/>
      <point x="94" y="-43" type="curve" smooth="yes"/>
      <point x="94" y="-43"/>
      <point x="95" y="-43"/>
      <point x="95" y="-42" type="curve" smooth="yes"/>
      <point x="95" y="-42"/>
      <point x="94" y="-41"/>
    </contour>
    <contour>
      <point x="94" y="9" type="curve" smooth="yes"/>
      <point x="93" y="9"/>
      <point x="92" y="8"/>
      <point x="92" y="7" type="curve" smooth="yes"/>
      <point x="92" y="6"/>
      <point x="93" y="5"/>
      <point x="94" y="5" type="curve" smooth="yes"/>
      <point x="95" y="5"/>
      <point x="95" y="6"/>
      <point x="95" y="7" type="curve" smooth="yes"/>
      <point x="95" y="8"/>
      <point x="95" y="9"/>
    </contour>
    <contour>
      <point x="94" y="59" type="curve" smooth="yes"/>
      <point x="92" y="59"/>
      <point x="91" y="57"/>
      <point x="91" y="56" type="curve" smooth="yes"/>
      <point x="91" y="55"/>
      <point x="92" y="53"/>
      <point x="94" y="53" type="curve" smooth="yes"/>
      <point x="95" y="53"/>
      <point x="96" y="55"/>
      <point x="96" y="56" type="curve" smooth="yes"/>
      <point x="96" y="57"/>
      <point x="95" y="59"/>
    </contour>
    <contour>
      <point x="47" y="-41" type="curve" smooth="yes"/>
      <point x="46" y="-41"/>
      <point x="46" y="-42"/>
      <point x="46" y="-42" type="curve" smooth="yes"/>
      <point x="46" y="-43"/>
      <point x="46" y="-43"/>
      <point x="47" y="-43" type="curve" smooth="yes"/>
      <point x="48" y="-43"/>
      <point x="48" y="-43"/>
      <point x="48" y="-42" type="curve" smooth="yes"/>
      <point x="48" y="-42"/>
      <point x="48" y="-41"/>
    </contour>
    <contour>
      <point x="47" y="9" type="curve" smooth="yes"/>
      <point x="46" y="9"/>
      <point x="45" y="8"/>
      <point x="45" y="7" type="curve" smooth="yes"/>
      <point x="45" y="6"/>
      <point x="46" y="5"/>
      <point x="47" y="5" type="curve" smooth="yes"/>
      <point x="48" y="5"/>
      <point x="49" y="6"/>
      <point x="49" y="7" type="curve" smooth="yes"/>
      <point x="49" y="8"/>
      <point x="48" y="9"/>
    </contour>
    <contour>
      <point x="47" y="59" type="curve" smooth="yes"/>
      <point x="46" y="59"/>
      <point x="44" y="57"/>
      <point x="44" y="56" type="curve" smooth="yes"/>
      <point x="44" y="55"/>
      <point x="46" y="53"/>
      <point x="47" y="53" type="curve" smooth="yes"/>
      <point x="48" y="53"/>
      <point x="50" y="55"/>
      <point x="50" y="56" type="curve" smooth="yes"/>
      <point x="50" y="57"/>
      <point x="48" y="59"/>
    </contour>
    <contour>
      <point x="469" y="-38" type="curve"/>
      <point x="352" y="11" type="line"/>
      <point x="376" y="20"/>
      <point x="399" y="32"/>
      <point x="420" y="47" type="curve"/>
      <point x="422" y="66" type="line"/>
      <point x="416" y="68" type="line"/>
      <point x="389" y="47"/>
      <point x="357" y="31"/>
      <point x="324" y="23" type="curve"/>
      <point x="105" y="115" type="line"/>
      <point x="88" y="151"/>
      <point x="79" y="197"/>
      <point x="79" y="251" type="curve" smooth="yes"/>
      <point x="79" y="405"/>
      <point x="148" y="489"/>
      <point x="277" y="489" type="curve" smooth="yes"/>
      <point x="325" y="489"/>
      <point x="372" y="473"/>
      <point x="409" y="445" type="curve"/>
      <point x="415" y="445" type="line"/>
      <point x="421" y="464" type="line"/>
      <point x="381" y="492"/>
      <point x="328" y="509"/>
      <point x="277" y="509" type="curve" smooth="yes"/>
      <point x="136" y="509"/>
      <point x="58" y="416"/>
      <point x="58" y="251" type="curve" smooth="yes"/>
      <point x="58" y="203"/>
      <point x="65" y="162"/>
      <point x="77" y="126" type="curve"/>
      <point x="2" y="158" type="line"/>
      <point x="0" y="159"/>
      <point x="-2" y="158"/>
      <point x="-3" y="156" type="curve" smooth="yes"/>
      <point x="-4" y="154"/>
      <point x="-3" y="151"/>
      <point x="-1" y="150" type="curve"/>
      <point x="466" y="-46" type="line"/>
      <point x="466" y="-46"/>
      <point x="467" y="-46"/>
      <point x="467" y="-46" type="curve" smooth="yes"/>
      <point x="469" y="-46"/>
      <point x="471" y="-45"/>
      <point x="471" y="-44" type="curve" smooth="yes"/>
      <point x="472" y="-42"/>
      <point x="471" y="-39"/>
    </contour>
  </outline>
</glyph>
<glyph name="c.1.3" format="1">
  <advance width="467"/>
  <outline>
    <contour>
      <point x="467" y="-41" type="curve" smooth="yes"/>
      <point x="467" y="-41"/>
      <point x="466" y="-42"/>
      <point x="466" y="-42" type="curve" smooth="yes"/>
      <point x="466" y="-43"/>
      <point x="467" y="-43"/>
      <point x="467" y="-43" type="curve" smooth="yes"/>
      <point x="468" y="-43"/>
      <point x="469" y="-43"/>
      <point x="469" y="-42" type="curve" smooth="yes"/>
      <point x="469" y="-42"/>
      <point x="468" y="-41"/>
    </contour>
    <contour>
      <point x="467" y="9" type="curve" smooth="yes"/>
      <point x="466" y="9"/>
      <point x="466" y="8"/>
      <point x="466" y="7" type="curve" smooth="yes"/>
      <point x="466" y="6"/>
      <point x="466" y="5"/>
      <point x="467" y="5" type="curve" smooth="yes"/>
      <point x="468" y="5"/>
      <point x="469" y="6"/>
      <point x="469" y="7" type="curve" smooth="yes"/>
      <point x="469" y="8"/>
      <point x="468" y="9"/>
    </contour>
    <contour>
      <point x="467" y="59" type="curve" smooth="yes"/>
      <point x="466" y="59"/>
      <point x="465" y="57"/>
      <point x="465" y="56" type="curve" smooth="yes"/>
      <point x="465" y="55"/>
      <point x="466" y="53"/>
      <point x="467" y="53" type="curve" smooth="yes"/>
      <point x="469" y="53"/>
      <point x="470" y="55"/>
      <point x="470" y="56" type="curve" smooth="yes"/>
      <point x="470" y="57"/>
      <point x="469" y="59"/>
    </contour>
    <contour>
      <point x="467" y="108" type="curve" smooth="yes"/>
      <point x="466" y="108"/>
      <point x="464" y="107"/>
      <point x="464" y="105" type="curve" smooth="yes"/>
      <point x="464" y="103"/>
      <point x="466" y="102"/>
      <point x="467" y="102" type="curve" smooth="yes"/>
      <point x="469" y="102"/>
      <point x="471" y="103"/>
      <point x="471" y="105" type="curve" smooth="yes"/>
      <point x="471" y="107"/>
      <point x="469" y="108"/>
    </contour>
    <contour>
      <point x="467" y="158" type="curve" smooth="yes"/>
      <point x="465" y="158"/>
      <point x="463" y="156"/>
      <point x="463" y="154" type="curve" smooth="yes"/>
      <point x="463" y="152"/>
      <point x="465" y="150"/>
      <point x="467" y="150" type="curve" smooth="yes"/>
      <point x="470" y="150"/>
      <point x="471" y="152"/>
      <point x="471" y="154" type="curve" smooth="yes"/>
      <point x="471" y="156"/>
      <point x="470" y="158"/>
    </contour>
    <contour>
      <point x="467" y="208" type="curve" smooth="yes"/>
      <point x="465" y="208"/>
      <point x="463" y="206"/>
      <point x="463" y="203" type="curve" smooth="yes"/>
      <point x="463" y="201"/>
      <point x="465" y="199"/>
      <point x="467" y="199" type="curve" smooth="yes"/>
      <point x="470" y="199"/>
      <point x="472" y="201"/>
      <point x="472" y="203" type="curve" smooth="yes"/>
      <point x="472" y="206"/>
      <point x="470" y="208"/>
    </contour>
    <contour>
      <point x="467" y="258" type="curve" smooth="yes"/>
      <point x="465" y="258"/>
      <point x="462" y="255"/>
      <point x="462" y="252" type="curve" smooth="yes"/>
      <point x="462" y="249"/>
      <point x="465" y="247"/>
      <point x="467" y="247" type="curve" smooth="yes"/>
      <point x="470" y="247"/>
      <point x="473" y="249"/>
      <point x="473" y="252" type="curve" smooth="yes"/>
      <point x="473" y="255"/>
      <point x="470" y="258"/>
    </contour>
    <contour>
      <point x="467" y="308" type="curve" smooth="yes"/>
      <point x="464" y="308"/>
      <point x="461" y="305"/>
      <point x="461" y="301" type="curve" smooth="yes"/>
      <point x="461" y="298"/>
      <point x="464" y="295"/>
      <point x="467" y="295" type="curve" smooth="yes"/>
      <point x="471" y="295"/>
      <point x="474" y="298"/>
      <point x="474" y="301" type="curve" smooth="yes"/>
      <point x="474" y="305"/>
      <point x="471" y="308"/>
    </contour>
    <contour>
      <point x="467" y="357" type="curve" smooth="yes"/>
      <point x="464" y="357"/>
      <point x="461" y="354"/>
      <point x="461" y="351" type="curve" smooth="yes"/>
      <point x="461" y="347"/>
      <point x="464" y="344"/>
      <point x="467" y="344" type="curve" smooth="yes"/>
      <point x="471" y="344"/>
      <point x="474" y="347"/>
      <point x="474" y="351" type="curve" smooth="yes"/>
      <point x="474" y="354"/>
      <point x="471" y="357"/>
    </contour>
    <contour>
      <point x="467" y="407" type="curve" smooth="yes"/>
      <point x="463" y="407"/>
      <point x="460" y="404"/>
      <point x="460" y="400" type="curve" smooth="yes"/>
      <point x="460" y="396"/>
      <point x="463" y="392"/>
      <point x="467" y="392" type="curve" smooth="yes"/>
      <point x="472" y="392"/>
      <point x="475" y="396"/>
      <point x="475" y="400" type="curve" smooth="yes"/>
      <point x="475" y="404"/>
      <point x="472" y="407"/>
    </contour>
    <contour>
      <point x="467" y="457" type="curve" smooth="yes"/>
      <point x="463" y="457"/>
      <point x="459" y="453"/>
      <point x="459" y="449" type="curve" smooth="yes"/>
      <point x="459" y="444"/>
      <point x="463" y="440"/>
      <point x="467" y="440" type="curve" smooth="yes"/>
      <point x="472" y="440"/>
      <point x="476" y="444"/>
      <point x="476" y="449" type="curve" smooth="yes"/>
      <point x="476" y="453"/>
      <point x="472" y="457"/>
    </contour>
    <contour>
      <point x="467" y="507" type="curve" smooth="yes"/>
      <point x="462" y="507"/>
      <point x="458" y="503"/>
      <point x="458" y="498" type="curve" smooth="yes"/>
      <point x="458" y="493"/>
      <point x="462" y="489"/>
      <point x="467" y="489" type="curve" smooth="yes"/>
      <point x="472" y="489"/>
      <point x="476" y="493"/>
      <point x="476" y="498" type="curve" smooth="yes"/>
      <point x="476" y="503"/>
      <point x="472" y="507"/>
    </contour>
    <contour>
      <point x="421" y="-41" type="curve" smooth="yes"/>
      <point x="420" y="-41"/>
      <point x="420" y="-42"/>
      <point x="420" y="-42" type="curve" smooth="yes"/>
      <point x="420" y="-43"/>
      <point x="420" y="-43"/>
      <point x="421" y="-43" type="curve" smooth="yes"/>
      <point x="421" y="-43"/>
      <point x="422" y="-43"/>
      <point x="422" y="-42" type="curve" smooth="yes"/>
      <point x="422" y="-42"/>
      <point x="421" y="-41"/>
    </contour>
    <contour>
      <point x="421" y="9" type="curve" smooth="yes"/>
      <point x="420" y="9"/>
      <point x="419" y="8"/>
      <point x="419" y="7" type="curve" smooth="yes"/>
      <point x="419" y="6"/>
      <point x="420" y="5"/>
      <point x="421" y="5" type="curve" smooth="yes"/>
      <point x="422" y="5"/>
      <point x="423" y="6"/>
      <point x="423" y="7" type="curve" smooth="yes"/>
      <point x="423" y="8"/>
      <point x="422" y="9"/>
    </contour>
    <contour>
      <point x="421" y="108" type="curve" smooth="yes"/>
      <point x="419" y="108"/>
      <point x="417" y="107"/>
      <point x="417" y="105" type="curve" smooth="yes"/>
      <point x="417" y="103"/>
      <point x="419" y="102"/>
      <point x="421" y="102" type="curve" smooth="yes"/>
      <point x="423" y="102"/>
      <point x="424" y="103"/>
      <point x="424" y="105" type="curve" smooth="yes"/>
      <point x="424" y="107"/>
      <point x="423" y="108"/>
    </contour>
    <contour>
      <point x="421" y="158" type="curve" smooth="yes"/>
      <point x="419" y="158"/>
      <point x="417" y="156"/>
      <point x="417" y="154" type="curve" smooth="yes"/>
      <point x="417" y="152"/>
      <point x="419" y="150"/>
      <point x="421" y="150" type="curve" smooth="yes"/>
      <point x="423" y="150"/>
      <point x="425" y="152"/>
      <point x="425" y="154" type="curve" smooth="yes"/>
      <point x="425" y="156"/>
      <point x="423" y="158"/>
    </contour>
    <contour>
      <point x="421" y="208" type="curve" smooth="yes"/>
      <point x="418" y="208"/>
      <point x="416" y="206"/>
      <point x="416" y="203" type="curve" smooth="yes"/>
      <point x="416" y="201"/>
      <point x="418" y="199"/>
      <point x="421" y="199" type="curve" smooth="yes"/>
      <point x="423" y="199"/>
      <point x="425" y="201"/>
      <point x="425" y="203" type="curve" smooth="yes"/>
      <point x="425" y="206"/>
      <point x="423" y="208"/>
    </contour>
    <contour>
      <point x="421" y="258" type="curve" smooth="yes"/>
      <point x="418" y="258"/>
      <point x="415" y="255"/>
      <point x="415" y="252" type="curve" smooth="yes"/>
      <point x="415" y="249"/>
      <point x="418" y="247"/>
      <point x="421" y="247" type="curve" smooth="yes"/>
      <point x="424" y="247"/>
      <point x="426" y="249"/>
      <point x="426" y="252" type="curve" smooth="yes"/>
      <point x="426" y="255"/>
      <point x="424" y="258"/>
    </contour>
    <contour>
      <point x="421" y="308" type="curve" smooth="yes"/>
      <point x="417" y="308"/>
      <point x="415" y="305"/>
      <point x="415" y="301" type="curve" smooth="yes"/>
      <point x="415" y="298"/>
      <point x="417" y="295"/>
      <point x="421" y="295" type="curve" smooth="yes"/>
      <point x="424" y="295"/>
      <point x="427" y="298"/>
      <point x="427" y="301" type="curve" smooth="yes"/>
      <point x="427" y="305"/>
      <point x="424" y="308"/>
    </contour>
    <contour>
      <point x="421" y="357" type="curve" smooth="yes"/>
      <point x="417" y="357"/>
      <point x="414" y="354"/>
      <point x="414" y="351" type="curve" smooth="yes"/>
      <point x="414" y="347"/>
      <point x="417" y="344"/>
      <point x="421" y="344" type="curve" smooth="yes"/>
      <point x="424" y="344"/>
      <point x="427" y="347"/>
      <point x="427" y="351" type="curve" smooth="yes"/>
      <point x="427" y="354"/>
      <point x="424" y="357"/>
    </contour>
    <contour>
      <point x="421" y="407" type="curve" smooth="yes"/>
      <point x="417" y="407"/>
      <point x="413" y="404"/>
      <point x="413" y="400" type="curve" smooth="yes"/>
      <point x="413" y="396"/>
      <point x="417" y="392"/>
      <point x="421" y="392" type="curve" smooth="yes"/>
      <point x="425" y="392"/>
      <point x="428" y="396"/>
      <point x="428" y="400" type="curve" smooth="yes"/>
      <point x="428" y="404"/>
      <point x="425" y="407"/>
    </contour>
    <contour>
      <point x="421" y="457" type="curve" smooth="yes"/>
      <point x="416" y="457"/>
      <point x="412" y="453"/>
      <point x="412" y="449" type="curve" smooth="yes"/>
      <point x="412" y="444"/>
      <point x="416" y="440"/>
      <point x="421" y="440" type="curve" smooth="yes"/>
      <point x="425" y="440"/>
      <point x="429" y="444"/>
      <point x="429" y="449" type="curve" smooth="yes"/>
      <point x="429" y="453"/>
      <point x="425" y="457"/>
    </contour>
    <contour>
      <point x="374" y="-41" type="curve" smooth="yes"/>
      <point x="373" y="-41"/>
      <point x="373" y="-42"/>
      <point x="373" y="-42" type="curve" smooth="yes"/>
      <point x="373" y="-43"/>
      <point x="373" y="-43"/>
      <point x="374" y="-43" type="curve" smooth="yes"/>
      <point x="375" y="-43"/>
      <point x="375" y="-43"/>
      <point x="375" y="-42" type="curve" smooth="yes"/>
      <point x="375" y="-42"/>
      <point x="375" y="-41"/>
    </contour>
    <contour>
      <point x="374" y="108" type="curve" smooth="yes"/>
      <point x="372" y="108"/>
      <point x="371" y="107"/>
      <point x="371" y="105" type="curve" smooth="yes"/>
      <point x="371" y="103"/>
      <point x="372" y="102"/>
      <point x="374" y="102" type="curve" smooth="yes"/>
      <point x="376" y="102"/>
      <point x="377" y="103"/>
      <point x="377" y="105" type="curve" smooth="yes"/>
      <point x="377" y="107"/>
      <point x="376" y="108"/>
    </contour>
    <contour>
      <point x="374" y="158" type="curve" smooth="yes"/>
      <point x="372" y="158"/>
      <point x="370" y="156"/>
      <point x="370" y="154" type="curve" smooth="yes"/>
      <point x="370" y="152"/>
      <point x="372" y="150"/>
      <point x="374" y="150" type="curve" smooth="yes"/>
      <point x="376" y="150"/>
      <point x="378" y="152"/>
      <point x="378" y="154" type="curve" smooth="yes"/>
      <point x="378" y="156"/>
      <point x="376" y="158"/>
    </contour>
    <contour>
      <point x="374" y="208" type="curve" smooth="yes"/>
      <point x="371" y="208"/>
      <point x="369" y="206"/>
      <point x="369" y="203" type="curve" smooth="yes"/>
      <point x="369" y="201"/>
      <point x="371" y="199"/>
      <point x="374" y="199" type="curve" smooth="yes"/>
      <point x="377" y="199"/>
      <point x="379" y="201"/>
      <point x="379" y="203" type="curve" smooth="yes"/>
      <point x="379" y="206"/>
      <point x="377" y="208"/>
    </contour>
    <contour>
      <point x="374" y="258" type="curve" smooth="yes"/>
      <point x="371" y="258"/>
      <point x="369" y="255"/>
      <point x="369" y="252" type="curve" smooth="yes"/>
      <point x="369" y="249"/>
      <point x="371" y="247"/>
      <point x="374" y="247" type="curve" smooth="yes"/>
      <point x="377" y="247"/>
      <point x="379" y="249"/>
      <point x="379" y="252" type="curve" smooth="yes"/>
      <point x="379" y="255"/>
      <point x="377" y="258"/>
    </contour>
    <contour>
      <point x="374" y="308" type="curve" smooth="yes"/>
      <point x="371" y="308"/>
      <point x="368" y="305"/>
      <point x="368" y="301" type="curve" smooth="yes"/>
      <point x="368" y="298"/>
      <point x="371" y="295"/>
      <point x="374" y="295" type="curve" smooth="yes"/>
      <point x="377" y="295"/>
      <point x="380" y="298"/>
      <point x="380" y="301" type="curve" smooth="yes"/>
      <point x="380" y="305"/>
      <point x="377" y="308"/>
    </contour>
    <contour>
      <point x="374" y="357" type="curve" smooth="yes"/>
      <point x="370" y="357"/>
      <point x="367" y="354"/>
      <point x="367" y="351" type="curve" smooth="yes"/>
      <point x="367" y="347"/>
      <point x="370" y="344"/>
      <point x="374" y="344" type="curve" smooth="yes"/>
      <point x="378" y="344"/>
      <point x="381" y="347"/>
      <point x="381" y="351" type="curve" smooth="yes"/>
      <point x="381" y="354"/>
      <point x="378" y="357"/>
    </contour>
    <contour>
      <point x="374" y="407" type="curve" smooth="yes"/>
      <point x="370" y="407"/>
      <point x="366" y="404"/>
      <point x="366" y="400" type="curve" smooth="yes"/>
      <point x="366" y="396"/>
      <point x="370" y="392"/>
      <point x="374" y="392" type="curve" smooth="yes"/>
      <point x="378" y="392"/>
      <point x="382" y="396"/>
      <point x="382" y="400" type="curve" smooth="yes"/>
      <point x="382" y="404"/>
      <point x="378" y="407"/>
    </contour>
    <contour>
      <point x="327" y="-41" type="curve" smooth="yes"/>
      <point x="327" y="-41"/>
      <point x="326" y="-42"/>
      <point x="326" y="-42" type="curve" smooth="yes"/>
      <point x="326" y="-43"/>
      <point x="327" y="-43"/>
      <point x="327" y="-43" type="curve" smooth="yes"/>
      <point x="328" y="-43"/>
      <point x="328" y="-43"/>
      <point x="328" y="-42" type="curve" smooth="yes"/>
      <point x="328" y="-42"/>
      <point x="328" y="-41"/>
    </contour>
    <contour>
      <point x="327" y="59" type="curve" smooth="yes"/>
      <point x="326" y="59"/>
      <point x="325" y="57"/>
      <point x="325" y="56" type="curve" smooth="yes"/>
      <point x="325" y="55"/>
      <point x="326" y="53"/>
      <point x="327" y="53" type="curve" smooth="yes"/>
      <point x="329" y="53"/>
      <point x="330" y="55"/>
      <point x="330" y="56" type="curve" smooth="yes"/>
      <point x="330" y="57"/>
      <point x="329" y="59"/>
    </contour>
    <contour>
      <point x="327" y="108" type="curve" smooth="yes"/>
      <point x="325" y="108"/>
      <point x="324" y="107"/>
      <point x="324" y="105" type="curve" smooth="yes"/>
      <point x="324" y="103"/>
      <point x="325" y="102"/>
      <point x="327" y="102" type="curve" smooth="yes"/>
      <point x="329" y="102"/>
      <point x="331" y="103"/>
      <point x="331" y="105" type="curve" smooth="yes"/>
      <point x="331" y="107"/>
      <point x="329" y="108"/>
    </contour>
    <contour>
      <point x="327" y="158" type="curve" smooth="yes"/>
      <point x="325" y="158"/>
      <point x="323" y="156"/>
      <point x="323" y="154" type="curve" smooth="yes"/>
      <point x="323" y="152"/>
      <point x="325" y="150"/>
      <point x="327" y="150" type="curve" smooth="yes"/>
      <point x="330" y="150"/>
      <point x="331" y="152"/>
      <point x="331" y="154" type="curve" smooth="yes"/>
      <point x="331" y="156"/>
      <point x="330" y="158"/>
    </contour>
    <contour>
      <point x="327" y="208" type="curve" smooth="yes"/>
      <point x="325" y="208"/>
      <point x="323" y="206"/>
      <point x="323" y="203" type="curve" smooth="yes"/>
      <point x="323" y="201"/>
      <point x="325" y="199"/>
      <point x="327" y="199" type="curve" smooth="yes"/>
      <point x="330" y="199"/>
      <point x="332" y="201"/>
      <point x="332" y="203" type="curve" smooth="yes"/>
      <point x="332" y="206"/>
      <point x="330" y="208"/>
    </contour>
    <contour>
      <point x="327" y="258" type="curve" smooth="yes"/>
      <point x="324" y="258"/>
      <point x="322" y="255"/>
      <point x="322" y="252" type="curve" smooth="yes"/>
      <point x="322" y="249"/>
      <point x="324" y="247"/>
      <point x="327" y="247" type="curve" smooth="yes"/>
      <point x="330" y="247"/>
      <point x="333" y="249"/>
      <point x="333" y="252" type="curve" smooth="yes"/>
      <point x="333" y="255"/>
      <point x="330" y="258"/>
    </contour>
    <contour>
      <point x="327" y="308" type="curve" smooth="yes"/>
      <point x="324" y="308"/>
      <point x="321" y="305"/>
      <point x="321" y="301" type="curve" smooth="yes"/>
      <point x="321" y="298"/>
      <point x="324" y="295"/>
      <point x="327" y="295" type="curve" smooth="yes"/>
      <point x="331" y="295"/>
      <point x="333" y="298"/>
      <point x="333" y="301" type="curve" smooth="yes"/>
      <point x="333" y="305"/>
      <point x="331" y="308"/>
    </contour>
    <contour>
      <point x="327" y="357" type="curve" smooth="yes"/>
      <point x="324" y="357"/>
      <point x="321" y="354"/>
      <point x="321" y="351" type="curve" smooth="yes"/>
      <point x="321" y="347"/>
      <point x="324" y="344"/>
      <point x="327" y="344" type="curve" smooth="yes"/>
      <point x="331" y="344"/>
      <point x="334" y="347"/>
      <point x="334" y="351" type="curve" smooth="yes"/>
      <point x="334" y="354"/>
      <point x="331" y="357"/>
    </contour>
    <contour>
      <point x="281" y="-41" type="curve" smooth="yes"/>
      <point x="280" y="-41"/>
      <point x="279" y="-42"/>
      <point x="279" y="-42" type="curve" smooth="yes"/>
      <point x="279" y="-43"/>
      <point x="280" y="-43"/>
      <point x="281" y="-43" type="curve" smooth="yes"/>
      <point x="281" y="-43"/>
      <point x="282" y="-43"/>
      <point x="282" y="-42" type="curve" smooth="yes"/>
      <point x="282" y="-42"/>
      <point x="281" y="-41"/>
    </contour>
    <contour>
      <point x="281" y="59" type="curve" smooth="yes"/>
      <point x="279" y="59"/>
      <point x="278" y="57"/>
      <point x="278" y="56" type="curve" smooth="yes"/>
      <point x="278" y="55"/>
      <point x="279" y="53"/>
      <point x="281" y="53" type="curve" smooth="yes"/>
      <point x="282" y="53"/>
      <point x="283" y="55"/>
      <point x="283" y="56" type="curve" smooth="yes"/>
      <point x="283" y="57"/>
      <point x="282" y="59"/>
    </contour>
    <contour>
      <point x="281" y="108" type="curve" smooth="yes"/>
      <point x="279" y="108"/>
      <point x="277" y="107"/>
      <point x="277" y="105" type="curve" smooth="yes"/>
      <point x="277" y="103"/>
      <point x="279" y="102"/>
      <point x="281" y="102" type="curve" smooth="yes"/>
      <point x="282" y="102"/>
      <point x="284" y="103"/>
      <point x="284" y="105" type="curve" smooth="yes"/>
      <point x="284" y="107"/>
      <point x="282" y="108"/>
    </contour>
    <contour>
      <point x="281" y="158" type="curve" smooth="yes"/>
      <point x="278" y="158"/>
      <point x="277" y="156"/>
      <point x="277" y="154" type="curve" smooth="yes"/>
      <point x="277" y="152"/>
      <point x="278" y="150"/>
      <point x="281" y="150" type="curve" smooth="yes"/>
      <point x="283" y="150"/>
      <point x="285" y="152"/>
      <point x="285" y="154" type="curve" smooth="yes"/>
      <point x="285" y="156"/>
      <point x="283" y="158"/>
    </contour>
    <contour>
      <point x="281" y="208" type="curve" smooth="yes"/>
      <point x="278" y="208"/>
      <point x="276" y="206"/>
      <point x="276" y="203" type="curve" smooth="yes"/>
      <point x="276" y="201"/>
      <point x="278" y="199"/>
      <point x="281" y="199" type="curve" smooth="yes"/>
      <point x="283" y="199"/>
      <point x="285" y="201"/>
      <point x="285" y="203" type="curve" smooth="yes"/>
      <point x="285" y="206"/>
      <point x="283" y="208"/>
    </contour>
    <contour>
      <point x="281" y="258" type="curve" smooth="yes"/>
      <point x="278" y="258"/>
      <point x="275" y="255"/>
      <point x="275" y="252" type="curve" smooth="yes"/>
      <point x="275" y="249"/>
      <point x="278" y="247"/>
      <point x="281" y="247" type="curve" smooth="yes"/>
      <point x="284" y="247"/>
      <point x="286" y="249"/>
      <point x="286" y="252" type="curve" smooth="yes"/>
      <point x="286" y="255"/>
      <point x="284" y="258"/>
    </contour>
    <contour>
      <point x="281" y="308" type="curve" smooth="yes"/>
      <point x="277" y="308"/>
      <point x="274" y="305"/>
      <point x="274" y="301" type="curve" smooth="yes"/>
      <point x="274" y="298"/>
      <point x="277" y="295"/>
      <point x="281" y="295" type="curve" smooth="yes"/>
      <point x="284" y="295"/>
      <point x="287" y="298"/>
      <point x="287" y="301" type="curve" smooth="yes"/>
      <point x="287" y="305"/>
      <point x="284" y="308"/>
    </contour>
    <contour>
      <point x="281" y="357" type="curve" smooth="yes"/>
      <point x="277" y="357"/>
      <point x="274" y="354"/>
      <point x="274" y="351" type="curve" smooth="yes"/>
      <point x="274" y="347"/>
      <point x="277" y="344"/>
      <point x="281" y="344" type="curve" smooth="yes"/>
      <point x="284" y="344"/>
      <point x="287" y="347"/>
      <point x="287" y="351" type="curve" smooth="yes"/>
      <point x="287" y="354"/>
      <point x="284" y="357"/>
    </contour>
    <contour>
      <point x="234" y="-41" type="curve" smooth="yes"/>
      <point x="233" y="-41"/>
      <point x="233" y="-42"/>
      <point x="233" y="-42" type="curve" smooth="yes"/>
      <point x="233" y="-43"/>
      <point x="233" y="-43"/>
      <point x="234" y="-43" type="curve" smooth="yes"/>
      <point x="234" y="-43"/>
      <point x="235" y="-43"/>
      <point x="235" y="-42" type="curve" smooth="yes"/>
      <point x="235" y="-42"/>
      <point x="234" y="-41"/>
    </contour>
    <contour>
      <point x="234" y="59" type="curve" smooth="yes"/>
      <point x="232" y="59"/>
      <point x="231" y="57"/>
      <point x="231" y="56" type="curve" smooth="yes"/>
      <point x="231" y="55"/>
      <point x="232" y="53"/>
      <point x="234" y="53" type="curve" smooth="yes"/>
      <point x="235" y="53"/>
      <point x="236" y="55"/>
      <point x="236" y="56" type="curve" smooth="yes"/>
      <point x="236" y="57"/>
      <point x="235" y="59"/>
    </contour>
    <contour>
      <point x="234" y="108" type="curve" smooth="yes"/>
      <point x="232" y="108"/>
      <point x="231" y="107"/>
      <point x="231" y="105" type="curve" smooth="yes"/>
      <point x="231" y="103"/>
      <point x="232" y="102"/>
      <point x="234" y="102" type="curve" smooth="yes"/>
      <point x="236" y="102"/>
      <point x="237" y="103"/>
      <point x="237" y="105" type="curve" smooth="yes"/>
      <point x="237" y="107"/>
      <point x="236" y="108"/>
    </contour>
    <contour>
      <point x="234" y="158" type="curve" smooth="yes"/>
      <point x="232" y="158"/>
      <point x="230" y="156"/>
      <point x="230" y="154" type="curve" smooth="yes"/>
      <point x="230" y="152"/>
      <point x="232" y="150"/>
      <point x="234" y="150" type="curve" smooth="yes"/>
      <point x="236" y="150"/>
      <point x="238" y="152"/>
      <point x="238" y="154" type="curve" smooth="yes"/>
      <point x="238" y="156"/>
      <point x="236" y="158"/>
    </contour>
    <contour>
      <point x="234" y="208" type="curve" smooth="yes"/>
      <point x="231" y="208"/>
      <point x="229" y="206"/>
      <point x="229" y="203" type="curve" smooth="yes"/>
      <point x="229" y="201"/>
      <point x="231" y="199"/>
      <point x="234" y="199" type="curve" smooth="yes"/>
      <point x="236" y="199"/>
      <point x="239" y="201"/>
      <point x="239" y="203" type="curve" smooth="yes"/>
      <point x="239" y="206"/>
      <point x="236" y="208"/>
    </contour>
    <contour>
      <point x="234" y="258" type="curve" smooth="yes"/>
      <point x="231" y="258"/>
      <point x="229" y="255"/>
      <point x="229" y="252" type="curve" smooth="yes"/>
      <point x="229" y="249"/>
      <point x="231" y="247"/>
      <point x="234" y="247" type="curve" smooth="yes"/>
      <point x="237" y="247"/>
      <point x="239" y="249"/>
      <point x="239" y="252" type="curve" smooth="yes"/>
      <point x="239" y="255"/>
      <point x="237" y="258"/>
    </contour>
    <contour>
      <point x="234" y="308" type="curve" smooth="yes"/>
      <point x="230" y="308"/>
      <point x="228" y="305"/>
      <point x="228" y="301" type="curve" smooth="yes"/>
      <point x="228" y="298"/>
      <point x="230" y="295"/>
      <point x="234" y="295" type="curve" smooth="yes"/>
      <point x="237" y="295"/>
      <point x="240" y="298"/>
      <point x="240" y="301" type="curve" smooth="yes"/>
      <point x="240" y="305"/>
      <point x="237" y="308"/>
    </contour>
    <contour>
      <point x="187" y="-41" type="curve" smooth="yes"/>
      <point x="187" y="-41"/>
      <point x="186" y="-42"/>
      <point x="186" y="-42" type="curve" smooth="yes"/>
      <point x="186" y="-43"/>
      <point x="187" y="-43"/>
      <point x="187" y="-43" type="curve" smooth="yes"/>
      <point x="188" y="-43"/>
      <point x="188" y="-43"/>
      <point x="188" y="-42" type="curve" smooth="yes"/>
      <point x="188" y="-42"/>
      <point x="188" y="-41"/>
    </contour>
    <contour>
      <point x="187" y="59" type="curve" smooth="yes"/>
      <point x="186" y="59"/>
      <point x="185" y="57"/>
      <point x="185" y="56" type="curve" smooth="yes"/>
      <point x="185" y="55"/>
      <point x="186" y="53"/>
      <point x="187" y="53" type="curve" smooth="yes"/>
      <point x="189" y="53"/>
      <point x="190" y="55"/>
      <point x="190" y="56" type="curve" smooth="yes"/>
      <point x="190" y="57"/>
      <point x="189" y="59"/>
    </contour>
    <contour>
      <point x="187" y="108" type="curve" smooth="yes"/>
      <point x="185" y="108"/>
      <point x="184" y="107"/>
      <point x="184" y="105" type="curve" smooth="yes"/>
      <point x="184" y="103"/>
      <point x="185" y="102"/>
      <point x="187" y="102" type="curve" smooth="yes"/>
      <point x="189" y="102"/>
      <point x="190" y="103"/>
      <point x="190" y="105" type="curve" smooth="yes"/>
      <point x="190" y="107"/>
      <point x="189" y="108"/>
    </contour>
    <contour>
      <point x="187" y="158" type="curve" smooth="yes"/>
      <point x="185" y="158"/>
      <point x="183" y="156"/>
      <point x="183" y="154" type="curve" smooth="yes"/>
      <point x="183" y="152"/>
      <point x="185" y="150"/>
      <point x="187" y="150" type="curve" smooth="yes"/>
      <point x="189" y="150"/>
      <point x="191" y="152"/>
      <point x="191" y="154" type="curve" smooth="yes"/>
      <point x="191" y="156"/>
      <point x="189" y="158"/>
    </contour>
    <contour>
      <point x="187" y="208" type="curve" smooth="yes"/>
      <point x="185" y="208"/>
      <point x="182" y="206"/>
      <point x="182" y="203" type="curve" smooth="yes"/>
      <point x="182" y="201"/>
      <point x="185" y="199"/>
      <point x="187" y="199" type="curve" smooth="yes"/>
      <point x="190" y="199"/>
      <point x="192" y="201"/>
      <point x="192" y="203" type="curve" smooth="yes"/>
      <point x="192" y="206"/>
      <point x="190" y="208"/>
    </contour>
    <contour>
      <point x="187" y="258" type="curve" smooth="yes"/>
      <point x="184" y="258"/>
      <point x="182" y="255"/>
      <point x="182" y="252" type="curve" smooth="yes"/>
      <point x="182" y="249"/>
      <point x="184" y="247"/>
      <point x="187" y="247" type="curve" smooth="yes"/>
      <point x="190" y="247"/>
      <point x="192" y="249"/>
      <point x="192" y="252" type="curve" smooth="yes"/>
      <point x="192" y="255"/>
      <point x="190" y="258"/>
    </contour>
    <contour>
      <point x="140" y="-41" type="curve" smooth="yes"/>
      <point x="140" y="-41"/>
      <point x="139" y="-42"/>
      <point x="139" y="-42" type="curve" smooth="yes"/>
      <point x="139" y="-43"/>
      <point x="140" y="-43"/>
      <point x="140" y="-43" type="curve" smooth="yes"/>
      <point x="141" y="-43"/>
      <point x="142" y="-43"/>
      <point x="142" y="-42" type="curve" smooth="yes"/>
      <point x="142" y="-42"/>
      <point x="141" y="-41"/>
    </contour>
    <contour>
      <point x="140" y="9" type="curve" smooth="yes"/>
      <point x="139" y="9"/>
      <point x="139" y="8"/>
      <point x="139" y="7" type="curve" smooth="yes"/>
      <point x="139" y="6"/>
      <point x="139" y="5"/>
      <point x="140" y="5" type="curve" smooth="yes"/>
      <point x="141" y="5"/>
      <point x="142" y="6"/>
      <point x="142" y="7" type="curve" smooth="yes"/>
      <point x="142" y="8"/>
      <point x="141" y="9"/>
    </contour>
    <contour>
      <point x="140" y="108" type="curve" smooth="yes"/>
      <point x="139" y="108"/>
      <point x="137" y="107"/>
      <point x="137" y="105" type="curve" smooth="yes"/>
      <point x="137" y="103"/>
      <point x="139" y="102"/>
      <point x="140" y="102" type="curve" smooth="yes"/>
      <point x="142" y="102"/>
      <point x="144" y="103"/>
      <point x="144" y="105" type="curve" smooth="yes"/>
      <point x="144" y="107"/>
      <point x="142" y="108"/>
    </contour>
    <contour>
      <point x="140" y="158" type="curve" smooth="yes"/>
      <point x="138" y="158"/>
      <point x="136" y="156"/>
      <point x="136" y="154" type="curve" smooth="yes"/>
      <point x="136" y="152"/>
      <point x="138" y="150"/>
      <point x="140" y="150" type="curve" smooth="yes"/>
      <point x="143" y="150"/>
      <point x="144" y="152"/>
      <point x="144" y="154" type="curve" smooth="yes"/>
      <point x="144" y="156"/>
      <point x="143" y="158"/>
    </contour>
    <contour>
      <point x="140" y="208" type="curve" smooth="yes"/>
      <point x="138" y="208"/>
      <point x="136" y="206"/>
      <point x="136" y="203" type="curve" smooth="yes"/>
      <point x="136" y="201"/>
      <point x="138" y="199"/>
      <point x="140" y="199" type="curve" smooth="yes"/>
      <point x="143" y="199"/>
      <point x="145" y="201"/>
      <point x="145" y="203" type="curve" smooth="yes"/>
      <point x="145" y="206"/>
      <point x="143" y="208"/>
    </contour>
    <contour>
      <point x="94" y="-41" type="curve" smooth="yes"/>
      <point x="93" y="-41"/>
      <point x="93" y="-42"/>
      <point x="93" y="-42" type="curve" smooth="yes"/>
      <point x="93" y="-43"/>
      <point x="93" y="-43"/>
      <point x="94" y="-43" type="curve" smooth="yes"/>
      <point x="94" y="-43"/>
      <point x="95" y="-43"/>
      <point x="95" y="-42" type="curve" smooth="yes"/>
      <point x="95" y="-42"/>
      <point x="94" y="-41"/>
    </contour>
    <contour>
      <point x="94" y="9" type="curve" smooth="yes"/>
      <point x="93" y="9"/>
      <point x="92" y="8"/>
      <point x="92" y="7" type="curve" smooth="yes"/>
      <point x="92" y="6"/>
      <point x="93" y="5"/>
      <point x="94" y="5" type="curve" smooth="yes"/>
      <point x="95" y="5"/>
      <point x="95" y="6"/>
      <point x="95" y="7" type="curve" smooth="yes"/>
      <point x="95" y="8"/>
      <point x="95" y="9"/>
    </contour>
    <contour>
      <point x="47" y="-41" type="curve" smooth="yes"/>
      <point x="46" y="-41"/>
      <point x="46" y="-42"/>
      <point x="46" y="-42" type="curve" smooth="yes"/>
      <point x="46" y="-43"/>
      <point x="46" y="-43"/>
      <point x="47" y="-43" type="curve" smooth="yes"/>
      <point x="48" y="-43"/>
      <point x="48" y="-43"/>
      <point x="48" y="-42" type="curve" smooth="yes"/>
      <point x="48" y="-42"/>
      <point x="48" y="-41"/>
    </contour>
    <contour>
      <point x="47" y="9" type="curve" smooth="yes"/>
      <point x="46" y="9"/>
      <point x="45" y="8"/>
      <point x="45" y="7" type="curve" smooth="yes"/>
      <point x="45" y="6"/>
      <point x="46" y="5"/>
      <point x="47" y="5" type="curve" smooth="yes"/>
      <point x="48" y="5"/>
      <point x="49" y="6"/>
      <point x="49" y="7" type="curve" smooth="yes"/>
      <point x="49" y="8"/>
      <point x="48" y="9"/>
    </contour>
    <contour>
      <point x="47" y="59" type="curve" smooth="yes"/>
      <point x="46" y="59"/>
      <point x="44" y="57"/>
      <point x="44" y="56" type="curve" smooth="yes"/>
      <point x="44" y="55"/>
      <point x="46" y="53"/>
      <point x="47" y="53" type="curve" smooth="yes"/>
      <point x="48" y="53"/>
      <point x="50" y="55"/>
      <point x="50" y="56" type="curve" smooth="yes"/>
      <point x="50" y="57"/>
      <point x="48" y="59"/>
    </contour>
    <contour>
      <point x="47" y="108" type="curve" smooth="yes"/>
      <point x="45" y="108"/>
      <point x="44" y="107"/>
      <point x="44" y="105" type="curve" smooth="yes"/>
      <point x="44" y="103"/>
      <point x="45" y="102"/>
      <point x="47" y="102" type="curve" smooth="yes"/>
      <point x="49" y="102"/>
      <point x="50" y="103"/>
      <point x="50" y="105" type="curve" smooth="yes"/>
      <point x="50" y="107"/>
      <point x="49" y="108"/>
    </contour>
    <contour>
      <point x="267" y="15" type="curve" smooth="yes"/>
      <point x="167" y="15"/>
      <point x="104" y="73"/>
      <point x="85" y="180" type="curve"/>
      <point x="67" y="164" type="line"/>
      <point x="90" y="55"/>
      <point x="159" y="-4"/>
      <point x="268" y="-4" type="curve" smooth="yes"/>
      <point x="319" y="-4"/>
      <point x="374" y="14"/>
      <point x="420" y="47" type="curve"/>
      <point x="422" y="66" type="line"/>
      <point x="416" y="68" type="line"/>
      <point x="373" y="35"/>
      <point x="319" y="15"/>
    </contour>
    <contour>
      <point x="471" y="550" type="curve" smooth="yes"/>
      <point x="469" y="551"/>
      <point x="467" y="552"/>
      <point x="465" y="550" type="curve"/>
      <point x="386" y="484" type="line"/>
      <point x="353" y="500"/>
      <point x="315" y="509"/>
      <point x="277" y="509" type="curve" smooth="yes"/>
      <point x="136" y="509"/>
      <point x="58" y="416"/>
      <point x="58" y="251" type="curve" smooth="yes"/>
      <point x="58" y="237"/>
      <point x="59" y="223"/>
      <point x="60" y="210" type="curve"/>
      <point x="-2" y="157" type="line"/>
      <point x="-4" y="156"/>
      <point x="-4" y="153"/>
      <point x="-3" y="152" type="curve" smooth="yes"/>
      <point x="-2" y="151"/>
      <point x="-1" y="150"/>
      <point x="0" y="150" type="curve" smooth="yes"/>
      <point x="1" y="150"/>
      <point x="2" y="150"/>
      <point x="3" y="151" type="curve"/>
      <point x="470" y="544" type="line"/>
      <point x="472" y="545"/>
      <point x="472" y="548"/>
    </contour>
    <contour>
      <point x="79" y="251" type="curve" smooth="yes"/>
      <point x="79" y="405"/>
      <point x="148" y="489"/>
      <point x="277" y="489" type="curve" smooth="yes"/>
      <point x="309" y="489"/>
      <point x="340" y="482"/>
      <point x="369" y="469" type="curve"/>
      <point x="80" y="227" type="line"/>
      <point x="80" y="235"/>
      <point x="79" y="243"/>
    </contour>
  </outline>
</glyph>
<glyph name="c.3.1" format="1">
  <advance width="467"/>
  <outline>
    <contour>
      <point x="467" y="-41" type="curve" smooth="yes"/>
      <point x="467" y="-41"/>
      <point x="466" y="-42"/>
      <point x="466" y="-42" type="curve" smooth="yes"/>
      <point x="466" y="-43"/>
      <point x="467" y="-43"/>
      <point x="467" y="-43" type="curve" smooth="yes"/>
      <point x="468" y="-43"/>
      <point x="469" y="-43"/>
      <point x="469" y="-42" type="curve" smooth="yes"/>
      <point x="469" y="-42"/>
      <point x="468" y="-41"/>
    </contour>
    <contour>
      <point x="467" y="9" type="curve" smooth="yes"/>
      <point x="466" y="9"/>
      <point x="466" y="8"/>
      <point x="466" y="7" type="curve" smooth="yes"/>
      <point x="466" y="6"/>
      <point x="466" y="5"/>
      <point x="467" y="5" type="curve" smooth="yes"/>
      <point x="468" y="5"/>
      <point x="469" y="6"/>
      <point x="469" y="7" type="curve" smooth="yes"/>
      <point x="469" y="8"/>
      <point x="468" y="9"/>
    </contour>
    <contour>
      <point x="467" y="59" type="curve" smooth="yes"/>
      <point x="466" y="59"/>
      <point x="465" y="57"/>
      <point x="465" y="56" type="curve" smooth="yes"/>
      <point x="465" y="55"/>
      <point x="466" y="53"/>
      <point x="467" y="53" type="curve" smooth="yes"/>
      <point x="469" y="53"/>
      <point x="470" y="55"/>
      <point x="470" y="56" type="curve" smooth="yes"/>
      <point x="470" y="57"/>
      <point x="469" y="59"/>
    </contour>
    <contour>
      <point x="467" y="108" type="curve" smooth="yes"/>
      <point x="466" y="108"/>
      <point x="464" y="107"/>
      <point x="464" y="105" type="curve" smooth="yes"/>
      <point x="464" y="103"/>
      <point x="466" y="102"/>
      <point x="467" y="102" type="curve" smooth="yes"/>
      <point x="469" y="102"/>
      <point x="471" y="103"/>
      <point x="471" y="105" type="curve" smooth="yes"/>
      <point x="471" y="107"/>
      <point x="469" y="108"/>
    </contour>
    <contour>
      <point x="421" y="-41" type="curve" smooth="yes"/>
      <point x="420" y="-41"/>
      <point x="420" y="-42"/>
      <point x="420" y="-42" type="curve" smooth="yes"/>
      <point x="420" y="-43"/>
      <point x="420" y="-43"/>
      <point x="421" y="-43" type="curve" smooth="yes"/>
      <point x="421" y="-43"/>
      <point x="422" y="-43"/>
      <point x="422" y="-42" type="curve" smooth="yes"/>
      <point x="422" y="-42"/>
      <point x="421" y="-41"/>
    </contour>
    <contour>
      <point x="421" y="9" type="curve" smooth="yes"/>
      <point x="420" y="9"/>
      <point x="419" y="8"/>
      <point x="419" y="7" type="curve" smooth="yes"/>
      <point x="419" y="6"/>
      <point x="420" y="5"/>
      <point x="421" y="5" type="curve" smooth="yes"/>
      <point x="422" y="5"/>
      <point x="423" y="6"/>
      <point x="423" y="7" type="curve" smooth="yes"/>
      <point x="423" y="8"/>
      <point x="422" y="9"/>
    </contour>
    <contour>
      <point x="421" y="108" type="curve" smooth="yes"/>
      <point x="419" y="108"/>
      <point x="417" y="107"/>
      <point x="417" y="105" type="curve" smooth="yes"/>
      <point x="417" y="103"/>
      <point x="419" y="102"/>
      <point x="421" y="102" type="curve" smooth="yes"/>
      <point x="423" y="102"/>
      <point x="424" y="103"/>
      <point x="424" y="105" type="curve" smooth="yes"/>
      <point x="424" y="107"/>
      <point x="423" y="108"/>
    </contour>
    <contour>
      <point x="374" y="-41" type="curve" smooth="yes"/>
      <point x="373" y="-41"/>
      <point x="373" y="-42"/>
      <point x="373" y="-42" type="curve" smooth="yes"/>
      <point x="373" y="-43"/>
      <point x="373" y="-43"/>
      <point x="374" y="-43" type="curve" smooth="yes"/>
      <point x="375" y="-43"/>
      <point x="375" y="-43"/>
      <point x="375" y="-42" type="curve" smooth="yes"/>
      <point x="375" y="-42"/>
      <point x="375" y="-41"/>
    </contour>
    <contour>
      <point x="374" y="108" type="curve" smooth="yes"/>
      <point x="372" y="108"/>
      <point x="371" y="107"/>
      <point x="371" y="105" type="curve" smooth="yes"/>
      <point x="371" y="103"/>
      <point x="372" y="102"/>
      <point x="374" y="102" type="curve" smooth="yes"/>
      <point x="376" y="102"/>
      <point x="377" y="103"/>
      <point x="377" y="105" type="curve" smooth="yes"/>
      <point x="377" y="107"/>
      <point x="376" y="108"/>
    </contour>
    <contour>
      <point x="374" y="158" type="curve" smooth="yes"/>
      <point x="372" y="158"/>
      <point x="370" y="156"/>
      <point x="370" y="154" type="curve" smooth="yes"/>
      <point x="370" y="152"/>
      <point x="372" y="150"/>
      <point x="374" y="150" type="curve" smooth="yes"/>
      <point x="376" y="150"/>
      <point x="378" y="152"/>
      <point x="378" y="154" type="curve" smooth="yes"/>
      <point x="378" y="156"/>
      <point x="376" y="158"/>
    </contour>
    <contour>
      <point x="327" y="-41" type="curve" smooth="yes"/>
      <point x="327" y="-41"/>
      <point x="326" y="-42"/>
      <point x="326" y="-42" type="curve" smooth="yes"/>
      <point x="326" y="-43"/>
      <point x="327" y="-43"/>
      <point x="327" y="-43" type="curve" smooth="yes"/>
      <point x="328" y="-43"/>
      <point x="328" y="-43"/>
      <point x="328" y="-42" type="curve" smooth="yes"/>
      <point x="328" y="-42"/>
      <point x="328" y="-41"/>
    </contour>
    <contour>
      <point x="327" y="108" type="curve" smooth="yes"/>
      <point x="325" y="108"/>
      <point x="324" y="107"/>
      <point x="324" y="105" type="curve" smooth="yes"/>
      <point x="324" y="103"/>
      <point x="325" y="102"/>
      <point x="327" y="102" type="curve" smooth="yes"/>
      <point x="329" y="102"/>
      <point x="331" y="103"/>
      <point x="331" y="105" type="curve" smooth="yes"/>
      <point x="331" y="107"/>
      <point x="329" y="108"/>
    </contour>
    <contour>
      <point x="327" y="158" type="curve" smooth="yes"/>
      <point x="325" y="158"/>
      <point x="323" y="156"/>
      <point x="323" y="154" type="curve" smooth="yes"/>
      <point x="323" y="152"/>
      <point x="325" y="150"/>
      <point x="327" y="150" type="curve" smooth="yes"/>
      <point x="330" y="150"/>
      <point x="331" y="152"/>
      <point x="331" y="154" type="curve" smooth="yes"/>
      <point x="331" y="156"/>
      <point x="330" y="158"/>
    </contour>
    <contour>
      <point x="327" y="208" type="curve" smooth="yes"/>
      <point x="325" y="208"/>
      <point x="323" y="206"/>
      <point x="323" y="203" type="curve" smooth="yes"/>
      <point x="323" y="201"/>
      <point x="325" y="199"/>
      <point x="327" y="199" type="curve" smooth="yes"/>
      <point x="330" y="199"/>
      <point x="332" y="201"/>
      <point x="332" y="203" type="curve" smooth="yes"/>
      <point x="332" y="206"/>
      <point x="330" y="208"/>
    </contour>
    <contour>
      <point x="281" y="-41" type="curve" smooth="yes"/>
      <point x="280" y="-41"/>
      <point x="279" y="-42"/>
      <point x="279" y="-42" type="curve" smooth="yes"/>
      <point x="279" y="-43"/>
      <point x="280" y="-43"/>
      <point x="281" y="-43" type="curve" smooth="yes"/>
      <point x="281" y="-43"/>
      <point x="282" y="-43"/>
      <point x="282" y="-42" type="curve" smooth="yes"/>
      <point x="282" y="-42"/>
      <point x="281" y="-41"/>
    </contour>
    <contour>
      <point x="281" y="59" type="curve" smooth="yes"/>
      <point x="279" y="59"/>
      <point x="278" y="57"/>
      <point x="278" y="56" type="curve" smooth="yes"/>
      <point x="278" y="55"/>
      <point x="279" y="53"/>
      <point x="281" y="53" type="curve" smooth="yes"/>
      <point x="282" y="53"/>
      <point x="283" y="55"/>
      <point x="283" y="56" type="curve" smooth="yes"/>
      <point x="283" y="57"/>
      <point x="282" y="59"/>
    </contour>
    <contour>
      <point x="281" y="108" type="curve" smooth="yes"/>
      <point x="279" y="108"/>
      <point x="277" y="107"/>
      <point x="277" y="105" type="curve" smooth="yes"/>
      <point x="277" y="103"/>
      <point x="279" y="102"/>
      <point x="281" y="102" type="curve" smooth="yes"/>
      <point x="282" y="102"/>
      <point x="284" y="103"/>
      <point x="284" y="105" type="curve" smooth="yes"/>
      <point x="284" y="107"/>
      <point x="282" y="108"/>
    </contour>
    <contour>
      <point x="281" y="158" type="curve" smooth="yes"/>
      <point x="278" y="158"/>
      <point x="277" y="156"/>
      <point x="277" y="154" type="curve" smooth="yes"/>
      <point x="277" y="152"/>
      <point x="278" y="150"/>
      <point x="281" y="150" type="curve" smooth="yes"/>
      <point x="283" y="150"/>
      <point x="285" y="152"/>
      <point x="285" y="154" type="curve" smooth="yes"/>
      <point x="285" y="156"/>
      <point x="283" y="158"/>
    </contour>
    <contour>
      <point x="281" y="208" type="curve" smooth="yes"/>
      <point x="278" y="208"/>
      <point x="276" y="206"/>
      <point x="276" y="203" type="curve" smooth="yes"/>
      <point x="276" y="201"/>
      <point x="278" y="199"/>
      <point x="281" y="199" type="curve" smooth="yes"/>
      <point x="283" y="199"/>
      <point x="285" y="201"/>
      <point x="285" y="203" type="curve" smooth="yes"/>
      <point x="285" y="206"/>
      <point x="283" y="208"/>
    </contour>
    <contour>
      <point x="281" y="258" type="curve" smooth="yes"/>
      <point x="278" y="258"/>
      <point x="275" y="255"/>
      <point x="275" y="252" type="curve" smooth="yes"/>
      <point x="275" y="249"/>
      <point x="278" y="247"/>
      <point x="281" y="247" type="curve" smooth="yes"/>
      <point x="284" y="247"/>
      <point x="286" y="249"/>
      <point x="286" y="252" type="curve" smooth="yes"/>
      <point x="286" y="255"/>
      <point x="284" y="258"/>
    </contour>
    <contour>
      <point x="234" y="-41" type="curve" smooth="yes"/>
      <point x="233" y="-41"/>
      <point x="233" y="-42"/>
      <point x="233" y="-42" type="curve" smooth="yes"/>
      <point x="233" y="-43"/>
      <point x="233" y="-43"/>
      <point x="234" y="-43" type="curve" smooth="yes"/>
      <point x="234" y="-43"/>
      <point x="235" y="-43"/>
      <point x="235" y="-42" type="curve" smooth="yes"/>
      <point x="235" y="-42"/>
      <point x="234" y="-41"/>
    </contour>
    <contour>
      <point x="234" y="59" type="curve" smooth="yes"/>
      <point x="232" y="59"/>
      <point x="231" y="57"/>
      <point x="231" y="56" type="curve" smooth="yes"/>
      <point x="231" y="55"/>
      <point x="232" y="53"/>
      <point x="234" y="53" type="curve" smooth="yes"/>
      <point x="235" y="53"/>
      <point x="236" y="55"/>
      <point x="236" y="56" type="curve" smooth="yes"/>
      <point x="236" y="57"/>
      <point x="235" y="59"/>
    </contour>
    <contour>
      <point x="234" y="108" type="curve" smooth="yes"/>
      <point x="232" y="108"/>
      <point x="231" y="107"/>
      <point x="231" y="105" type="curve" smooth="yes"/>
      <point x="231" y="103"/>
      <point x="232" y="102"/>
      <point x="234" y="102" type="curve" smooth="yes"/>
      <point x="236" y="102"/>
      <point x="237" y="103"/>
      <point x="237" y="105" type="curve" smooth="yes"/>
      <point x="237" y="107"/>
      <point x="236" y="108"/>
    </contour>
    <contour>
      <point x="234" y="158" type="curve" smooth="yes"/>
      <point x="232" y="158"/>
      <point x="230" y="156"/>
      <point x="230" y="154" type="curve" smooth="yes"/>
      <point x="230" y="152"/>
      <point x="232" y="150"/>
      <point x="234" y="150" type="curve" smooth="yes"/>
      <point x="236" y="150"/>
      <point x="238" y="152"/>
      <point x="238" y="154" type="curve" smooth="yes"/>
      <point x="238" y="156"/>
      <point x="236" y="158"/>
    </contour>
    <contour>
      <point x="234" y="208" type="curve" smooth="yes"/>
      <point x="231" y="208"/>
      <point x="229" y="206"/>
      <point x="229" y="203" type="curve" smooth="yes"/>
      <point x="229" y="201"/>
      <point x="231" y="199"/>
      <point x="234" y="199" type="curve" smooth="yes"/>
      <point x="236" y="199"/>
      <point x="239" y="201"/>
      <point x="239" y="203" type="curve" smooth="yes"/>
      <point x="239" y="206"/>
      <point x="236" y="208"/>
    </contour>
    <contour>
      <point x="234" y="258" type="curve" smooth="yes"/>
      <point x="231" y="258"/>
      <point x="229" y="255"/>
      <point x="229" y="252" type="curve" smooth="yes"/>
      <point x="229" y="249"/>
      <point x="231" y="247"/>
      <point x="234" y="247" type="curve" smooth="yes"/>
      <point x="237" y="247"/>
      <point x="239" y="249"/>
      <point x="239" y="252" type="curve" smooth="yes"/>
      <point x="239" y="255"/>
      <point x="237" y="258"/>
    </contour>
    <contour>
      <point x="234" y="308" type="curve" smooth="yes"/>
      <point x="230" y="308"/>
      <point x="228" y="305"/>
      <point x="228" y="301" type="curve" smooth="yes"/>
      <point x="228" y="298"/>
      <point x="230" y="295"/>
      <point x="234" y="295" type="curve" smooth="yes"/>
      <point x="237" y="295"/>
      <point x="240" y="298"/>
      <point x="240" y="301" type="curve" smooth="yes"/>
      <point x="240" y="305"/>
      <point x="237" y="308"/>
    </contour>
    <contour>
      <point x="187" y="-41" type="curve" smooth="yes"/>
      <point x="187" y="-41"/>
      <point x="186" y="-42"/>
      <point x="186" y="-42" type="curve" smooth="yes"/>
      <point x="186" y="-43"/>
      <point x="187" y="-43"/>
      <point x="187" y="-43" type="curve" smooth="yes"/>
      <point x="188" y="-43"/>
      <point x="188" y="-43"/>
      <point x="188" y="-42" type="curve" smooth="yes"/>
      <point x="188" y="-42"/>
      <point x="188" y="-41"/>
    </contour>
    <contour>
      <point x="187" y="108" type="curve" smooth="yes"/>
      <point x="185" y="108"/>
      <point x="184" y="107"/>
      <point x="184" y="105" type="curve" smooth="yes"/>
      <point x="184" y="103"/>
      <point x="185" y="102"/>
      <point x="187" y="102" type="curve" smooth="yes"/>
      <point x="189" y="102"/>
      <point x="190" y="103"/>
      <point x="190" y="105" type="curve" smooth="yes"/>
      <point x="190" y="107"/>
      <point x="189" y="108"/>
    </contour>
    <contour>
      <point x="187" y="158" type="curve" smooth="yes"/>
      <point x="185" y="158"/>
      <point x="183" y="156"/>
      <point x="183" y="154" type="curve" smooth="yes"/>
      <point x="183" y="152"/>
      <point x="185" y="150"/>
      <point x="187" y="150" type="curve" smooth="yes"/>
      <point x="189" y="150"/>
      <point x="191" y="152"/>
      <point x="191" y="154" type="curve" smooth="yes"/>
      <point x="191" y="156"/>
      <point x="189" y="158"/>
    </contour>
    <contour>
      <point x="187" y="208" type="curve" smooth="yes"/>
      <point x="185" y="208"/>
      <point x="182" y="206"/>
      <point x="182" y="203" type="curve" smooth="yes"/>
      <point x="182" y="201"/>
      <point x="185" y="199"/>
      <point x="187" y="199" type="curve" smooth="yes"/>
      <point x="190" y="199"/>
      <point x="192" y="201"/>
      <point x="192" y="203" type="curve" smooth="yes"/>
      <point x="192" y="206"/>
      <point x="190" y="208"/>
    </contour>
    <contour>
      <point x="187" y="258" type="curve" smooth="yes"/>
      <point x="184" y="258"/>
      <point x="182" y="255"/>
      <point x="182" y="252" type="curve" smooth="yes"/>
      <point x="182" y="249"/>
      <point x="184" y="247"/>
      <point x="187" y="247" type="curve" smooth="yes"/>
      <point x="190" y="247"/>
      <point x="192" y="249"/>
      <point x="192" y="252" type="curve" smooth="yes"/>
      <point x="192" y="255"/>
      <point x="190" y="258"/>
    </contour>
    <contour>
      <point x="187" y="308" type="curve" smooth="yes"/>
      <point x="184" y="308"/>
      <point x="181" y="305"/>
      <point x="181" y="301" type="curve" smooth="yes"/>
      <point x="181" y="298"/>
      <point x="184" y="295"/>
      <point x="187" y="295" type="curve" smooth="yes"/>
      <point x="191" y="295"/>
      <point x="193" y="298"/>
      <point x="193" y="301" type="curve" smooth="yes"/>
      <point x="193" y="305"/>
      <point x="191" y="308"/>
    </contour>
    <contour>
      <point x="187" y="357" type="curve" smooth="yes"/>
      <point x="183" y="357"/>
      <point x="180" y="354"/>
      <point x="180" y="351" type="curve" smooth="yes"/>
      <point x="180" y="347"/>
      <point x="183" y="344"/>
      <point x="187" y="344" type="curve" smooth="yes"/>
      <point x="191" y="344"/>
      <point x="194" y="347"/>
      <point x="194" y="351" type="curve" smooth="yes"/>
      <point x="194" y="354"/>
      <point x="191" y="357"/>
    </contour>
    <contour>
      <point x="140" y="-41" type="curve" smooth="yes"/>
      <point x="140" y="-41"/>
      <point x="139" y="-42"/>
      <point x="139" y="-42" type="curve" smooth="yes"/>
      <point x="139" y="-43"/>
      <point x="140" y="-43"/>
      <point x="140" y="-43" type="curve" smooth="yes"/>
      <point x="141" y="-43"/>
      <point x="142" y="-43"/>
      <point x="142" y="-42" type="curve" smooth="yes"/>
      <point x="142" y="-42"/>
      <point x="141" y="-41"/>
    </contour>
    <contour>
      <point x="140" y="158" type="curve" smooth="yes"/>
      <point x="138" y="158"/>
      <point x="136" y="156"/>
      <point x="136" y="154" type="curve" smooth="yes"/>
      <point x="136" y="152"/>
      <point x="138" y="150"/>
      <point x="140" y="150" type="curve" smooth="yes"/>
      <point x="143" y="150"/>
      <point x="144" y="152"/>
      <point x="144" y="154" type="curve" smooth="yes"/>
      <point x="144" y="156"/>
      <point x="143" y="158"/>
    </contour>
    <contour>
      <point x="140" y="208" type="curve" smooth="yes"/>
      <point x="138" y="208"/>
      <point x="136" y="206"/>
      <point x="136" y="203" type="curve" smooth="yes"/>
      <point x="136" y="201"/>
      <point x="138" y="199"/>
      <point x="140" y="199" type="curve" smooth="yes"/>
      <point x="143" y="199"/>
      <point x="145" y="201"/>
      <point x="145" y="203" type="curve" smooth="yes"/>
      <point x="145" y="206"/>
      <point x="143" y="208"/>
    </contour>
    <contour>
      <point x="140" y="258" type="curve" smooth="yes"/>
      <point x="137" y="258"/>
      <point x="135" y="255"/>
      <point x="135" y="252" type="curve" smooth="yes"/>
      <point x="135" y="249"/>
      <point x="137" y="247"/>
      <point x="140" y="247" type="curve" smooth="yes"/>
      <point x="143" y="247"/>
      <point x="146" y="249"/>
      <point x="146" y="252" type="curve" smooth="yes"/>
      <point x="146" y="255"/>
      <point x="143" y="258"/>
    </contour>
    <contour>
      <point x="140" y="308" type="curve" smooth="yes"/>
      <point x="137" y="308"/>
      <point x="134" y="305"/>
      <point x="134" y="301" type="curve" smooth="yes"/>
      <point x="134" y="298"/>
      <point x="137" y="295"/>
      <point x="140" y="295" type="curve" smooth="yes"/>
      <point x="144" y="295"/>
      <point x="147" y="298"/>
      <point x="147" y="301" type="curve" smooth="yes"/>
      <point x="147" y="305"/>
      <point x="144" y="308"/>
    </contour>
    <contour>
      <point x="140" y="357" type="curve" smooth="yes"/>
      <point x="137" y="357"/>
      <point x="134" y="354"/>
      <point x="134" y="351" type="curve" smooth="yes"/>
      <point x="134" y="347"/>
      <point x="137" y="344"/>
      <point x="140" y="344" type="curve" smooth="yes"/>
      <point x="144" y="344"/>
      <point x="147" y="347"/>
      <point x="147" y="351" type="curve" smooth="yes"/>
      <point x="147" y="354"/>
      <point x="144" y="357"/>
    </contour>
    <contour>
      <point x="94" y="-41" type="curve" smooth="yes"/>
      <point x="93" y="-41"/>
      <point x="93" y="-42"/>
      <point x="93" y="-42" type="curve" smooth="yes"/>
      <point x="93" y="-43"/>
      <point x="93" y="-43"/>
      <point x="94" y="-43" type="curve" smooth="yes"/>
      <point x="94" y="-43"/>
      <point x="95" y="-43"/>
      <point x="95" y="-42" type="curve" smooth="yes"/>
      <point x="95" y="-42"/>
      <point x="94" y="-41"/>
    </contour>
    <contour>
      <point x="94" y="9" type="curve" smooth="yes"/>
      <point x="93" y="9"/>
      <point x="92" y="8"/>
      <point x="92" y="7" type="curve" smooth="yes"/>
      <point x="92" y="6"/>
      <point x="93" y="5"/>
      <point x="94" y="5" type="curve" smooth="yes"/>
      <point x="95" y="5"/>
      <point x="95" y="6"/>
      <point x="95" y="7" type="curve" smooth="yes"/>
      <point x="95" y="8"/>
      <point x="95" y="9"/>
    </contour>
    <contour>
      <point x="47" y="-41" type="curve" smooth="yes"/>
      <point x="46" y="-41"/>
      <point x="46" y="-42"/>
      <point x="46" y="-42" type="curve" smooth="yes"/>
      <point x="46" y="-43"/>
      <point x="46" y="-43"/>
      <point x="47" y="-43" type="curve" smooth="yes"/>
      <point x="48" y="-43"/>
      <point x="48" y="-43"/>
      <point x="48" y="-42" type="curve" smooth="yes"/>
      <point x="48" y="-42"/>
      <point x="48" y="-41"/>
    </contour>
    <contour>
      <point x="47" y="9" type="curve" smooth="yes"/>
      <point x="46" y="9"/>
      <point x="45" y="8"/>
      <point x="45" y="7" type="curve" smooth="yes"/>
      <point x="45" y="6"/>
      <point x="46" y="5"/>
      <point x="47" y="5" type="curve" smooth="yes"/>
      <point x="48" y="5"/>
      <point x="49" y="6"/>
      <point x="49" y="7" type="curve" smooth="yes"/>
      <point x="49" y="8"/>
      <point x="48" y="9"/>
    </contour>
    <contour>
      <point x="47" y="59" type="curve" smooth="yes"/>
      <point x="46" y="59"/>
      <point x="44" y="57"/>
      <point x="44" y="56" type="curve" smooth="yes"/>
      <point x="44" y="55"/>
      <point x="46" y="53"/>
      <point x="47" y="53" type="curve" smooth="yes"/>
      <point x="48" y="53"/>
      <point x="50" y="55"/>
      <point x="50" y="56" type="curve" smooth="yes"/>
      <point x="50" y="57"/>
      <point x="48" y="59"/>
    </contour>
    <contour>
      <point x="47" y="108" type="curve" smooth="yes"/>
      <point x="45" y="108"/>
      <point x="44" y="107"/>
      <point x="44" y="105" type="curve" smooth="yes"/>
      <point x="44" y="103"/>
      <point x="45" y="102"/>
      <point x="47" y="102" type="curve" smooth="yes"/>
      <point x="49" y="102"/>
      <point x="50" y="103"/>
      <point x="50" y="105" type="curve" smooth="yes"/>
      <point x="50" y="107"/>
      <point x="49" y="108"/>
    </contour>
    <contour>
      <point x="47" y="407" type="curve" smooth="yes"/>
      <point x="43" y="407"/>
      <point x="39" y="404"/>
      <point x="39" y="400" type="curve" smooth="yes"/>
      <point x="39" y="396"/>
      <point x="43" y="392"/>
      <point x="47" y="392" type="curve" smooth="yes"/>
      <point x="51" y="392"/>
      <point x="55" y="396"/>
      <point x="55" y="400" type="curve" smooth="yes"/>
      <point x="55" y="404"/>
      <point x="51" y="407"/>
    </contour>
    <contour>
      <point x="47" y="457" type="curve" smooth="yes"/>
      <point x="42" y="457"/>
      <point x="39" y="453"/>
      <point x="39" y="449" type="curve" smooth="yes"/>
      <point x="39" y="444"/>
      <point x="42" y="440"/>
      <point x="47" y="440" type="curve" smooth="yes"/>
      <point x="52" y="440"/>
      <point x="55" y="444"/>
      <point x="55" y="449" type="curve" smooth="yes"/>
      <point x="55" y="453"/>
      <point x="52" y="457"/>
    </contour>
    <contour>
      <point x="267" y="15" type="curve" smooth="yes"/>
      <point x="146" y="15"/>
      <point x="79" y="99"/>
      <point x="79" y="251" type="curve" smooth="yes"/>
      <point x="79" y="315"/>
      <point x="91" y="367"/>
      <point x="114" y="405" type="curve"/>
      <point x="98" y="419" type="line"/>
      <point x="72" y="377"/>
      <point x="58" y="320"/>
      <point x="58" y="251" type="curve" smooth="yes"/>
      <point x="58" y="88"/>
      <point x="132" y="-4"/>
      <point x="268" y="-4" type="curve" smooth="yes"/>
      <point x="319" y="-4"/>
      <point x="374" y="14"/>
      <point x="420" y="47" type="curve"/>
      <point x="422" y="66" type="line"/>
      <point x="416" y="68" type="line"/>
      <point x="373" y="35"/>
      <point x="319" y="15"/>
    </contour>
    <contour>
      <point x="470" y="158" type="curve"/>
      <point x="138" y="437" type="line"/>
      <point x="171" y="471"/>
      <point x="218" y="489"/>
      <point x="277" y="489" type="curve" smooth="yes"/>
      <point x="325" y="489"/>
      <point x="372" y="473"/>
      <point x="409" y="445" type="curve"/>
      <point x="415" y="445" type="line"/>
      <point x="421" y="464" type="line"/>
      <point x="381" y="492"/>
      <point x="328" y="509"/>
      <point x="277" y="509" type="curve" smooth="yes"/>
      <point x="212" y="509"/>
      <point x="159" y="489"/>
      <point x="122" y="450" type="curve"/>
      <point x="3" y="550" type="line"/>
      <point x="1" y="552"/>
      <point x="-1" y="552"/>
      <point x="-3" y="550" type="curve" smooth="yes"/>
      <point x="-4" y="548"/>
      <point x="-4" y="545"/>
      <point x="-2" y="544" type="curve"/>
      <point x="465" y="151" type="line"/>
      <point x="465" y="150"/>
      <point x="466" y="150"/>
      <point x="467" y="150" type="curve" smooth="yes"/>
      <point x="469" y="150"/>
      <point x="470" y="150"/>
      <point x="471" y="151" type="curve" smooth="yes"/>
      <point x="472" y="153"/>
      <point x="472" y="156"/>
    </contour>
  </outline>
</glyph>
<glyph name="caron.alt" format="1">
  <advance width="390"/>
  <outline>
    <contour>
      <point x="211" y="651" type="line"/>
      <point x="208" y="655" type="line"/>
      <point x="191" y="653" type="line"/>
      <point x="179" y="509" type="line"/>
      <point x="182" y="505" type="line"/>
      <point x="199" y="507" type="line"/>
    </contour>
  </outline>
</glyph>
<glyph name="five.dnom" format="1">
  <advance width="288"/>
  <outline>
    <contour>
      <point x="245" y="368" type="line"/>
      <point x="243" y="370" type="line"/>
      <point x="197" y="369" type="line"/>
      <point x="105" y="369" type="line"/>
      <point x="72" y="370" type="line"/>
      <point x="66" y="364" type="line"/>
      <point x="62" y="215" type="line"/>
      <point x="65" y="211" type="line"/>
      <point x="116" y="200" type="line" smooth="yes"/>
      <point x="189" y="184"/>
      <point x="223" y="159"/>
      <point x="223" y="117" type="curve" smooth="yes"/>
      <point x="223" y="55"/>
      <point x="170" y="15"/>
      <point x="91" y="15" type="curve" smooth="yes"/>
      <point x="76" y="15"/>
      <point x="58" y="17"/>
      <point x="38" y="20" type="curve"/>
      <point x="36" y="18" type="line"/>
      <point x="39" y="2" type="line"/>
      <point x="57" y="-1"/>
      <point x="76" y="-3"/>
      <point x="90" y="-3" type="curve" smooth="yes"/>
      <point x="182" y="-3"/>
      <point x="243" y="45"/>
      <point x="243" y="117" type="curve" smooth="yes"/>
      <point x="243" y="169"/>
      <point x="205" y="201"/>
      <point x="124" y="218" type="curve" smooth="yes"/>
      <point x="80" y="228" type="line"/>
      <point x="84" y="351" type="line"/>
      <point x="210" y="351" type="line"/>
      <point x="240" y="349" type="line"/>
      <point x="243" y="351" type="line"/>
    </contour>
  </outline>
</glyph>
<glyph name="four.tf.001" format="1">
  <advance width="475"/>
  <outline>
    <contour>
      <point x="423" y="210" type="line"/>
      <point x="420" y="214" type="line"/>
      <point x="315" y="214" type="line"/>
      <point x="315" y="586" type="line"/>
      <point x="295" y="586" type="line"/>
      <point x="38" y="214" type="line"/>
      <point x="38" y="197" type="line"/>
      <point x="41" y="193" type="line"/>
      <point x="82" y="194" type="line"/>
      <point x="295" y="194" type="line"/>
      <point x="295" y="0" type="line"/>
      <point x="297" y="-3" type="line"/>
      <point x="313" y="0" type="line"/>
      <point x="315" y="3" type="line"/>
      <point x="315" y="194" type="line"/>
      <point x="349" y="194" type="line"/>
      <point x="420" y="193" type="line"/>
    </contour>
    <contour>
      <point x="295" y="214" type="line"/>
      <point x="62" y="214" type="line"/>
      <point x="291" y="547" type="line"/>
      <point x="295" y="547" type="line"/>
    </contour>
  </outline>
</glyph>
<glyph name="icircumflex.001" format="1">
  <advance width="237"/>
  <outline>
    <contour>
      <point x="120" y="491" type="move" name="mark0"/>
    </contour>
    <contour>
      <point x="0" y="0" type="move" name="mark1"/>
    </contour>
    <contour>
      <point x="19" y="559" type="line"/>
      <point x="24" y="559" type="line"/>
      <point x="59" y="598"/>
      <point x="89" y="635"/>
      <point x="120" y="676" type="curve"/>
      <point x="151" y="635"/>
      <point x="181" y="598"/>
      <point x="216" y="559" type="curve"/>
      <point x="221" y="559" type="line"/>
      <point x="230" y="571" type="line"/>
      <point x="197" y="608"/>
      <point x="166" y="648"/>
      <point x="129" y="697" type="curve"/>
      <point x="111" y="697" type="line"/>
      <point x="74" y="648"/>
      <point x="43" y="608"/>
      <point x="10" y="571" type="curve"/>
    </contour>
    <contour>
      <point x="128" y="0" type="line"/>
      <point x="128" y="491" type="line"/>
      <point x="108" y="491" type="line"/>
      <point x="108" y="0" type="line"/>
    </contour>
  </outline>
</glyph>
